<mxfile host="65bd71144e">
    <diagram id="1UrWbVBrvK0qLBAHD2AL" name="Page-1">
        <mxGraphModel dx="1113" dy="851" grid="1" gridSize="10" guides="1" tooltips="1" connect="1" arrows="1" fold="1" page="1" pageScale="1" pageWidth="850" pageHeight="1100" math="0" shadow="0">
            <root>
                <mxCell id="0"/>
                <mxCell id="1" parent="0"/>
                <mxCell id="2" value="" style="group" vertex="1" connectable="0" parent="1">
                    <mxGeometry x="50" y="220" width="270" height="200" as="geometry"/>
                </mxCell>
                <mxCell id="3" value="" style="rounded=1;whiteSpace=wrap;html=1;sketch=1;curveFitting=1;jiggle=2;fillColor=none;" vertex="1" parent="2">
                    <mxGeometry width="270" height="200" as="geometry"/>
                </mxCell>
                <mxCell id="16" value="" style="shape=image;verticalLabelPosition=bottom;labelBackgroundColor=default;verticalAlign=top;aspect=fixed;imageAspect=0;image=data:image/png,iVBORw0KGgoAAAANSUhEUgAAAjYAAAExCAYAAABvW+gQAAAAAXNSR0IArs4c6QAAAARnQU1BAACxjwv8YQUAAAAJcEhZcwAADsMAAA7DAcdvqGQAAFJBSURBVHhe7d0JvE1V+wfwRZQh81BmIUTmqcyzZIioSFKiQYaion+S5rcMSaYXpaISIjOZZYxEIZIxY6YMEcn9399jrfNeupdz79nnnL32/n0/n9vedx1xz7lnePZaz3qeZDGxFBEREZEHJNdHIiIiIusxsCEiIiLPYGBDREREnsHAhoiIiDyDgQ0RERF5BgMbIiIi8gwGNkREROQZDGyIiIjIMxjYEBERkWcwsCEiIiLPYGBDREREnuFoYLNw4UL17bff6u+IiIiIIsuxJpjnz59XqVKlCpynSJFCzomIiIgixbEZm3feeUefKTVkyBB9RkRERBQ5jszYHDx4UOXKlUuZvyp16tRq165dKlu2bPI9ERERUSQ4MmPTs2fPQFADZ8+eVS+99JL+joiIiCgyQp6xWbFihapatar+7nLfffedKl++vP6OiIiIKLxCmrH5559/VOfOneU8a9ascoTs2bPLEbddvHhRzomIiIjCLaTAZtSoUWr9+vVyPmDAADlCv3795IgZm08++UTOiYiIiMItyUtRR48eVYULF1bHjx9XtWrVUlOnTlXp06eX25BjU7duXbV8+XKZyfnll19UxowZ5TYiIiKicEnyjE3v3r0lqEmWLJkaNGiQHA2cDx48WM6PHDmi+vbtK+dERERE4ZSkwGbdunXqv//9r5w/9dRTqkSJEnIeV5kyZVSHDh3kHHVtfvrpJzknIiIiCpdEL0UhGRi7oFatWiXLS9u2bVNZsmRRf/75p0qXLp38mb/++ktdf/316vfff5flqpMnT6rq1aurRYsWXTazQ0REROSkRM/YjBs3ToIaeP311yWoSQh2R73yyityvnTpUjVhwgQ5JyIiIgqHRM3YnDhxQhUpUkRmYooXL65++OGHQE+o+GZsAH2jSpYsKQnEOXPmVFu2bFE33nij3EZERETkpETN2Lz66qsS1AAShoNpdIkAB38W9u/fr9588005JyIiInJa0DM2mzZtUqVKlZIcm2bNmqnJkyfrWy5JaMbGaNy4sZo1a5YEQxs3bpTcGyIiIiInBTVjg9ina9euEtQgYOnfv7++JXgDBw6UoObChQuqW7dul/WWIiIiInJCUIHNpEmTZEcT9OjRQxUoUEDOEwMzNAhoYO7cuWr69OlyTkREROSUay5FnTt3Tt16661q7969KkeOHGrr1q3xJv9eaykKkHyMAOfw4cMqf/788nelTJlS30pEREQUmmvO2KByMIIaeOedd0La0ZQhQwb19ttvy/muXbukcjERERGRU4JKHh4+fLjMxrRp0ybBAnvBzNgA8nTGjh0rM0GPP/64HiUiIiIKXaIrDyck2MCGiIiIKFwSXXmYiIiIyK0Y2BAREZFnMLAhIiIiz2BgQ0RERJ7BwIaIiIg8g4ENEREReQYDGyIiIvIMBjZERETkGQxsiIgi7I8//lDr169X33zzjfr555/VhQsX9C1EFCoGNkREEfDPP/+oiRMnqsqVK6vMmTOrsmXLqrvuuksVL15cpU2bVjVo0EBNnz5d2s4QUdKxpQIFDVeVeONFl/Y6deqoPHny6FvshCtlPG9Lly6tUqRIoUeJnIfn2gMPPKA2btyoR5RKmTKlypo1qzp48KCK+zZ86623qhEjRqhatWrpESJKDM7YUFBOnTolV5otWrRQ7du3lzffWbNm6Vvtgq7yzZs3lyvlihUrqlKlSsmHC1E4zJ07V1WqVEmCmjRp0qhOnTqpTZs2yQXgvn37JLhesWKFvK5SpUqltm3bJhcOTz31lNxGRInDGRsKStu2bdVnn30mv9cMGTKow4cPqxtuuEHNnj1b1axZU/8pOzRp0kTNnDlTzpMnTy5T//jwqVevnowROWX58uWqdu3a6u+//5aZwUmTJqkCBQroW//t999/V507d5Y/B+XLl5fnarZs2eR7Iro2ztjQNS1atEiCGsAb7s6dO1XVqlXVuXPnVLt27axKfPzoo4/kgyJZsmRyxBUz7h+DGnIanlstW7aUoKZGjRrq22+/vWpQA9mzZ1cTJkxQX375peTdrF27Vl5ru3bt0n+CiK6FMzZ0Tffcc4/k1tx3333yhgvHjh1T+fPnV6dPn1affvqpeuihh2Tczc6ePaty5colO1Kee+459e677+pbiJx1/vx5CUgQmOB1giMShhNjzZo1qlGjRurIkSMqR44cas6cOapEiRL6ViJKCGds6KowOzNjxgw5f+aZZ+QIeJN+/PHH5bxfv35ydDssnyGoyZIli3rttdf0KJHz3nvvPQlmkFPz9ddfJzqogQoVKqhly5apfPnyqQMHDsiS744dO/StRJQQBjZ0VUOGDJEdG1jrv/POO/XoJQh0sJvop59+khwVt8ubN6/MPC1dulSSNInCAUHIG2+8Iec4lixZUs6TonDhwpKng6NJej9z5oy+lYjiw8CGEoSAZty4cXLepUsXOcaVO3du1bp1azm3ZdYGU/u33Xab/o7IeT179pSleTzPkAgcqpw5c6qpU6fKUj8uIh577DF9CxHFh4ENJeiHH36Q5ZvrrrtO8mzi06NHDzkuXLhQ7d+/X85thkTPefPmSY4EUWKtXLkycDEwaNAgx+ojFSlSJPD3Is+tf//+ck5E/8bAhhJklpewBJU+fXo5vxKm2fGmC8glsN2YMWOkAmz37t31CFFwMMPZtWtXOW/atKnjO+1QpqBPnz5y3qtXLzV//nw5J6LLMbChBGEXBuCD/mqw7g9TpkyRo81MvZDx48dLCXyiYKEkwvfffy87QgcOHKhHnfXKK69IgIPaS61ateI2cKJ4MLCheKHSMKbVAf1srqZZs2ZyXLJkiew6shmCuNSpU8t2dtwfomBhJxQgr+Za9WqSCvWXxo4dK8nEeI6icKZDFTuIPIOBDcVrwYIFUngPvWzQrO9qsC0VCY7482ZruJv88ssvavLkyUF9AGB7rpmhwv9DFAxsy0ZOGipZm+WocMGyMAplIn8HO6ZGjx6tbyEiYGBD8TL5NcgTwFXi1eB2k1zsxuWo+vXrSwXYLVu26JGrM0tryBni1TAF4/3335cjXgcoKxBut99+u3r++efl/IUXXlCHDh2ScyJiYEMJMIHNtZahDBMM4P9D5Wm3QDCzZ88eCb5Qrj4YyGHA1TB2eX333Xd6lCh+v/32WyBxPtyzNXG9/PLLqlChQtJtv1u3bnqUiBjY0L+gx41JSqxbt64crwVVUdHbBsXD3BQMYOs2lClTRioOByNjxoyBxp6mWSZRQoYNGyaJ5tghiJ5QkYIikyNGjJBz9JdCQ1oiYmBD8Vi1apUcMaWOHjXBwAzHHXfcIefIN3CLxYsXy7FOnTpyDNarr76qypUrJ8tYRAnB7OSoUaPkPL4iluGGzuFIIIZOnTqxKjFRLAY29C+rV6+WY6VKleQYLDT9A3QxdgskV0K1atXkGCzU7kETQnOfiOKDLd7YnYReUG3atNGjkYWt5ZiN3L17d6DODZGfMbChfzEzNokNbEzwgG3iqLMRbdu3b1e///67nFeuXFmORE764IMP5NixY8eo9R9DUDNgwAA5RxIzdgHaAku9qMeD+lFoQYF2FEePHtW3EiVNshiHtn2gNwp6mQCmZ1GkiuyDLdsZMmRQZ8+elSWlxAQEmAbH/4t8g3Xr1qnSpUvrW6IDW2Lvv/9+qYz8888/61EiZ6DOUa1ataTlCLpu58mTR98SHVWqVJGLCjznUWDS7TDDhHo/V34EFS9eXFq0mGKZRInFGRu6zMaNGyWoQc7MterXXAk1YMz/44Y8G+TIoCs5tsMSOQ2d7wEFKqMd1MDbb78tRyQSo6aO2+XKlUvyg9q3b68mTpwos1+4MNq0aZNq2LChK2Z9yU6csaHLYJcFkhARoKxdu1aPBu+5556TNf/77rtPmvUReREqbN98883SLBXFLDFz4wYICFByAUUmbdwlhZYUyGs7d+6clGpAhWWixOKMDV3GJA6bHU6JZZJt3bQzishpX331lQQ1mHUwpQHc4K233pIjgpulS5fKuU0wy4oedYMHD2ZQQ0nGwIYuk9QdUYYJbA4cOCB5B7ZDAjJyF9zYKoKiB7uhoHXr1teszB1JqNeE2VJ48cUX5Wgb1AJCvy2ipGJgQwGoYGraDiQ1sEFvKSTrgpu2fScVCvwhIfP111/XI+R3KGBpGqRGa4v31eC5ioRmPG+nT5+uR4n8g4ENBaxfv16OaLIXyjSw2fbtheUosysMu7xOnz4t5+Rv2HGE1MRixYqpUqVK6VH3wGv3kUcekfOXXnrJFUm4yLtr1KgRt3JTRDCwoQAT2IT6Zu3GQn1JVaJECZUpUybZwm6K/ZG/mWWoBx98UI5u1LdvX3XDDTfILsdp06bp0ejAJgQ07EQyM/qvEYUbAxsK2LBhgxxDDWzMjA0KhR0+fFjOIwmdjtGU04laHsifMPfHLD+Qf6EekrkAcHNgg6Tmdu3ayXn//v3lGA24IHjiiSdkhgsNdXGhQBRuDGwowLxhh1pY75ZbblE5c+aU82gsR6GOx9SpU9WYMWP0SGhMY0MGNvT555/LES038ufPL+du1aNHDwnMV6xYIfk20TB06FCpqYOqzKbuT2KgrYlpZEsULAY2JFBxePPmzXLuRN5ANLd9m22u6LbsBBPY4E2WTQb9zQQ2bkwavtKtt96qmjZtKuf9+vWTYyRh2enll1+Wc+T6oMpwYuHnx0yP2dRAFAwGNiQwxY66HNhNcfvtt+vRpItmno35N6tXry7HUGEGC+XdEfxhRwz5E2Y9du7cKa8RtC2wAXJbADOY27Ztk/NI6d69uzp16pQqWrRo4OdIrLx588oylo3FBil6GNiQMMtQeBNC0mGoTF4KpqFRlTpStm7dGmh8aYKrUCVPnlzNmjVLek/hKpj8yczWoKovyhrYALv6sGyG4AA7kyIFr3ksCcOwYcOSXIm+Xr16cpw/f74ciYLBwIaEU4nDBpIEsW0cyYOmW3gkmGUozDphN5NTUBH13nvv1d+R3+B5bD6o3Zw0HB+0OYFPPvkkYsn8yKl5+umnpaZOKJWZzawrWi0QBYuBDQmnEocNzHKYGjCRzLNxehmKCBAwIyhInTq1uueee/SoHfDzFipUSHr4IZk3ErBch6aWyK0JBWoFAWZhjx07JudE18LAhoTTMzZglqMimWfz22+/ydEk/BI5YcqUKXKsX7++Sps2rZzbAhcZ2CEFWBZCLp0tcufOLTO/gK7fRMFgYEOSEGsqgjo1YwMmxwVLUUi8jQTs/nj//fdVs2bN9AhR6JB8C7Y+r9q2basyZMigjhw5Ig08bWJmbbgzioLFwIYCszU333yz7P5xSsWKFSVpEFukkUQcCeXLl1ddunRRKVOm1CNEoUE7DcwEYuajSZMmetQuadKkkeAGRowYIUdbIFcHmxrQjJYoGAxsyPH8GgO7qypUqCDnXmlHgO2re/fu1d+RH3z99ddyRN5W5syZ5dxGTz75pByxNIzyDrZAzSDU2DIzN0TXwsCGwpJfY2CrKUSr8qnTWrRoIVu+OS3uHya/xvblTQQGZnl41KhRcnTS6NGjI5acTHQ1DGwobDM2cMcdd8gxklu+w+ns2bPq3LlzLBjmE9u3bw8krXohb6tDhw5yRE0eJ/Pe8Pp+/PHHZRmYKNoY2PgcCmn9+uuvch7OGRvkKHihs6+5P+i/Q95nlqHKlCkjVXBthxlH7OrC9um5c+fq0dChmzjYthWevImBjc/99NNPUpUU9TkKFy6sR52TI0cOlSdPHjkP56zNxYsX1fHjx/V34WNq83hlaY2uzivLUAaCGgQ3gIJ9TsBr4ZtvvpFzE+AQRRMDG5/78ccf5YhKvdj1EQ6RyLNp3LixdBQPd2KvCWww+7Rnzx45J2/CrIZ5znqpfEC7du3kOG3aNHXy5Ek5D8Urr7wix+bNm4dl1pcosRjY+Fw4E4eNcOfZoCLsnDlzJPcl3H2psmfPHuhSzFkbb8MHP2Yz8ftGixCvQIsDPI9RqG/BggV6NGnwmjZ9nMI5W4OWFr1795bXOdG1MLDxORPYlCxZUo7hYAIb9Hv5+++/5dxJJlcgX758qkiRInIeTl7b6UXx89oylJEsWbJAc8lQ82wGDRokR+TWhDP4Q7mIt956S3Xs2FGPECWMgY2P4WoUOTYQzhmbsmXLSqE+9KoxgZSTzFXcXXfdJcdwM00QcdVL3nT69OnAbIbXAhtAawgwuTFJhccJevbsKcdwwUULoEr6H3/8IedECWFg42O7du2SgnMQzhkbBDXYVQJOz3IgadhcdTZs2FCO4YZ/B4nKL774oh4hr8F2fizVoBK3yavyEjNjg/cAsysyKdDxfPfu3YFZ2XDBjjRUT4atW7fKkSghDGx8zCQO400DfWTCySzfOJ1ns3btWulzhRYKtWvX1qPhh8cLU/rkTWYZqmnTpmFLqo8mtE8xS0ehzNog2DC7HsMJr7WCBQvKeSiBGPkDAxsfi0R+jWGu6JyesTFvyqioeuONN8o5USiQBzZr1iw59+IylNGgQQM5OlnPJpxQ8Ru2bdsmR6KEMLDxMTNjE4ktmmbGBlPf2EbrFNTJwRW1afBHFKpFixbJNmjUfKlbt64e9R6TZ4P7G6nu+6EoVKiQHDljQ9fCwMbHIjljg+lq1JkBJ2dtHnvsMcl3eeSRR/QIUWhMtWHkUqGRq1dVq1ZNpUqVShKAbdjhZ2ZscHFEdDUMbHwK9V527Ngh55EqqhWuejbp0qXTZ0ShwU7BqVOnyrmXl6EAQRs6loMNy1H333+/bCs3XcqJEsLAxqfitlIwU7zhFq48m2g5cuSIevfdd7n91EO+++47deDAAZUiRQrVqFEjPepdJs/GFNm7FtSTwczr8OHD9Ujk4AIGSd0PPfSQHiGKHwMbn4pEK4UrmcAGO5lQSdR2KE7Wq1cv1adPHz1CtjOzNbVq1Qr7TkE3MDM26PAfTPHMV199VR08eFD9/PPPeoTIfRjY+JQJbCKRX2OUL19eroTPnDkT+Pdtdsstt8hxyZIlciT7mcDGL12qseUbpRJQs2fTpk16NH54zZqZnQ4dOsiRyI0Y2PhUJHpEXQmJiubfC2en70gxO702btwYKHRI9tq+fXtgJgL1a/wAxTMxawtoeXI1AwYMkCN2ikXygogosRjY+JRppRDpNygn+ixhyrxLly5q2LBheiQ6brvtNpUxY0bJVVq9erUeJVuh6SWULl1a5c6dW879AC1P4GqBDbrZf/HFF3Leo0cPOZJ3vf/++6pVq1ZWlAGIDwMbH8J2SdTpgGgFNqHM2KDc/dChQ9V7772nR6ID1VDN/VmxYoUcyV4msPHLbI1Rrlw5OV4tsPnggw/kQ6548eKBhGPyJlyovfTSS9IuY/PmzXrULgxsfMjkt6C2DGYcIqlSpUpyRJGtY8eOyXliTZo0SY5VqlSRYzSZ++OFpTU/Qy2kZcuWyblfAxu8LyR0hf7hhx/KsXv37nKMFnzovvDCC6p///56hJyGRqPIg4RItMsIBwY2PhTJwnxXKlCggDQWhKQEA1iGmj59upy3aNFCjtFkdnpdKz+B3A0tFLBTL1euXIGlGb/A+wCS+s+dO5fgFTqCnxo1aqg2bdrokejAjiwENQhuzKwzOeuXX36RY5YsWVSmTJnk3DYMbHzIzNhEMnE4rlBmORYsWKBOnDghfaFMSfhowrbg1q1bq6eeekqPkI3MMlSTJk3k6Cco1FesWDE5TyhAx/IvWi8g2Tia0LzTVINma4XwMIFNkSJF5GgjBjY+FM0ZGwglz+arr76SY+PGjV1R7h5bZT/77DPVt29fPUK2wSzgnDlz5Nxvy1BGMHk2boC8NlNmgYFNeGzdulWOhQsXlqONGNj4DNZOsa0VojVjg3o2YAKsYGGpwPTxccMyFHnD4sWLZbs+ml5iBs6PbAlswMwuocwCOc/M2DCwIWuYVgqoKWOaykUatknD4cOHE5VAjDX1o0ePqjRp0kiDQiInmGUoLG16uenl1ZjABhcbbq8KjqKC4IUin27EGRuyjnkziGQrhSuhRohpXJmY7YRIZEOvGKz1I7ghcoJJRvfrMhRg9va6665Tf/31l+vbJZgldAY2zrt48aLas2ePnEfrwtcJDGx8Jtr5NYaZtUnsmyhK3VeoUEF/RxQafDjijRxBvh+aXiYEM7jmNWmWo7ADCbO7boMCioB6XMH0t6LgoQGs2fKfN29eOdqIgY3PoHsxmKnnaElqYEPkJLMMhYT2rFmzyrlfxc2zmThxonTx7t27t4y5CZKH+/XrJ01okbxPzvntt9/kiF2nNjeBZWDjI5hmRhdfMPVXosUkANpa2fJK3377rWrevLmUnid7+LXacHziBjamAB6WJtwIbR26du2qvyOnmMDG1sJ8BgMbH8EbFqYZU6dObe1SlFuNHDlSOkNHu38VBQ/T7mvXrpVzBjb/6xm1bt06tWbNGtla3bFjRxkjfzD5NTYvQwEDGx8xdWOw3RqJgtFkZmxwhXD69Gk5t1mhQoXk6JUZKD8wScNIkrS5GJlTkLuCXCNUIAbsPESlcPIPztiQdUxgE+1lKMifP78kLMKWLVvkmBBcRcycOVN/507MGbIPl6Euh52GpvgddO7cWZ+RXzCwIeu4KbDBlaG5Sr7WLEfdunWl1L3JD3IjE9igGip3argfClWiPQcwsPkfk4yLPkHs4u0/XIoiq6BjK77ADYENmOWoq81yIJhBsIBACLs03ArFrPAzorjZtm3b9Ci51TfffCNLLvgAr1y5sh4lUzATMzfIsSF/4YwNWcXM1uAJmyNHDjmPtoIFC8pxx44dcoyP6Q1VrVo1lT17djl3I1SsNW8GO3fulCO5l1mGuvvuu6Oeb+Ympo+bDUENWsPggmLIkCF6hEJx/vx59fvvv8s5AxuygpuWoQzk2cDu3bvlGJ9JkybJ0YbeUCZQ45Zvd8MWZpOzxWWoy5kt1Fe72HALFBvFbC5q2lDo9u7dq88Y2JAlVq9eLUc3BTb58uWTIyqIxge5N6Zvyb333itHN3v99dfVE088oe6//349Qm6EIB99yq6//nrmkVzB9AdCT7bjx4/LuVtVrVpVjlg+4Sxp6Ex+DQpVmo0dtmJg4wOoXWPKpLtxxgbTnygeeCWzDIWf2c35NQam8YcPH251xU4/MMtQ6OSNCqv0P3idmT5spsuzW2Fp2iTto38chcYr+TXAwMYH0N7/7NmzKkWKFKpMmTJ6NPrwAjJr+fEtRy1ZskSOLVu2lCORE7jNO2F4PZqaTDYkwdesWVOODGxCx8CGrGL6Q6Hdv5umGLEUYBKZ4wts2rVrJ20K2rZtq0eIQoOcDFM3iYFN/MxylNtnbACzbsDAJnRe2eoNDGx8wAQ2FStWlKObXC3PBgENlqOyZcumR4hCY2ZrMHOZK1cuOfc7dDj/448/9HeXKjGDTTM2SNhnmYXQcMaGrOLmwCaYnVFETuEy1OUw04FWCg888IAesWvGBomu5n3N7cnObsfAhqzx559/Bir72jZjQ+QkFJ9bvny5nDOwuWTQoEFyjFsjyqYZG5g4caKaP3++K9/fbGICGy5FkethNxTqdmD3h9lB4CZem7GZPXu2FBNE8TBylylTpkhlaFyRuimJPlrwmpsxY4acd+rUSY5gZmzQnPbgwYNy7mb4fdauXVt/R0lx6tQpdeLECTnnjA25nqlfg47eKPnvNmbGxiuBzeeffy6zAh999JEeIbf44osv5Bh32cXPhg0bpmJiYlTZsmUDFYcByzsZM2aUcxuWoyh0ZrbG7a1rgsXAxuPcnF8DZsYGyX+meSS2ptvKXO0wZ8hdMPNgds60bt1ajn6GulEffvihnD/99NNyjMu25SgKjQlsENR4ocUIAxuPc3tgY9ZzceWIF9eXX34pV4ujR4+WcdswZ8idJkyYIM8xLLNwGUqp8ePHS85R5syZ4w30bEogptCZrd5eWIYCBjYedujQoUAk7tbAJnXq1IHERQQDI0aMkJmbuH1LbMJdXu5klqE4W3PJnDlz5Ni+fft4a1uZGRsGNv5gPicY2JDrmdkaFMHLnTu3nLuRmeVAheRvv/1Wzu+55x452sbcl7hLaxRd6CNkcs0Y2FzSoUMH9cgjj6gePXrokcuZGRublqJwMYRZKEo8s9mhQIECcrQdAxsPM4FNhQoV5OhWZpZj3rx5soPrlltusXa5wAQ2ZmmNog/LLoDnlPnA9ru6detKgvtNN92kRy5nZmzwgYfXpNuh31yxYsVUjRo19AglhglsChYsKEfbMbDxMLfn1xgmGFi3bp0cW7RoIUcbYWnNVLTFUiBFH5ehEs8EgOfOnbMmQMf29E2bNvF1lwQ7duyQIwMbcr01a9bIsVKlSnJ0KzNjY2pm2BzYwKhRo9Rrr73mqk7qfoUPOixxArd5By9dunSB2Rwb8myQp2e2qJteYBQc1LA5cuSInHMpilwNa+Om/4vbl6LiLt8gF8j2CqJ33XWX6t27d6BzOUWPma2pUqWKZxIjI8W2Ld9FihSRIwObxDHLUClTpnR1LmZiMLDxKLMMhRd7+vTp5dytzIwNdOzYkQEBOcbk13AZKvFs2/JdtGhROW7dulWOFBwT2CC30Y1FXJOCgY1H2ZJfA2bGBh5++GF9RhQavAaQO4CCY/fdd58e9S+0V8FXsGzb8m0CG87YJI7XEoeBgY1HmfwaGwIb9LFCoTBg/RdyCtpbQJ06dVS2bNnk3K+QAIycr+rVq+uRa7NtyzeXopKGgQ1ZAdszN2zYIOfoEWUDM2vDir3khAsXLgTya9q0aSNHP/vvf/8rDUDNLEwwTGCD16QNNZnQ7wpJz1myZNEjFAyv7YgCBjYehDVm9FvCemnJkiX1qLuZPBsGNuQE1EQ6fPiwSpMmjbr33nv1qD+dP38+0KIkbhfva8EHHfLdEBChyKHbYRfXr7/+qhYsWKBHKBhmxsYrO6KAgY0H/fDDD3LE1CzqqtjAa60I+vXrpypXrqyOHz+uRyiSxo0bJ8dmzZqptGnTyrlfffXVV1LADpsIEjN7hVYLZieZLXk2WHJ0+2YJN8FMnOkTxRkbcjUT2NhUvddrS1Fourhq1So1Y8YMPUKRgkJtX3/9tZy3bdtWjn42bNgwObZr1y7RQR57RnkbLiRNZWnO2JCr2RLY4GoBPWswu+G1GRvTtZzJ0JE3ZcoUWYrF0gRaB/jZTz/9pJYvXy7niVmGMmxLIKbEMctQOXPmjLcZqq0Y2HiQLYHN7NmzpV/N0KFDA4ENdm/Y0JvmWpgMHT2mdk2rVq1kq7efLV68WI61atUK7BpKDNtq2VDieHFHFDCw8Risl5q8DrcHNpMmTZIjtqCaQACzOOiMbTuvzUDZ4sSJE2r+/Plyzto1l9qTPPfcc2rIkCF6JHFsqz5MiePFHVHAwMZjzGwNlkIyZcok526EAGb69Oly3rJlS5UhQwb5Ai8EA5yxiQ7kNOG5hal1bP/1OzwO7777rrrtttv0SOKYGZu9e/fK8p4N8LOuWLFCf0dX48UdUcDAxmNMYFO6dGk5uhW2ZOLqGsX56tevL2NeCgbiLq2hBxZFhpkFbN68OVtzOADP4xQpUsi5LbM2WIKsWrWqWrt2rR6hhHApiqxgS36N+QBq1KhRIGnNBANeCGzQdwUfCKghcvLkST1K4fTnn3+quXPnyrntHeLdAs9hPJfBlsDGBGIrV66UIyWMS1FkBRsCGxT8mjp1qpzH/QDyUl4Kammg8u3YsWMDS2wUXrNmzVJ//fWXypo1q6pWrZoepVDZlkBslt1+/vlnOVL8Dh48qM6cOSPnDGzItY4ePSrry+DmwAYvJvysqAp7991361Hv5aUgaGM5/8hBITpAUT6/74Zykm0JxAxsgmOWoXAR5rU2FAxsPGT9+vVyRENJUzHUjdDPBTtXkOCH4MbgTiJKKszUzJw5U86RjO5nGzduVJ988oljZRM4Y+NNmzdvlqP5/XoJAxsPsSW/BmrXrv2vPlYmsMGWdSbcUmIgtwY5NhkzZpSaLX6FZV7Mgj766KNq3bp1ejQ0tlUfNoEN2kiwpUnCEADD7bffLkcvYWDjITYFNvExS1Hnzp2T9V+iYJllqKZNm6qUKVPKuR9NmzZNlqMxE+rUlbj5e44cOSI7Gd0ud+7cstsSOGuTMAY2ZAXbAxssoeGKG1jplIIVtyaS33dDmb5QyO1yqhkkAgWzc9GW1yWeB7j/uXLl0iN0JRPYlChRQo5ewsDGI5CQu3XrVjm3NbCBokWLynHLli1yJLqW+Goi+RGCDjwWkJS+UAlBPaBChQrJuS2BzZgxY9SxY8cCs8B0OSzTHT58WM45Y0Ou9eOPP0peipNT0NFgAhuvTCE/++yzqlSpUlzrD6PJkyfLsXHjxuqGG26Qcz8yszWouIznnJPMe4pNrRWSJ+fHW0LMbA1myXPkyCHnXsLfvEeYZSgk5Lr1Bb1o0SI1YcIE/V38TOKfV2ZsvvnmG+mwPG/ePD1CTkIwb5ahsM3brzBji51Q4ORsjWFbAjFdnQlsihcvLkevYWDjEW7Pr0Hi4V133SXlzrF7JSFeW4oyHZWZxBgeKJt/6NAhqTaL55dfIeDAchyKE4aj+aeNMzaUMC8nDgMDG49we2Azfvx4SfJEefa0adPq0X8zMzbY8m2qYtqMOUPhhV1AUKNGDceSZW2EBFB08EYT0Ouvv16POoeBjbd4OXEYGNh4wIULF2S5A9wa2Hz66adyfOihh+SYEAQ+5o3ZJEPbjIFNeJllqCZNmsjRr1BpGUtQFStW1CPOMktR6HuGGTKy26ZNm+TIGRtyLSxzoNki3tzc+ERFgGI67bZt21aOCcF9MDswvLB8YwIbPAYsOugszOohaR78HtiEW/bs2QM9z2yZtcF74vDhw9X+/fv1CAFeN6dOnZJzBjbkWmYZCss4btwVYmZr7rjjjkDQcjVeSiA2gQ1K/rNVhLOw7ALFihULdKCm8LEtgRjJ1E8//bTq1q2bHiEwy1A5c+YM1A3zGgY2HuDm/BrMUnz22Wdy/vDDD8vxWry0fIO8DxPMoa4GOcfk13C2JjJsa4ZptjEvX75cjnSJSVvw6mwNMLDxADcHNgcOHJCpT5S5v//++/Xo1ZkZG6/sJJo0aZL68ssvVdmyZfUIher06dNq8eLFco42ChR+tu3wK1++vBzRnmXfvn1yTpdqnoFXE4eBgY0HmK7ebgxsbr75ZvWf//xHdkWhGFQwzIwNrgzR1M92qC0Uji24fob6QMihwPbmSpUq6VF/Qd5ar169Ilb80RT9c6q5ZrjhvQfLLWBy/EiplStXyrFChQpy9CIGNpbbuXOn7FSA0qVLy9FNUCzwhRdeUM2bN9cj14bABmXc8cHF7aUUH7MbqlGjRr6sMIslXuwwfPfdd9X8+fP1aHiZGUc02Tx69Kicu52ZtWFgcwl2tO3atUvOK1euLEcvYmBjue+++06OSJ40uxZsh7YQZjlq9erVciQyLl68qGbOnCnnfs2vwf1HEi9KI1SvXl2PhleePHlUlixZ5NyWWRsGNpdbsWKFHNEcFM1NvYqBjeVMnkG1atXk6BVmecEEbkTGqlWrpJI1PtT92vRywIABcsSszU033STnkWCWu20LbMxyvd+ZZSj0E/MyBjaWQ/8lqFmzphy9wgQ2nLGhK5llqFq1aklHb79BULFkyRI57969uxwjxSxHmQ0LbofnCFptPPDAA3rE30xg4+VlKGBgYzFk+5uaEl4LbEwFVWTwowaMF2AnD/KGKDR+rzY8cOBAOeIDGzV8Ism2GRvU9Zo1a5YaNGiQHvEvtLQxS3KcsSHXMstQ+fLlU/nz55dzNzh37pwaO3ZsSBU/sRUxderU0i7ClqvDq8F2U+zQSEwSNf0bkuU3b94s540bN5ajn+B5hNIB0KNHDzlGkpmx+fXXXwPVa8kOeB/FezOCPTfuoHUSAxuLuXUZCs342rVrp3r27KlHEg+tFcqVKyfnXliOQkNPzNjMnj07sIuNEs8U5cMW+rx588q5n6AuFEogYAdknTp19GjkoNikWf5j3opdzDIU3lfD0SjVTRjYWMzM2LgpsME21BEjRsh5qAWgvJRngw8EU758zZo1cqTE8/syFJJh8QEVqS3eV0IZBlNWwpblKLrEL4nDwMDGUrhyMzVekCDnFnjD3b59u1wRtG/fXo8mjcmz8UJggw8EL92faDhx4oRaunSpnPu52jAC/mCLXYaDbQnEdInZ6s3AhlzLLEMht8ZNU/LopgstW7aUqrChMDM2KCh1+PBhObcZA5vQzJ07V3KuUFHWbOOlyDOBDWds7IHcLBRWBK/viAIGNpZy4zIUXjwmB+Kpp56SYygQsJkaHV6oZ8PaPKGZOnWqHFFtGDNgFB0msEES99mzZ+XcBnhPevbZZ/V3/mKWobDRBBcGXsfAxlImsHHTMtTo0aOlKiy6xlapUkWPhsZLsxwmsEFZczQGpeBhqyq27cI999wjR4oOVAVPlSqVvNZNQ0W3Q+L+yJEj1fvvv++Z5rqJYT4v/DBbAwxsLISZEWy3BDfN2Jj8BydmawzzQlywYIEcbYalOaxvY7slPhQoeHhjRo5N2rRpVd26dfUoRQN2LJqGmN9//70c3Q47ucwW53nz5snRT8xMesOGDeXodQxsLGSi7wIFCkj/Frd444031Ntvv60ee+wxPRI6LDsAyuh7Ic8Gsw5bt251Vd0hG3z99ddybNCggcwW+Mkzzzwj/aAw6+AWNubZ1KtXT45+C2yQ5I38GgSk5v3U6xjYWMiN+TWA2QjUrnGyRgKWtdDgE9vIZ8yYoUfthUalfqy/Egr87s0VZ7NmzeToF/hQGjx4sFq2bJmrCuKZGlO2zNiACWzw/olCdX5hctOqVq2qMmXKJOdex8DGMniTN7kGfpmSNzVLzAuU/AVl4LH8iitOv1UbRlADaPaZI0cOOXcDM2OzadMma4IEfLDjwuLPP/8MBMp+YN43/ZSbxsDGMkiiRQ2blClTqrvvvluPepupWYIpZK/0jaLgmWWoGjVqBIoc+sHx48cD7RO6dOkiR7coXry4zMxi+/1PP/2kR90NP69phvnxxx/L0euwSWHDhg1y7qfaTwxsLDN58mQ51q5dW6VPn17OvQ75BbjSwtbSaFVcpegxgY3flqHw4YtAHlt03Zb0iQsrU1ncpjybDh06SKkAs/nC68zMFAJR5GT6BQMby0yZMkWOfmqmmCJFisAbu5+mkElJdW2zPddPgU3c1iSPP/64Sp7cfW/VNubZoLAjcmz8sqztx2UoYGBjkY0bN0q7AlxxuOGJije0Bx98MNBtOZzMNCoSiPGmb7vz58+rPn36sJHgNZjZGuR05M6dW879YPny5RLUYWbEyV2GTrK1AnG1atVU0aJF9XfehfIIS5YskXO/tSBhYGMRM1uD3UemIm80Pf3002r8+PFq5syZeiR8MGODmZuDBw96onIvAjRsj2/btq0eofj4dRkqderUUu8I/dayZ8+uR93FNMPEhY0XLja8Zvbs2YEWJBUqVNCj/sDAxiJuWoZauHChBBiYIr/33nv1aPggxwbJo+CF5SjT6wi7SjALR/+GCs2oXwR+C2ywzHPkyJFA7zU3QgViQO4b+rmRu5hlKOwq9VsLEgY2lsAbh1m2cENgg9kGuP/++1XBggXlPNzMdKoX1sdRy8Zc8ZqAlS6HABYzAXh+oZ6R36DKspulS5cuUCAUATq5B7bgY8YG/NiChIGNJb766is5YidCtLPbsYyCBDxcBfzf//2fHg0/BHSYIcLUN3IQbIcO6IAeW5zK/zezDMXeUO5VrFgxOUYiz46ChxSBkydPSkG+OnXq6FH/YGBjiTFjxsixVatWcowWNCN87rnn5PzRRx+N6JU0kkdNsb4PPvhAjjbD1lMkh/7yyy9q7ty5epQA7QNMfzC/LUPZBNuIwdYZmw8//FD17dvXc73bzPsj3mOQq+U3DGwssGbNGrkiwmzFww8/rEejA1cC+CBGU7k333xTj0ZO165d5YgZrP3798u5rZAUagqGmQqzdAmm0bFzLFu2bL7pSGwjM2Nja2CDGefXXntNffHFF3rEfitXrpSdavi86NSpkx71FwY2Fvjoo4/kiLLquXLlkvNoQeVXNCFEjk00dmbVqlVLrhL/+eefQJ0Pm3Xr1k2OeDPictT/mGUozNC5sYYLXWJmbLZs2WLl8/ehhx6S4+uvv+6ZWRszW4PXDoo7+lLsk9ERp0+fjkmWLJl8nTt3To9SqM6cORMTG0zI4zphwgQ9Gl2xQYU+i47YgEYej+zZs8ecPXtWj9prxowZMQsXLtTf0fnz5wPP+enTp+tR7xs9enRMzpw5Y5YtW6ZH3O/kyZOB9/0dO3boUXscPHgwJk2aNPLzf/rpp3rUXnv37o1JmTKl3J/58+frUf/hpZDLYekHhZayZs3qmiTKaF9Bo/ZLlixZ1OHDh2WN3HaNGjWSmSi6BInpeM5jV5BfGr3GvhfLLCj6wNlU7h87o0zhRBsTiDHr3LlzZzl/+eWXre/6/e6770rtGuQ++jFp2GBg43KmjgUKdaGJGykVe4UVyLXBCxkJzeQdph9agwYNZNnTD5YuXap2794tyeQmQd4WticQ9+rVS5bY0TBy6NChetQ+v//+uxo1apScv/TSS3L0KwY2LoYEsLVr18r5E088IUe6BN2OcbX422+/qc8++0yPku0QpE6cOFHOUSPJLz755BM5Nm7cWGXOnFnObWF7AjG2RL/44otyjg0RZ86ckXPbDBgwQJqmFi5cWN1333161J8Y2LiYSY5F0vAtt9wi53QJrrCeeuopOf/Pf/7jue2afoVt78eOHZNdd7bNXCQVPkgnTZok5+3atZOjTcyMjc21bHChVKZMGVn+tHFmHK8ZM7uPIM3vCfcMbFwKxZU+//xzOX/yySflGA2DBg2SKwE36t69uyxVYPu5ueIlu5nZNxRjRL8kP8DSG+r2II/OdLG3iZmxQRd25ArZCO8jaN+xc+dO6Ulnm1deeUWeQ/nz51dt2rTRo/7FwMalxo4dK1dy2N4drSvXcePGSfCANWgkpLkN6sA888wzco41ZbywbXfq1CnpiYVZKL/B78/0AfPTm7O5gEGnfOTY2MYENni/srlnFB776667Tn9nD6QsDBs2TM7feecdKwMzpzGwcSmzDIXKkdF4sSGRzuwWQBdvt75YUGALOxvQ9futt97So/bCFeO3334r9wu1bfwEtWvQUBEBq592dKRPn15mDPBatxF+fpt3RtkMS/BYksdMGVIW/J5bYzCwcSF8sCERDwFNx44d9Wjk4MWCCsdYDsPVmJtnD+JWQH7vvfes7zJcsmTJwAwddn75KXfIzFygGrONV85JhfuNwNzmRp+2JxDbauTIkVKZHm0ThgwZokeJgY0LYQszoG5Nzpw55TySkFOD7aeYmsVylNu33D7yyCOS+IcaFM8//7wetRcCNLxRff/994Gq016HmkTz5s2TcyzJ+AkSPTHrYTMvJBDbBtu7zW6unj17qkKFCsk5MbBxHVzxzJw5U85feOEFOUbShg0bVO/eveUcPVRKly4t526GDwYkOQN6SCEosxm6t/fo0UPOsST1xx9/yLmXTZgwQdpkFCxYUFWqVEmPki28OGODYolo+It2EW6EizgUssRrBnmQ9D8MbFwGyV+ABNKKFSvKeSShQBVqiVSrVs2q2Q/8vC1btpTzZ5991volHAQ0SBw/cuSI7HjwOrMbym+zNV5hZmxs3hl1JeR8DRw4UJaGUR/GTXDxhg0mgCUovxSyDFrsk9AR7BUVut27d8ekSJFCHsM5c+bo0chCn5oOHTrE/Pbbb3rEHjt37oyJfYHL4/fhhx/qUXuNHz9e7gueE17oiZUQ9Bgy7x2xV8d6lGxy4sSJwO8Qr0MvOHToUEymTJnkPvXu3VuPRh96qcUGkvJzxV7M6VGKizM2LoKrA0zHlypVSsrJR0OVKlWkLLfZ5WAT1HDAbA1g+ze2TtsMSbSYucGWdi9fkZmk4bJly6oiRYrIOdkFOUKYYQSvLEdhd57ZOIG8xx9++EHOow05eMhlQjFBswRPl2Ng4xJHjx5Vo0ePlnMkglHSIBC4+eabVezVlpzbDo0R+/Xrp7/zntiLq0BxRT8tQ2EnX7169WTnoVd4MYEYu1KrV68uy/OorYRyBNGEmjV9+vSR81dffTUQTNLlGNi4BNZJUeAKrRNYiyDpsP0bM1+AfKGFCxfKObkTWiigmzXK2KPEgB9gB1jfvn3VggUL1P79+/Wo/UqUKCHHH3/8UY5ekCxZMvXpp5+qDBkySBJxNPMOEQSjf9r58+dV1apVVbdu3fQtdCUGNi6AgOaDDz6Qc+yG8VMNj3Bo1apVIJH40Ucf9dRVsdeY2htYdkNLAT9ACQUsOWN7btGiRfWo/bwY2EDevHkDlX1xROPdaEABxx07dsjr5IsvvuDnxFUwsHEBLEGhiVm2bNlU+/bt9Wj4YWu0V3ssoSEc1sjxJsQrG3fCm/Ts2bPlHNWt/eLjjz+Wo40NL68GxSUBMxtYuvGS1q1bS2VzzJjkyJFDj0YOZp9No1TshuIS1DVcyiEOHXdFJU3sG0BMvnz55HF744039Gj4TZ48OfD7wo4GL5o2bVrgPuLcKw4fPhxz5swZ/Z29evToIb+bChUq6BHvW7dundzn5MmTx+zZs0ePegPe982uzh9//FGPUqjwnLnhhhvkcX3xxRf1KF0NZ2yiDFOK6MuE3JBIXbVi14LJZ8CViO1VTxOC+hOoSgxIAkSCtu2wbIndX0jUtPn+IAnTVFU2Pcn8wMzW1K5dW+XJk0fOvQJ5UmZXm9eWo6Llyrya119/Xd9CV8PAJopQRM4U5Hv88cdVxowZ5Tycjh8/Lq0a/vzzT2lDYHZieRW2Q2KNHOXH0SzOCzJlyiQ9sfCcsRUK8qGiMvIFkF/jB8irMVvbvbYMZZjlKAY2zsAF2fbt25lXk0gMbKIIb3LYGom+QN27d9ej4XPhwgVJrEVuA/J5UFkzderU+lZvwmyUmRnAGjXeHGyWJk0a2aWRLFkyNWXKFGsDU+QMABIi8fz3C8xUZc6cWd177716xFsY2DgHicoTJ06Uc+bVJJJekgoZc2wSB9UjCxQoII8Xcg0i4bHHHpN/L2XKlDFLly7Vo/7QpUsXue+xHyox+/bt06P2euGFF+T+pE2bNmb9+vV61A6obo2fPfbq03N5Jteyd+/emOPHj+vvvGfmzJnyu82ZM6ce8bY//vgj5ueff9bfOQevEZNX06tXLz1KwWJgEyWx0bg8VunTp485cuSIHg0fBFKpU6eWfzP2il+P+geSbQsXLiz3v2rVqvJ42Aw/f8WKFeX+5M2bN+bgwYP6Fvdr1aqV/NzNmzfXI+QVaMWC3y2+IvG+Fm01a9aU+zpu3Dg9ErqtW7fGZMmSRf5e/P0XLlzQt1CwuBQVBUgANUlgqFsT+ySW83BKmTKlmjFjhpozZ45q27atHvUPLLlh6Q/LHsuXL5c2BTbD7xNLUbFXxrKl/YknntC3uBs6JqPMAPgpadgv0IoFOWCwYcMGOXqZqd2DXBgn7i9yARs2bCjlP1DjaPLkydbl1eDzLdoY2EQBivHFXmFLQlgkcmsM7MSoX7++/s5/ypUrp0aMGCHnqHMzZswYObcVgppp06apfPnySbE3G6AWCHK9ihUrJs9H8h6vFuqLT//+/VWlSpWk+3fz5s0lIEkqBASNGzdWO3fulLYwqPFkgkRboP2E2awRVXrmJmRcigoO1mSR54HHaeDAgXqUIqlz587y+GMN+7vvvtOjFG7o+nz99dfLYz9x4kQ9Sl5j8tkeffRRPeJtyJu66aab5D43aNAg5p9//tG3BA/LTbFBjfwdN954Y8z333+vb7HH1KlT5edHDidqbUUTZ2wiDA0NseUaU7adOnXSoxRJ6I5brVo1qQ2B3SlRv7rwCTTvQ0VazJy1aNFCj5LX+G1nFHYrYfdSihQp1DfffKN69+6tbwkelmVnzpwpy04TJkyQTvc2QekS03QYbWywGhFVOsAJGWdsrg07QNKkSSOP0ahRo/So844ePRqze/du/R3F59ChQzGxwaX8LmrUqCEVoCl8fvrpJ6m2i8c79s1fj3ofnlexFzAx7777rh7xvtWrV8vvGZsV/JT4+sEHH8j9xtf27dv16LW9/fbbgf8vnJ8L4fTRRx8Ffudu2HXKwCaC7rvvPnl8SpQoEbYXPLYe5siRIyZVqlQyRUoJwxuw2VLZtWtXPUrh0LRpU3mca9eurUf8wbQuwc41v/jzzz8DQWw4tkK72auvvhrTqFEjeQyC8dlnn8njhK/evXvrUbucPXs2Jk+ePHIf3LI1nYFNhCxYsCDw+CxZskSPOmvTpk2Btd5bbrmFv4cgfPjhh4Hfi5e2wWN2EFeQbugDtmLFisBjvGrVKj3qD/fcc4/cb9SQ8pMiRYrI/cYHN8UP/etMztnDDz+sR+3Tr18/uQ/IHUUOqRswsIkATEcXL15cHhvU8AgHTPVnz55d/o2CBQv6rvBZKJ588kl53DDLFa6gM9KeeOIJuU+VKlWKOXnypB6NjurVq8vP0qxZMz3iD3gNmqaQKLjmJ+3atZP7jUR9+re4QU39+vWtrqtVrlw5uR/9+/fXI9HHwCYC3nvvPXlcUCU2HMtDGzZsiMmaNav8G7feeiuXoBIJbyrmwxcFE9FN13YrV66U5xvuU7Vq1YKeGnfamDFj5GdAlWHMKPpJz5495b6XLl1aj/jH8OHD5b7jQ48uFzeoqVevnvWd+rHDEV3H3fS5z8AmzFARNkOGDPK4IEnMadhCa6pUYvrXC+0CogFTqPgAwuOYLVs2qf5pOyx/YhYK96lu3bqyFh5JSNA2pQ2ef/55PeoPCCTNfUdw5zdo84H7jq2/tn9wO8lrQY1bMbAJs0ceeUQeE8ykhONxMclnt912W8yBAwf0KCUFPojxe8LjiWRPlIe33ezZswNvpEhqjOSUd+vWreXfxdKo397AsbsF9x3Lw3/99Zce9Q9sjkA9FjwGfutLdyUEuc8++6wk1jKoiQwGNmGEfA3zmMyaNUuPOgtvIPi7scWbQrdr166YXLlyye+saNGiUS805YQpU6YEcj0iVTRt+vTpgef+/Pnz9ah/vPPOO3Lf+/btq0f8p1atWvIY4LHwMxTbM68FfDGoCT8W6AuT2ChdChVBs2bNpP9HOKCgE/7uzJkz6xEKBdoTzJs3Tx7PrVu3ymN76tQpfaud8PwbN26cPFfQVyrc9u3bF3jut2vXTtWpU0fO/eT5559XsR9oUpTQr+688045rly5Uo5+tXfvXhUb0Mg5jugPiN51FD7JEN3o85DggzxdunRyjr4Z119/vZz7FaoKoy8RGlxu2rRJZc+eXd9CNlizZo30MsLzumbNmtK3BQ00bYYKy3iNhvNNFdWc8bitWLFC+lfhw928L5C/oOlu06ZN1U033STNT/1o0qRJqk2bNlJxG32fUHU+ffr0aunSpYEKzeQ8ztiEwYIFCwLNFocOHcqgxkIVKlRQU6dOlQB98eLF6oEHHpAPbZvheRjuK0WUhkdQgyAQpeEZ1PjXHXfcIcdDhw6pXbt2ybmfDB48WN43ENTUrVtXbd68WYKZkydPykzwnj179J+0ByYtEKy2bdtWj7iULEg5gDk2l6BmCBJP8Tjcf//9ejR02OHSsWNH7nqKMFSOxVZl/D6xNn7q1Cl9C10pNogPvAeMGzdOj5KfmWT8Tz75RI9438WLF2NeeOGFwGsBnwMmgXz//v0x+fLlk/FChQpZ91n50ksvyc+OPEQ3Y2DjsA4dOshjgArAR44c0aOh+fjjj2XbJP5eVMqlyPryyy8DuxkqVqzoiYRipyHwNs/R5557To+S3z311FPynHjggQf0iLdh1+FDDz0k9xlfzzzzjAQ6caHNRM6cOaUcgE1JxBs3bgy8xkeOHKlH3YmBjYOwtdY8BtiJ4oTXXnst8HeiJT62DlLkoXGj2b6K3VJeajKKkgSo4YNCj0mxaNGiQDFAPEf/+ecffQv5ndkdlylTJs83xMRsLmZ1zfs1Wg0kBAHQsWPH9Hfuh+CscuXKcr+qVq36r2DNbRjYOAQ1T0xLA0TsocKbAJaezGPavn17dqCOsu+++y5Q4Rmdwb1SSffOO++U+4RCkosXL9ajwcFWbtOx/o477nBNr5hIQ0sTzNJ2795djxDgQswUifz222/1qPegEGvZsmXlfmJ212s9skwlady3zZs361H3YmDjANxf9OTBfUcxsuPHj+tbkgYVYlFMzTyer7zyir6Fog3TyCaHClPJaF1gO6z7lypVSu4Tup2jRHow5s6dG5M6dWr5/3A1F+2eVNF01113yePgZF6dV5jHxi2dn52GKuVoOoz7mC5dOs/VbUJtL1M9v0+fPnrU3RjYOMA0UcSVa1Kn8+P64osv5O9DUTXm1LgPZueKFSsmvyMswWAJ0naYaalZs2bgNYzeL1dbUsJ9Nlfi6EXl56TquJ37vdBnzGmDBw+Wx6ZkyZJ6xDtmzpwZ+NDPkSNHzA8//KBv8Y633npL7h+q29tSRZuBTYg++uijwP12aicIko47deokeR3kTqj0jKUX/N6RUIdGp7bDm1bcxMfGjRvrWy43Y8YMmdnBn6lRo4a89v0KuQbly5eXx+LBBx/UoxTX9u3bA88pL7QpMd58882Y5MmTy/0qUaKE9O0L1ZAhQ2RJa/ny5Xok+jCjiwudbdu26RH3Y2ATgrVr1wauWrt06aJHyS/wnG/YsGHged+sWbOQlyHd4IMPPpBgDQmfV8K2XbNDrHbt2r5PZh8/frw8FnhMduzYoUfpSmjQi8fpv//9rx6xF173LVu2DLzuce5UcG8uLPC54qct8k5jYJNEmFUx9QiqVKkS0eaC5B5YrkEOlLlyy58/vyQZ2w5X1lhbN/D6bteuXeA1jm7hfu93c+LEicB7QLdu3fQoxQdJ1XicsGvIZph9wuwM7gte81imcRJ2SuHzxLzOOnfuzE0jScDAJglwlWqefDfffLNM1ZG/IWEQu2LwnMDV+/vvv69vsd+PP/4o6+vm9Y3ZSb/l0cVn7Nix8nhky5aNtY2uAbkn5vnzyy+/6FG7IFkeGwZwHzJmzBi2xsa4SDb1f/BVvXp12XVFwWNgk0i4b/Xr15f7iR0hSV0Lxdr8G2+8IVcybq8JQMFBgBs3Affee++1fvszlg7MzicsTTlVn8kLkGfVtWtXV+VDuJmpg4KidTbBrCzyaUwFcmwciERwhvxNk8uGSr8HDhzQt9C1MLBJBNSWadGihdxH5CAkNWJHkiYqceLvwXQmn7DegefIyy+/HFiaKlCggJVJ4FhmadWqVeA1jURpszSFROlhw4Z5vuAaOQu1XfBcwmwHPi9ssHfv3phatWoFXgf33HNPRMsaYFk7T548ElQ5seP2ahCslSlTJuaxxx7TI/ZiYBMkzKqgQivuHz60JkyYoG9JHExZx11DHTRokL6FvATBDJYozO+5SZMmVkzBYxocycOm2CS+0PfGrPNjBsqMYzcQCtMRBQOfC2a51oYk4qlTp8ZkyZJFfl5cyKKScDRm15HL9uuvv+rvwmP9+vWB1zxqstmOgU2QMOVs7t/o0aP1aOKguBuu4PF3YHo/2EJoZCcsTcXdPo3cmx49erhyeQpv2ChXYAqN4Qv5Y/HNSqIuiVmewn3CkioTHCkYvXv3lueNm2vaoEDq008/HXgdoJEndsB61bx582QWDfcVjTnjbhqwFQObIPTs2TNw3wYOHKhHEwfr8ObJg6uWVatW6VvI61Cd2FSmxhdmcnDF6paeSigyZioP4yt9+vQSrFxtuQCzT+gZY/6fcuXKSZIx0dVgt53JVVm4cKEedQ+0STG7nvCFnYBuLz6Z1KJ5+F2gUra5r7jfXkmLYGBzFbgKjbvFNZRy0liKwN9RvHhxT0TElDiYEcEuGiQBmucT3khQWToatWAwazRmzJjLghPUzsCMUrBd6RGYId/GzN6gUjbKy3sRcopwFc+yDqEz+YW33367ax5PvNdj67ZJ1kVw//nnn+tb3QsXSPh58TrGjGuwQQ5e46bvHb7wO7GpKee1MLBJAKJ00+MEX2+//ba+JWnWrFkjV8FIyiT/QhCDANkEA/jCmygqTWNWL5xr+Fir//LLL6WQoHkDxxeuoNFkdc+ePfpPJg4qkqKuDRqDeq1IHYI31Kgxj9XGjRv1LZRUeJ6ZTvlO14FJCiTlYsbR/I7RFNaW57FJyDZfCFbatm0bM2LEiJhly5Yl+H6CC5ucOXPKxRW683sNA5t44EmNqwncFySNffrpp/oWImfgzR1LnCaZ0nxhRgdFubCtGgFDKMtVuBpGci96j7Vp0ybwYWK+8Mb27LPPSu4X/RuuYONe3OD3Rc7ATB8eUwTY0eqvhEAfifGYacTPgouNAQMGuGaJOFhbtmyRLfQox2Ceq+braqkTCHrCeSEVTcnwH+WA2CtRlS5dOjn/66+/1PXXXy/ntlm8eLFq2bKlin1TUxkyZFATJkxQ9erV07cSOevvv/9WU6dOVR9//LGaN2+efB9X7JutKl68uIoNtFXs1ZW67bbbEnxtxV6FqU2bNqmNGzfKV2xgpC5cuKBvvSRz5szy/G7durWqVq2aSp48ub4lvHC/8FZjy/tCbEComjdvrmIvctR1112nBg0apJ5++ml9K4UqNnhQtWrVUsuWLVOFChVS69atU7GBt741/CZPnqyef/55tXPnTvm+Zs2aauTIkfKz2Ors2bNq5syZatGiRfJ4Hj58WA0fPtyfn18IbJxg+4wN1iZxRWYS29DbJCn5Al6NgCn8MD2M2UHUSoq7OymUL1yNFi1aVHLFsMMJuQSRhuU3zETFXvjIbJTb83CQT4OZWjx+2AK7ZMkSfQs5CcmrZjs1+o5FIkl39erVl+WV4d9Hrhl5C2dsYq1atUq1b99ebdmyRb6/++671WeffSYzNsHCFUifPn3UwIED1YABA1SnTp30LURJE3uxIDMwmD3AF2Zhfv3113/Nwhhp06aVGR3M7phZntigJuqvRbzFYLZp8+bNekSp+vXrqy5dushrLfYDRo+6w5133qliPwBV5cqV1fjx41Xu3Ln1LeS0b775RjVp0kRm9CpUqKBmz54ts4pO27Vrl+rVq5fMwANm4Tp27KheffVVlS1bNhkjD0Fg4wQbZ2xQrwC7QEyV2NhARnapJBaqU1arVi1w/1Hng4j+BzNFSFyOe7WMLzQNTWpdqHDBllc3bkX2KtRRMflf2DW6b98+fUvokGPWoUOHy5LlsUOVeWXe5tvABtPLhQsXDvzMsVeOEqAkFmqAmG1zePEMHTpU30JE8Vm3bl3Mo48+KtvL8brBh1kkoRXE77//rr8jN0BdL9NgEkntI0eOTPKyKZJ/UTUYy1vm/R1f2PnkxR1A9G++C2zQe6NBgwaBnxVF8z7++GN9a/CwY+LBBx8M/D2o2Ig3bCIKDmppjB8/XoqiJWT37t3yZ7BzJpT3Fbw/ff3119IWBRciyKFZvHixvpXcALMrces84T0V25mD2aWEPC5cZGJr/pX5aXXq1ImZNm0a8x99xDc5NuvXr5ccmBkzZugRJbtDsNsh9gpBjwSvc+fOatiwYXLetm1bNWTIkMD9JyJnVKlSRa1cuVLOU6RIITlEpUqVUtmzZ5ccOOTpxF6cyO1Xwk4zvEZjgyPZIRJX+vTpZQdk6dKl9Qi5wYkTJ1T//v3lfRmfKYDdUvg9lSlTRpUtW1bdcMMNsmv1+PHj8oUdQMuXL79sR2GqVKlUmzZtVGygI7lm5DMS3jjArTM2KPNuOnKbL6yxhlo7AevC+HtwJKLwQLVmtHswu5Su/Orbt6/+k/8Wt00EvrDUgeJlX331lbxfkXthqRA1lsxyZTBfqOMSe7Eqy1jBVs8mb/LkjA3283/55ZdSlwA7ngzsxHjttddUxYoV9QgR2QBX49hVtWHDBtkdhpo9mMHp0aOHKliwoP5Tl9u+fbtasWKFypMnj8qbN6/Kly+f7IYhe8QGoCr2IlRmZfAVe6Eq47FBjHxhBxV+r6jVgl1VkarLRO7mqcAGb3oIZrBV++TJk3pUqTp16qjYKzuZ1iYiIiLvsj6wQX0PVFtEJcm1a9fqUaWyZs2q2rVrJ7UKChcurEeDc+bMGTV69GhZ50UwNHbsWH0LERERuZl1gQ3+7oULF0owg689e/boWy7B7AyCmWbNmiX6Z8D0NpKABw8erI4cOSJjmN5EsS4iIiJyPysCm3379kkQgx1NCxYskBwaI1myZKpSpUqqcePGqlWrVqpAgQL6luBhxwQy8dFXA2u6gBmfZ555RvrDJKYCMREREUWP6wKb8+fPy/LS999/L1+YLTEJYwa2ajZo0ECCmYYNG0oQEgpTQh2QaIjmaI899pg0ICQiIiJ7RDWwQRCDHQ7IjTGBDIKauPUIjFtvvVUCGXyhKzF2RDjlxRdflJ4lXbt2VQ8++KBKmTKlvoWIiIhsErHABsFK3CAGx4SCGAQWJUuWVOXKlZMvtJRHYJNUKPqEQAhNAomIiMi7whLYoO7AL7/8Ip2JUXsCx23btsXblfjKIAZfqBQZao4OdjZNmzZNff7552ru3LkqS5Ysau/evaxzQERE5GFhCWwSgiAGQUv58uUlgMHxyiAGW6zHjx8vu5uwswl/LthgBMHMrFmz1KRJkyTZGD+TgW3bixYtcnQJi4iIiNwlLIENAhFUAy1evLgqVqyYHPFVtGjRa87ENGnSRIISA9Ula9euLYEJqoc2b95cdkJdCbNBmPnZsmWLHlEyS3PfffdJ3gz+//j+PyIiIvKOsAQ2yGm51uxNQlBL5osvvlATJ078V2Mz+OSTT6TpZHzQJA3LTZjpadGihapbty5naIiIiHwkYsnDSYG/c+nSpWrevHmSaIylLCxVJVRJ+OLFizIrw5kZIiIif3J1YENERESUGNwiRERERJ7BwIaIiIg8g4ENEREReQYDGyIiIkoS1I8bMWKE2r17tx6JPgY2RERElCSLFy9WnTp1kjp1ffr0kUAn2hjYEBERUZLceeedqlWrVurcuXPqjTfeUEWKFJHuAQ5tuE4SBjZERESUJOgOgJ6MqDlXunRptW/fPqn2X6NGDekbGQ0MbIiIiCgkVatWVWvWrFEjR45UWbNmVcuWLZNej0888YQ6fPiw/lORwcCGiIiIQnbdddepDh06qG3btqlnn31Wvh81apR0C3j//ff/1SIpXFh5mIiIiBy3detWCXDmzJkj3992223SFqlevXryfbhwxoaIiIgch0TiWbNmqRkzZqhbb71V/fzzz6pBgwbSqHr79u36TzmPgQ0RERGFzd133y2NrPv166duvPFGNW3aNFWsWDH1f//3f+r06dP6TzmHgQ0RERGFFdJTevToIfk37du3l3yb//znPzKrM27cOEe3h4clxwbTTilTppRzIiIiori+//57mbGJa+bMmaphw4b6u6RzLLD5448/VObMmfV3RERERInTsWNHNXToUJUiRQo9kniOBTYXL16UPesHDhxQuXPn1qNERERElzty5Ijas2eP/u5/Nm7cKPk3oXAssCEiIiK6GuTWDB8+XL3yyivqxIkTMnbLLbeogQMHqqZNm6pkyZLJWCgY2BAREVHYzZs3Tz3zzDOy7RvSpEmjXnrpJal1kypVKhlzAgMbIiIiChvUrOnevbuaPn26HlGqTZs2sisqV65cesQ5DGyIiIjIcadOnVJvvvmmeu+99wLtFJCLO3jwYOkKHi4MbIiIiMgx2Ew0duxY1atXL3Xo0CEZy5Ytm3r77bfVI488opInD28JPQY2RERE5IjVq1errl27SqdvQCPMbt26qZdfflllyJBBxsKNgQ0RERGFZP/+/TJDgyrCxl133SXLUKguHEkMbIiIiChJkDszYMAA9cYbb6gzZ87IWKFChaSLN3pERQMDGyIiIkoSNLREt25Ag8s+ffrIUhR6Q0ULAxsiIiJKkmPHjql27dqpm2++Wb3++utyjDYGNkREROQZ4d1zRURERBRBDGyIiIjIMxjYEBERkWcwsCEiIiLPYGBDREREnsHAhoiIiDxCqf8HYvjq+Iy7BjMAAAAASUVORK5CYII=;" vertex="1" parent="2">
                    <mxGeometry x="16.84" y="36.32" width="236.33" height="127.36" as="geometry"/>
                </mxCell>
                <mxCell id="5" value="" style="group" vertex="1" connectable="0" parent="1">
                    <mxGeometry x="350" y="220" width="270" height="200" as="geometry"/>
                </mxCell>
                <mxCell id="6" value="" style="rounded=1;whiteSpace=wrap;html=1;sketch=1;curveFitting=1;jiggle=2;fillColor=none;" vertex="1" parent="5">
                    <mxGeometry width="270" height="200" as="geometry"/>
                </mxCell>
                <mxCell id="17" value="" style="shape=image;verticalLabelPosition=bottom;labelBackgroundColor=default;verticalAlign=top;aspect=fixed;imageAspect=0;image=data:image/png,iVBORw0KGgoAAAANSUhEUgAAAdkAAAENCAYAAABD6B87AAAAAXNSR0IArs4c6QAAAARnQU1BAACxjwv8YQUAAAAJcEhZcwAADsMAAA7DAcdvqGQAAFwXSURBVHhe7d0HXFPn1wfw300IKIri3hu3CAoqCDJEHHXb1q111aqtq466ra17a7W+rtpaR51o3X8VUBBUHLgAERVtVUBRKkNGkvMmZKoIDgIBzvf95P/2Zgh5eO4991nnEUgBjDHGGMt2IvX/Z4wxxlg24yDLGGOMGQgHWcYYY8xAOMgyxhhjBsJBljHGGDMQDrKMMcaYgXCQZYwxxgyEgyxjjDFmIBxkGWOMMQPJAxmfpIh/HIGwsFDcunEDN64HI/hOZXx3aDW6F1e/hTHGGDNCxhlk5U+xf/wXmPu/B3j06DGeJaRBrvdbSmxnIShoDmxM1E8wxhhjRshIW7IyvIgMxb0nT/Eo9DhWTlsGn2iZ+jUxqo06gdtrPWCmfoYxxhgzRnmgu/gFNn1WAV8fS1Edikqi185I/NXTQnXMGGOMGSnjn/gk/Qf/RsvVB4q7AjM7uLYqoj5ijDHGjJfRB1n50wAEhkrVR4BJQxe4luVJ0Ywxxoyf0Uer+LM+CErR9GiboLqzK6zE6kPGGGPMiBl5kE1G4OkAvNT0FotKwtGtKUzVh4wxxpgxM+4gm3oNPv5R0MwrFoq0gFtLHo9ljDGWNxh1kJXd98bZCG2IhcTGBa4l1YeMMcaYkTPiICtHjI8vrkt147F1Xd1QlcdjGWOM5RFGHGTjccY7CMmaGCuuACc3a0WoZYwxxvKG3A2yqVG4sH0RJn/TB51cm6JBfVu49J6JfWFJQHIgvANeKtqzKiJLJ3i0eHeOp8R/LuLg+p8wpl9HtLJrhMYOn2OuT6z2829KuX8Yi0Z+idb2NmjWcSx2hKmTXTDGGGPZJHcyPqU+hPe6+Zi3ajt8H5qgjmdP9O7oCCuLeNw6uA7rb7fHrrUSjPFcDNUSWQFFO27E3b+H4rUlsvE3sGfVWmw7eBQ+1x4jUSp7LcexSa3ROHlzNdwKqZ9Il4q7eyai36hfcfGZDKq3C7DoshkvDw5OP2KMMcayQ463ZFPuHcBkz+ZoP34DzgkemHfiJq4dW4/Z3w1Cv69GY/6ew/ix0t+YP/9/0M15kqCJuztKvfnbilIgs3TGiF/P4GFCCuKurUO3SrpBW2nkPmzzVrSKteT4Z+9IfDZgDS7/J4IgqJ9WyvlbDcYYY/lcDgZZGR4fnQz3Fl9g6dkYmFqPxC7ffZjiUen1da/iamjjVgr+J4ORpgl8Jg3g7lEVb815KmKP3t/1R4dmNWBpKoaF9TBM/6o+JOqXIYtB4NkbirarStLlxeg/fA8KD96BG7FxuOe9HhN7esKj22isWdBH/S7GGGMse+RQkJXjyeHx+KzXUgQ+k0NcqRtW71uFrlUymiosoHixoor/1TGp4Q7PBu8z5ckEjdu2RlXtW2WIOB+IJ8qB2f98MWvwfDzqvBmH1vRGPQtzVHMbjiW7/odTXqswsOFrfcqMMcbYJ8uBICtH1FFFgO2zBtcSCILECkM2bMQgq3cFTUJ8fKJe760Y5V3bwv490zyZ2rvCwVLztQjSW5dx5dVzHJ/6DTbQMGxc9SUyjO2MMcZYNjN4kE25tQYDv1qDYEWAVY6t1h6+Fos+K5XJD5bi0aNo3axgUUm4tnPCe7czCzuiZRNTbUtY/t8NnNkwBWO3FcHoDT/D3VL9AmOMMWZghg2ySRcwf9A0nHqmCpniil/i55keyDTOyV/gdniUNsgKFs5o5/4Be8eKyqClYz3delrpTfz6wx/AoCWY4sgpGRljjOUcAwbZZFxcOApLLqu7foUicBo/C5+Xy+JHpl7B5Vtp6u5iAeYO7dDmg1qfJqjnaI+ymi5hkkFevg8WznQHb/POGGMsJxksyMpur8MPq67ilXpwVVypJyYMrfv2DOE3pAb74lyMeu2OYAq7tm1fXxv7Hgo1d4JdYd3UKVG1RrApadhGO2OMMfYmA0WeOBxdvAJ+LzXTlxSty/4j8FmWLdJUXPE6jAjNHu0m1mjTLoOlO1kp7gjHRrqJVbLwm7iZpj5gjDHGcohBgqz8wXas3v2vbos606boM8Au67zDyeewfW84tDHWqjXa1v6IqcDiMqhSsYj2y8lfBCNIlTqKMcYYyzEGCLIyhO/YBr9ETStW2SDtiK51sg6WcSe2wuuBJjSLUcGlDWw/eId2OWKPTsNPh/7TzVCW3sb5gBjdMWOMMZYDsj/Iyh7gyLGrSNXGWBPUcvdEnayasbIQrF+8G481MVZkCWcPB7x7S4CMyaMPYuK3vyG2iSPqSdTjspSKqwGB0E+wyBhjjBla9gfZhACcC07VJZMQisLa3vr11IlvUbQ+DyzA6gtJ2s8J5g7wcP3AJTfyR9g9bgy2p3XDyp0r0KOuJrLL8V+QP65q8isyxhhjOSDbg6w0PAR3tJvAKphUQ726maeSkMcex/Spu/BE04qFAImNK9ze2hEgMzJEbh2N8QfMMWT9WvSt2RitHMpqJ01JIwPhf0/7AxhjjDGDy/YgK4t9hhf6g5+CJUqWyOTHyKPgNWECAko3hjYboiI0Wjm7vJb+MOnmKXjfffeer7LwDRg56TSqTPodSzuWUXyxQmjh0hxFNCt5pDdx7tyb+8sm4caRg7gWx6O1jDHGsl+2B1lIJK/PIqYUvNJv2b7mPwQu7ItJd3phmqcICZpYJyqF5i11XcyyyB0YPnA+LsS9oyWaehMrR8zADafl2DHLEUXVTxdv1Qq22nHZV7jkdx7JqiMFOaIOjkHvGWcRJ87+YmCMMcayPbqY1KihaIHqEkEoW5CnTjzQLufRksfg7E/d0ePX4pixdQIkERG6JT+SRrBvpupilkcdxfjPf4ZswhZMtjPF05Bz8Lv6DxLTX1WQP8WpqQOx4NkA/P7bYOjvOyCq7Awn7YwrOZ75HsM59eynlJtrMOi7ILRf8SNcORUUY4wxA8j2ICuu2hae1hLdVnWUAN85/TBpf4Rqdq/0Be6e2YjRrrbwXPEKw7b/hkE1EhAVnajrypU/x4OIaEQHbcaw9iNxtfNGrOtXGf9u6Qkbm1ZwsauF6jY98P2S1fhpYBt8ub0sfty5CG3ezOpkYo3WzhW047Kyf3ZgxvTtOPznDHTv/COeD1mPn9w4wholeQqeR16H/9Fd2LhsNr4f9iXaOffA0mu5tN5Z+gTn/liMBasP4la8+rkCR4on5/7A4gWrcbDgFgL7JAWwDlG2k1GU12CqIRGUfcS6hyAiM8tyVLqImAQIJC7jQjNPRSnerfzIfVrmYvr6+xUPQVyO2iwIoBfp/24i/fWlheKzb7zHvDGNPR6j+ncykHhkGFUSv/4ZRVOZqvX6k+5J1W9iRiKNrq7oQXZ1q1Apc5O3/taiEj3przj1W3OUlEIWO1MRQfl7iKh8r50U/a4Kl49JQxaTcxHVeS0q34t2FsRCYJ+kINYhAwxGilCu22p4remHhsXFei1aOVLiohGbVhbNBy3G4Qsn8JNHOVVTWlQRDi1qQTN8qpxdbFbFAxN3+OLAFEf1rj1maN7WDWX0fmOhqDW+/uNvLGunnOiUMfO24zDOqZju9xCKou6XK+G1uT9qfEQyKWZIJqjTewF+2/YXdu/4P0x0L6eXUlNRJ5q5wSVXOh7ScDcsQp2HW45n16/iXgFMIJZ2NwwR6mTk8mfXcbUgFgL7JAWxDgnKSKv+72wnjb6GY4dO4NKdKMTLzVGyan04degCd6sMrpRJt+G1ag2O3DdDTXt3dO3ZAQ11043VEnH3xDbsPBOBxMJWcOs3AO1qmqtfezd5XDD2btqHKy8tYOXYBb071NNOjmLG6/nGDqg4/DhUc8olaD7vGgKm1dcLvDlFhtB5jrCZEaQItwKKdtqEe4eGoIz61YJCFjoPjjYzEJSmvFfthE33DmFIQSsE9kkKZB1Kb88yZnRS6MIPDchEUUWV1RQmdWliQIr6NQORPqOQM2co+Emy+gmdFN/RVFM57CCYkcuye/T6SIOUoi550Z87fSgiQf1UniWlZyFn6EzwE3qrFFJ8aXRNseLvIZCZy7K3hlukUZfI68+d5JP3C4F9Eq5D+jjIMuMkjaAlTqbacVlxxaF0+JX6NYN4Toe/sSJTASSYVqUuq6/Sa6d5wn4aUFakeM2RFt7WuzLIYslvrgdVSJ+DIKLSnTdRZB4eZnp++BuyMlV8F8GUqnZZTVdfLwTaP6AsiRSvOS68rXejIaNYv7nkUUGS/vcSle5Mm/JyIbBPwnXodQYYk2Xs08ljfeF7Tbd5v4WDG1pmnjjs06Rex4mT99NzblPqQxya0A2DfrsNbSbOwg5wtDGFSW1XuCuatCoJuLT0S3SfdRpP0pS/qRzP/b1xOc+m70zF9RMncV9VCHh4aAK6DfoNt3WFAAdHG5ia1Iare01tt33CpaX4svssnH6i+nvJn/vDO+8WAvskXIfexEGWGaXEM6dwPkl5uikIZmjq5oriqiPDMLVB5y71tRnCKO0B9o3qhMFbb6vGhEUlUb9uRRSp3xgN0pdeJ+PGr33RbboPnmnXnolQzM4RjSTqwzzHFDadu6C+rhDwYN8odBq8FbdVhYCS9euiYpH6aKwqBCTf+BV9u02Hj64QICpmB8e8WwifRh6HiztWYOnSpVi25gjCC1wmV65Db1G3aBkzIsn0v2+qkOIuVxllCRI7mnMjTf2aIb2ksCO/0JRBnahlvfJkLhZIkFQizzmn6LFUSiHzHMlq5CnFbxdHV9Z0p2oSxesmxahy41bUqe9ImrnmMIW8VP9TedjLsCP0y5RB1KllPSpvLiZBkFAlzzl06rGUpCHzyNFqJJ1KJoq7soa6V5MoXjehYpUbU6tOfWnkzDV0OD8UwseS3qFFLSXp9VZUoi/tM+gQh/HiOqRj0NnFjH2U1AuY0sQZi0JU0/tNao+D980VaPXBewt/mtSnIfA7dgB7du7EmWRXDLC6gN9T+2JE2mYsu1wJ3UaMxNd9OsC2/IduyJiHpD5FiN8xHNizEzvPJMN1gBUu/J6KviPSsHnZZVTqNgIjv+6DDrblP3hbynxJFoHFLg3wQ0AaFEEWex5vRw9DDnPkBQW9DqWHWsaMiDRsPjlok5mIqPygvylR/VruSKNHR8eTXVFFy1VcgdrP96VHBp7obIzSHh2l8XZFFa0OMVVoP598C2IhZIVbspkqiHWIx2SZkZEj2tsH16TqDhbBAo6tnZD1amgDSYqE97rvMWjSaRRrXB1lmtgibf9szFzhhRuxBWXALQmR3uvw/aBJOF2sMaqXaQLbtP2YPXMFvG7Evp2XnLG3FNw6xEGWGZmX8D0dBM3GTYJZU7i7qXJ+aaQ8OI11M7/DwO4eaNG4IWyat8YX3y7E3htxuvzXHys1FqFn92HT4qkY3sMJVpXqoucfhEG7/LFnUAMUbTIGf59YghYhM+FUpTJsPPviu5nL8Nv+Mwh5aojZkIn45+JBrP9pDPp1bAW7Ro3h8Plc+MS+65um4P7hRRj5ZWvY2zRDx7E7EPbuHSLfIRWxoWexb9NiTB3eA05WlVC35x+gQbvgv2cQGhRtgjF/n8CSFiGY6VQFlW080fe7mVj2236cCXmqm5GdTeTJTxFx8QR2b1yCWWMH4/O2LdHE9jMsDMr8i8lj/bCkbyvY2rZE17GbcbnAb2kpw/Pr+7Fy2rcY0K01mjduBLtWn2HQ7O24rKxPsoc4PG8kBn7RCa0d7dB6lt8n/C2Nqw7lznmkpm7RMmYcEg/T0IrKxeqqSU8S+5/opmYxXUIo7ZvZlepYiN7Ka6x8CKZVqOOSQHr+UcvrpBS5dzS1rGCm+7cFCVXuupauqdf5Ra9rS6W/2KFaPyt7TH+PbESF0/MZq3++WSVyn+VNsdmwvO/l9d308zddyL6KBUnEb35fE6o12ofe6olMiaDdo1tQabGmq13xECyoy28x6jdkTRq5l0a3rEBm2u8lkKRyV1qrKwRqW/oL2qEqBHr890hqVFj/55lRJfdZ5J0NhZASuJA62tak0oUz+nuLyLLzJvr3nT8mjW7MsSOJ9nuIqHSXzYZfw2yU3cUyigncQOM61iNLE4EKVXahobN/oS27vWjXhp9oULPSVLT+KDoUup4+M1f/LZX1Zssz9ec/jDHVodw6j/TxxCdDkr/ApX07cT7awHfQgjnqd/wKHtVzPuFgdkv1/x7W7isQnj7nyQR1JpzBjaUtYRLjjR+/6IX5Aa9Qrp4tmjSqBtOYEFy8eB2PE+XpZ4KSIK6EL/8IxM5+VT6smyY1ABOtXbFM9YMVRCjlvgDHD02GfRHlcSrOTbBGG78BuBw4Aw2URZ0ajs29W2PEgUfQ9m4X+wI7Hu1B70/M25l46S9sCSuOFk6OsKkqxu2NA9HhuwN4pO5XE1ccir/vbMJnmn50+T/Y+3Ub9N9yD3ITOaRp6jIRLNB58138Pfh9ctelImCiNVyXhUNbCqXcseD4IUxWFQJSz02AdRs/DLgciBmqQkD45t5oPULxu+kKAV/seIQ9n1oICbGIESxRtrAUsbe98fuP4zBrTzh0K7scMO+qP6bWz6jeyxC6wAlNpl9Aiub9hdri18hjGFHOgB14xjbxSRYFn0VfY8hPRxCZVhzNx2zC9nmfw0p//CX5GuZ5uGF3IRtEnzmDaEUdE8wU50KYN8ZX/9CyMq46lDvn0RvSQy0zDOkt+rmZ6q7WoA9RORp8KD/MsFC3PjTfS1yJhh5RfK+4AJrjVJIsG/Skhacekv5UicSwrdSvlipLjKo8BDKpPZZ8P7Q4pCG00LGQ+t8RUTG7iXQyRu9OWhpK85orfk6x7rRVtS2UystAWuhRjkzUd+3iaqPo9NtZGT9dWhBNa6RXl0wa0A/nNSWRSJcWuFAJCxsasTOUXiZGks/6idTT04O6jfmDbr53WUgpZKEjFVJ/F1ExO5p4Un+HKymFzmuuaB0Wo+6vFwIFLvSgcopWUvrvJq5GowxRCCm3aHlrS+VEEnU5SMh6+iVFrXmH+Ev0Sw8rXW+DaRta+8TATVljasm+vEDLOlZRZTEzqUQdVwYp/lIZkVH0+nav9cpImsyi4I9aNWfkdShHzqPXcZA1JA6yH0YWSSvddd21IssvaUdsJG3rWYVKO8+hc+/Y5u75/gFUUX87QxMrGnf2w2ctJoZ50cLxI+m7Wb/TxTe6qqSh88lBmSpOVJ6+OhCvflbt1V06snQsDRk6kdb5v3vbxU+TQr5jaulyOQum5LoiMv1nxflMIGuLWjRw90PFJewTJYaR18LxNPK7WfT7xdjXv4viRmO+gzLVpYjKf3WAXi+FV3T3yFIaO2QoTVznT/r3J9nplf8Eqqe3jaZJvYmUaUpr2XM6v7ANlREpboAqD6fjhrgB0mcsQVZxg7GsbTkSK4OdYE62k3zUW4ZmLHFPH7LUBlkx1Rzt83be4fdl1HUoh84jPdxdbFBxuH74b1zRy2RiEEJh1G79BZyq5PHu4tg/0K3mYBx8qaySAszbrsIhTy98tdMWvx1fCk/9fQ71JXphQPUvsE1TzkIhdNz0GIeHlFAdfzIZwhe5wHpqAFJJjIpDDiB8cyeoOr9yTuL+/qj+5XZ1hikRSvffi8hVhTHJsSf8Oh6E33J39baQhiELXwQX66kISFU0NCoOwYHwzeiU04UgC8PCVraYFpiSfpVUtETwg/9VLGyRySLq5EMYUr079rfcgnv7B6Ck+mmDMIbu4pSb+PXzdhh79DGkinZ/iTYrcO7IGNTPpIhebO6ICsOOqrOblcWAvfewtXv2/3GNoQ7l+HmUHmoZMwIJXgOorKLFoayWyklH9oOHk0N5B/r5Shb31GmXaLq1fo+BKXn+GpWNLco42tqtiLaFbVJ7HH1EQ/mTyR6vJc9CulacxGYsLf+6Dlk0mUYB6jklhhS3tZt643rFw6T2R/UWfDop3Vvhpte1KSHbWcHv7jJWit1CnYsWp06bnmRjnXiHXG/JviDv7xtry0co4kBzr2X1d0qji1MbaYdpBIvO9JFzfLJkDHUop88jbskyQB6FY0vm4u9IA69WE1dCh8lT0aVqRi3uFPiMrg/PNfdVa+ZERVDSshBqjz2BM7PsMs8Ek3oOE6zdsFwzaUkojp5/Pcauntm1ujYeu3tXQ59dLyBXtLALOczDZf+pqslPOUkajNnNmuOn4LT0Q0EsgYm4BkYcvYTVHobfzT5+d29U67MLLxQtAKGQA+Zd9sfUHC8ERWvo7lK4NZwM//QZTQIkzX/GtYDpyHD+k0LCwUGoOywBi8P2ol8p9ZPvTYYHB+ZjyYnHqnqZFUrAjb934twTmaKM6qLDAHdkWN0zILEegMWjWuLjG75yPD82Cg5dN+COcsMKQYJ6Y0/i0grXLHpdnmJTx+oYfjRJEXUEmLZaijCf71HDAH9ao6hDOXwefVKQvX79Om7evKk+yr8EQUCbNm1Qpkw+3V1YFoK5jraYqdxJ2ZAkNphx4RJ+bqJKDP4a6VXMtGuBudc1v4Pi4tlwInwvLc569524behRbSC80ruZFSRNMfvSBfzYOIOf85FSQ7di9KilCJTbY9Ty1Rhhlxvb/ifj+NdW6LTpkfqCL0aVr/bg8m/d8a6e9GyVGoqto0dhaaAc9qOWY/UIO+RGKUAWinktbTDzomrHFsHMGYtv+WJirYwu1i+wp28DTC66BTc3tP+ILn4pLk61hdPCW9rZsoZi1nEzog4P+fiuygRvjLVrj1/CVeUiKv05/ri5G/2zmk0dvxd9a/bCzvT+Uwmspwfgylx7ZN/Zo8co6lAOn0fKIPsxkpOTqUiRIsq/ZYF4NG/eXP3N86GcmqAlsaEZVzLu2JNGLCFn5cQizXtFJajz5n/fq3sv+dQoqqY38Ulc5Rv6Xz6YB5aR2C1dqKheV6nzkrvZOkkjb0ijoGm67k0IRajDhoyHB2T315BnKTua/XFTZRXS6MKUhrqJMgZ8KIJsppOTMpdGNxc4krm2bphQnfF+b68BzUD834N1EwfFlWm4wWeH5b6cPI8+qSU7b948+Pv7q4/yt4EDB6JPnz7qo/wmBTER4YjSLEA0FKEQytWug3JvtUzliN7YCbW+OYbE9F9B0YqtOx7ewcvgnGXfWQrOjmsEj1UR6paGGJWGHsTtTR1zfGJSTpDdXghn66k4n97gF6HsV1548HuXT+hizJtSfL5Dfc+1uK8aW0CZAXtxf2v3N/7mKQj8wR497kzC1b0DUf4jWynJUeG4E5OcfkXOkvxfbB3SDcuupkEo3gkrT82D23tubCEqVgUNqpdQfJuP8N9hDG3UDb/9q2qbCabN8fOVAExvmFVX7Avs7lMXff56mp4tTbD8Atvv70EfQ86gMwI5eh6lh1rGctVL2tW7pG79o2BO7ivvvd+dZcJx+qaaLkMUTOrQ9/75+E48dhv1sBRpv6/EZga9o3Mgf0vwooFldeVg0uAHuvDGHBrZoy3Utbw1/RCYg/UhVyY+yejJpk5UXNsyE6iQ63K69x4nkOzBOmpfXNODJJCZ+yp6YPDZYUYgB88jnvhkSLL72PL1AKxXb9lmMKKS6Lj4AGY65/BecNkl+QS+qd0RG9R34SJLxR357X34qmxW9/SKFvDWL9BgsBeep0/HF1Dc8xdcOfYtaubwXIocIY/F0VEt0W1DOJTzWpSEQm3wy90T+LaiIQaTjJg8Bps618Two4npV0mhUDusizyKb7Tjj4k4O74Zej+cist7BqBCThVPbizhkf+DX9vXx3cnVWWh7DFyXRaC0+NrIPPTIAXnf7CDy5Jb6vokgc3MC7j0UxPDjMcai5w+j9JDLTMMTkbxXlLOT6b6JprvI6ISX2ynWPVrmUq5SDNslQvbVZ8VTBvRZP/c3RTPcGQUtX8QVZeUouYt6+ly8opKUd+9byTHKBCkdOvnZnrZwarTt966Fqv09gpyL9OM5gTn8BKR3GjJxv5B3bStUcVDYkdzbmTdLJNGbqCOJXWtOWWGta+P5ffx2Jw/jwrY7W9OE8G0cBEUKWLohzlMxYpQkyfJcO+0LyI0jX2hGNy6tn+PhAEyRP4xB+uup6afJcrlCnWGr8A0p1zbFM+g5I92Y9yY7UjrthI7V/RAXU1TQ/4fgvyvwhD7/xg3MWo5NUdlTVNN/gRhIbHp44qQR2Pv7KWI7DILo23yaO/OB0i5eh5XEtLPgnTi8vZwrJ1FW1T+HEfmzMX/XoqguXIIRZrBuUX+3no/V84jdbBlLHfI/qW1bQrrWqOFPenXR1kPCsme7KK+lTRjsQKZ200j//zaoJPepy3dy1OhOt/QYWWuuVfHaJj2u4MkLeZTaMGbYkz0Yit1t9C04MRUdeTJ9FSACb5jqV7Zz2j9/VwolBxvycroydo2ejvegEzdVmQxriqjmEPDqE619tSthS7JiqTlIorIz/Uol84jbsmy3PWfL05f0s3cNKnnCKesxmKld/HbN2OxK30rDQEmlbpi1fbZcMqVRZuGJkP4hpGYdLoKJv2+FB2VC/kKtYBL8yLaFoj05jmce3NfzKQbOHLwGvL1FqoWzWBfX9sUQVRYKJ4lX8OKH7aj+Oj5GJQPdqXKmhyxsS8g15xACkLR4iieySkkf7QX478/B7dlfWH54JX63DNBtWaO0GVmTcHdc/6497F7qBqd3DuPOMiyXJV07jQCNUkkFNWxeKMmqJNpT1ciLszrj+8PRSlOGwGSSu2xyGsrhtXNn92CqTdXYsSMG3BavgOzHDV3EcXRqpUtJOqrA726BL/zyaoDJXkUDo7pjRln4yDOz2e4uAaaNSmvntxDkN25jmP/Nxmr4/piwTgb5P+OYiVlJdCECRV5zGM8Vs0hfFtiEBb0nYh7/bZgYeVbuKjN910ENi0aq8ssFbe3DETX7w/h4av0J/K8XD2P1C1axnJBCp0dV1tvob+Emsy6lkke2hS6u2MA1U5PWiFQ4boDaWtYPpmokRZDt/zP0pWHuuSpspiT9H2TUmQ99uRbG8GnXZxKjSSachNTtRH/I9WUr2S6saodVW78PflkvK9ZPvLGFm0iSypRojL13Z2deas/UC5MfIrd0lkvsQJIKORA82+9fRbJngfQwraVqcaXf9A9qYwernLXdTNLmtHcEGVfaTKFbelFtat3o4238+DaMCM8jzjIstyjnH1trz/72pRclt/P+AIpiyH/xR2pinKbM6Ew1ew4h04+zrVLafaSRtJv3Suk70krSEpT4+7jafGqOdSvsSWVa/cL3czoPuLVSRpRVTeeJCrWnMZtO0Rbp3eg6iWa0azAHNgxwAi8OTO9fI+t9DA3q0UuBFlpxHJyM9ebXazcD9lmGP0RHJt+wyqNu0On1o+nNlXNqUzrRRSUPnchmU6OqEJizWckDjT7/C06PrcDVSnlQLP83rGvpDEz0vOIgyzLPbJYOjXZjoqLdJNXKvXdTVH6F0nZS7pzcg2NcKpAEkEgSUUXxUlw/R2bT+dRiX/Rl9oJPJqHQOaNx9Lxd26qmUhHhlXSXSTVD0FSjXr9+Z6JPPKDl9u0k59EZbrQptyY7KQvN5bwyJ7RoWE1dctRNA9BTIWLF6dCYuWNqYSqdF5JQdoT5xV5DSittwG+6iGyaErjjuTAbkWGYKTnEQdZlste0d3jy2lk+4ZUWtkNLBSiik3b0Rd9+1CPDq7UpIoFiRXPVbDrQd+vPkwhL/Lk6Z856T3a2Lms3gVPoKLWw2lPZOaneNrNJeRSTHdREYrWpZ5rr1DBaMOqpZyhMbVMCKKS1P7XiNy/uciNIKsUf5XW9qpLFtobVl1dkpSyod6Lfejxa72/Ugpd7KzLdSyIqHiDL2mp37O8GWCVjPQ84oxPzGikPr+Ni34XcfPeQzx68h9Qogpq1qqF2o3s0bxB2fw9kSXxLk5s24kzEYkobOWGfgPaoWaWS37liAvei037ruClhRUcu/RGh3r5cor1uz39A91qD8V5tw0I3DfEINuz5R2peBJ0GAdPXcHdp68gKloG1a2d0K69E2paZDBzJ/URzu7YAd9/BJSr54TPujiiSl5fJmuE5xEHWcZYHpWECzNawePPetgc+Cd6FbTUkixP4CDLGMuD5Hh+ajxcehyH0w5/rOtUhtcjMqPEQZYxlufI//kL/Vt9i4dDj+HEzOb5cltDlj9wkGWM5S0pN7GyowdWlloG3x39USASO7E8K48FWSniH0cgLCwUt27cwI3rwQi+UxnfHVqN7sXVb2GM5V/yWJya4IGvgrph95Ef4cTnPTNyxj+MIX+K/WNd0bR+dZQrZg7LyvXR3KMHBo+bjeW/ecEvvgRqcl8RY/lIAoLW9Idj3Tpo0ul7bLvxn+ppxbXgzJweGHrWHZv3zeIAy/KEPNCSleFFZCjuPXmKR6HHsXLaMvhEaxJzilFt1AncXuuB/L1BE2MFhzxyFdo0GA+fV6pLk1C4Olx7uKFE+EkEyHtgvdcKdNVlsmfMqOWBCXlilKjeCHaO7ugyZAr6NtXLHi8qDgfX5hxgGctHKCUZyXoJ7ulVJHx3bEdQ2XE4cGolB1iWp+StWe/Sf/BvtG7PIcHMDq6tuK+YsfxEXHc45k91RQVTQXGSCzAr74Cha8/g8sGJcLDkhTosb8lTE5/kT/4PHWqNwv/U3UgS+58RfH4GGvCNLWP5TlJ0GMJjzFGrYVVklLCIsbwgT1Xd+LM+CErR3BOYoLqzK6zeO8DKIZXm5x2sGctfzMvVg601B1iWt+Wh6puMwNMBeKmJk6KScHRr+p75bBMRtKA1qrb9BQ85zjLGGMsheSfIpl6Dj38UNPMhhCIt4NbyfcZjZXjw1wj0mX0OFk3sUZ7vihljjOWQPBNyZPe9cTZCG2IhsXGBa0n14TtJcX/PCHQath13ZWXh3LpJ/t7JhTHGmFHJI0FWjhgfX1yX6sZj67q6oWqm47GJuLGhD9r034ybiQShmCNat8xyzyPGGGMs2+SRIBuPM95BSNbEWHEFOLlZK0LtOyTcxNZvXOEych/upSo/JKCQfWu4cYYYxhhjOch4gmxqFC5sX4TJ3/RBJ9emaFDfFi69Z2JfWBKQHAjvgJeK9qyKyNIJHi0ySEGR9BD+v09DN/uWGLzhMuLk2qiMKtWKINzvDM6cUTzOnkPoU54BxRhjzLByf51s6kN4r5uPeau2w/ehCep49kTvjo6wsojHrYPrsP52e+xaK8EYz8UIlSo/IKBox424+/dQlNXeIsjx9NgP6PTVKgQ9TUOWX8jECmNP38JKFx6hZYwxZji5GmRT7h3AzMEjsNIvBqIaXfDjhrX43qOSbnKS7B5+6dAWXrCA/6lgpKX3/Jqi1ZJQ+EyoqWifaiiC7MW98LryXNXald3Fnh+Xw/uZqrUqrvQZpkzrjMqaoCwuD8ee3WDD3ceMMcYMKJeCrAyPj07FF18tx3lFIDRvPBLbD6/OICepDKHzW8Jm+kWkqZ+BxBazLgZhju07R2Qhi1gMlwZTEJAelUUo3W837m/7HEVVLzPGGGM5IhfGZOV4cng8Puu1FIGKACuu1A2r9616R9JvAcWLFVX8r45JDXd4Nnh3gFX++7G+Z3BNMxNZMEcL91bgecWMMcZyWg4HWTmijioCbJ81uJZAECRWGLJhIwZZvStoEuLjE/XGWMUo79oW9pkOpSbBz/ci1OmNFT/DBq5upfLKNGrGGGP5SI7GnpRbazDwqzUIVgRYRfRD7eFrseizzAKgFI8eRavGWZVEJeHazgmF1IcZSgmCb8AL7WdM6rjCvdp7JzhmjDHGsk3OBdmkC5g/aBpOaSYjVfwSP8/0gGX60TvIX+B2eJQ2YAoWzmjnbqE+ypg0zBf+/+o2da/g7A7rzHqXGWOMMQPJoSCbjIsLR2HJZXXXr1AETuNn4fNyWfz41Cu4fEuzJEeAuUM7tMk8KuOR71n1Uh8FUXG0dG/Bm7ozxhjLFTkSZGW31+GHVVe146TiSj0xYWhdvSU4GUsN9sW5GHWrVDCFXdu2emtjMxKHM75XkJ7kSUEo1BxuLrypO2OMsdyRA0E2DkcXr4DfS3Xkgwnq9R+BzzJtkSql4orXYURoWqUm1mjTrmrmgTkpAL7nE7QtX5PGrnArk0ONdcYYY+wNBo9A8gfbsXr3v7ot6kybos8Au3fnHdZIPofte8OhjbFWrdG2duZt39SrPjinHvNVjsfWdnVHDZ7zxBhjLJcYOMjKEL5jG/wSNa1YZYO0I7rWyTryxZ3YCq8HehOYXNrANtOlOzLc9fXDfU1UFpeDk5sNb23HGGMs1xg2yMoe4Mixq9oxUmVXcS13T9TJqhkrC8H6xbvxWBNjRZZw9nDIfAKTPBq+Z25qW74iC0e4O2S62IcxxhgzKMMG2YQAnAtO1SWTEIrC2t46i9alHLEHFmD1hSTt5wRzB3i4ZjGBKd4PvpdStOOxZs3c4Vos/YAxxhjLFQYNstLwENzRbgKrYFIN9epm3rqUxx7H9Km78ETTilUETImNK9xKZf6rplz0QeBLbQoKNHJ1R1YrhBhjjDFDMmgYksU+wwtN3FMSLFGyRCY/Uh4FrwkTEFC6MSy1bxPDytkF+qmNk26egvfdFPWRUiqunjyrC8wmNeHiXks7E1n+cDemzT6EGP3fhTHGGDMww7b1JJLXZxFTCl7pt2xf8x8CF/bFpDu9MM1ThARNQBSVQvOWui5mWeQODB84HxfitE1dxZMROO0boRuPLesEd80sqaSrWDJkKV60aInS3LJljDGWgwwadkxq1FC0QPX20JHexKkTD7TLebTkMTj7U3f0+LU4ZmydAElEhG7Jj6QR7JupupjlUUcx/vOfIZuwBZPtdPvqyKN9ceamJsQKsGjhjpbKl+WPsX/MIOxtshgLMs2RzBhjjGU/g8YdcdW28LSWKMKeGiXAd04/TNofgSTlsfQF7p7ZiNGutvBc8QrDtv+GQTUSEBWdqNsUQP4cDyKiER20GcPaj8TVzhuxrl+115JSvArwx+UU7TQpFDYvDEoKx65RnTHpnyHYPNct8xzJjDHGmAEYeNN2OaIPDINjz99xP30DdTVBBLPiZWCR9gyxiXKIyrTCtJ278aNHOYjkkVjuXhcTzqaq36wiiMvBY64X9kxxfCNgyhAy1wG2My/pNnYXJChkChSym4pDR+bAmSMsY4yxXGDgHlQRynVbDa81/dCwuFivRStHSlw0YtPKovmgxTh84QR+UgZY5WuiinBoUQsS7ZsFmFXxwMQdvjjwVoBVEqNqSyfUMtN1SwuCOWp1W4hDB2ZzgGWMMZZrDNyS1ZFGX8OxQydw6U4U4uXmKFm1Ppw6dIG7VQZb1yXdhteqNThy3ww17d3RtWcHNNRNN86AFNEXdmHr4Rt4WbQ6Gjl3QFenapnvO8sYY4wZWI4FWcYYY6yg4Qm3jDHGmIFwkGWMMcYMhIMsY4wxZiAcZBljjDED4SDLGGOMGQgHWcYYY8xAOMgyxhhjBsJBljHGGDMQDrKMMcaYgXCQZYwxxgyEgyxjjDFmIBxkGWOMMQPhIMsYY4wZCAdZxhhjzEA4yDLGGGMGwkGWMcYYMxAOsowxxpiBcJBljDHGDISDLGOMMWYgHGQZY4wxA+EgyxhjjBkIB1nGGGPMQDjIMsYYYwbCQZYxxhgzEA6yjDHGmIFwkGWMMcYMhIMsY4wxZiACKaj/20hJEf84AmFhobh14wZuXA9G8J3K+O7QanQvrn4LY4wxZoSMM8jKn2L/+C8w938P8OjRYzxLSINc77eU2M5CUNAc2Jion2CMMcaMkJG2ZGV4ERmKe0+e4lHocayctgw+0TL1a2JUG3UCt9d6wEz9DGOMMWaM8kB38Qts+qwCvj6WojoUlUSvnZH4q6eF6pgxxhgzUsY/8Un6D/6NlqsPFHcFZnZwbVVEfcQYY4wZL6MPsvKnAQgMlaqPAJOGLnAty5OiGWOMGT+jj1bxZ30QlKLp0TZBdWdXWInVh4wxxpgRM/Igm4zA0wF4qektFpWEo1tTmKoPGWOMMWNm3EE29Rp8/KOgmVcsFGkBt5Y8HssYYyxvMOogK7vvjbMR2hALiY0LXEuqDxljjDEjZ8RBVo4YH19cl+rGY+u6uqEqj8cyxhjLI4w4yMbjjHcQkjUxVlwBTm7WilDLGGOM5Q25G2RTo3Bh+yJM/qYPOrk2RYP6tnDpPRP7wpKA5EB4B7xUtGdVRJZO8Gihn+NJjuSnEbh4Yjc2LpmFsYM/R9uWTWD72UIEqfNWZEyOWL8l6NvKFrYtu2Ls5suI0y3DZYwxxrJN7mR8Sn0I73XzMW/Vdvg+NEEdz57o3dERVhbxuHVwHdbfbo9dayUY47kYqiWyAop23Ii7fw9FWVEqzi/qgZEbLuB2ZCxe6Sc1VhJZovOGmzgwtFLGdxDSm/jJoSl+vJyG9E+KSqPLxks4OKRa+suMMcZYtlEG2ZyUfNeLJrmUI4kgkFnNrrTg1L+Uon4tnfQurfasRe6etor3pMdBgmBKrZbeJan6LfHPoilBcSBLfkYhR5dSzzrmJCjfl/5Q/LsO8ylE8+Y3SUNofguz195fqO069YuMMcZY9snB7mIZHh+dDPcWX2Dp2RiYWo/ELt99mOJR6fV1r+JqaONWCv4ng5GmDINKJg3g7lEVmjlPRUuVRRHFgcisFOp3mIA/vebC3VLzVQgpl3die7AuS9RrxPUxeu1SdLcqrGgfKxHkcu4vZowxlv1yKMjK8eTweHzWaykCn8khrtQNq/etQtcqGU0VFlC8WFF1AFQxqeEOzwbvnvJk2mAkfhpaB4qWr0paKPb9FYRU9eGbitp9hz0XfbCgTRlFAYhRtmYt9SuMMcZY9smBICtH1FFFgO2zBtcSCILECkM2bMQgq3cFTUJ8fGJ6X66KGOVd28I+0zRPheAw7CvFezRRVoqIowdx9V1RVkFUogXGjumEMuKiaObcTP0sY4wxln0MHmRTbq3BwK/WIFgRYBURFrWHr8Wiz0pl8oOlePQoWjurWJlK0bWdkyKMZk5cuxd6OhbStoCld07gqN7GAhlJin2GxKKt0NHTUv0MY4wxln0MG2STLmD+oGk49UwVMsUVv8TPMz2QaUiTv8Dt8ChtkBUsnNHO/T32jhVXReeOdtA1Zm/h+OE72pSMb0uAn+9lFGrTG93K51CvOWOMsQLFgNElGRcXjsKSy+quX6EInMbPwuflsviRqVdw+ZZ6eY2iXWru0A5t3quhKUb1ju1hY6KOsiTFteNHEPmuKPviGHadMEX3Yd1QSv0UY4wxlp0MFmRlt9fhh1VX8Uo9uCqu1BMThtbVzhB+l9RgX5yLUUdGwRR2bdvifbePFddWBOS6mrFeQupVb3irW9GvkyNyx0b8r9JX+LYNbzjAGGPMMAwUZONwdPEK+L3UTF8yQb3+I/BZli3SVFzxOowIzVCqiTXatNMt3cmS8v2ulbXvp1eX4BfwSn2kJ+UC1v3fDbiMGQFrztPIGGPMQAwSZOUPtmP17n91W9SZNkWfAXZZ5x1OPofte8OhjbFWrdG29nuHWAUzNG/TCqU030r+Apcv3HpjKY8cj3cuwlbhK0zuVd7Ag9KMMcYKMgPEGBnCd2yDX6KmFatsYHZE1zpZB8u4E1vh9UATmsWo4NIGth+4Q3vhlq1gX1gz+0mGe8FX8UK/xzjRH0sWX0TLSWPRXD8VMmOMMZbNsj/Iyh7gyLGrSNXGWBPUcvdEnayasbIQrF+8G481MVZkCWcPB0Xb9MOISrWEozZxBSHt9g2EpKkPlTcAG3/E9qIjMKtXBW7FMsYYM6jsjzMJATgXnKpLJiEUhbW99eupE98iR+yBBVh9IUn7OcHcAR6uHzEpSVwLTs1147LyJ2EIiVU1ZeXRezF7aSS6zBoNmw9sITPGGGMfKtuDrDQ8BHe0m8AqmFRDvbqZp5KQxx7H9Km78ES73EaAxMYVbtrB1Q9hhiYtbGGuXclzB7fSm7KJ8FvwI7xtpmBGhxKqFxljjDEDyvYgK4t99voYqGCJkiUy+THyKHhNmICA0o2hzfGvaIdaObtAP7Vx0s1T8L6b6UaxWhbN7FFf02Os+PfDQp8h+doK/LC9OEbPH4TqHzKXijHGGPtI2R5kIZG8PouYUvBKv2X7mv8QuLAvJt3phWmeIiRogrOoFJq31HUxyyJ3YPjA+bgQp23qZkpcoxmalFdHUpLhzvVj+L/JqxHXdwHGcT8xY4yxHJLtQdakRg1FC1Qzu1dBehOnTjx4O72hPAZnf+qOHr8Wx4ytEyCJiNAt+ZE0gn0zVRezPOooxn/+M2QTtmCynXn6c1mS2KBpA1N1HmMZHu+djJ9CPPHzNFcUTX+OMcYYM7xsD7Liqm3haS3RbVVHCfCd0w+T9kcgSXksfYG7ZzZitKstPFe8wrDtv2FQjQRERSfqNgWQP8eDiGhEB23GsPYjcbXzRqzrV+39k1KILGFjU103+emlGdznL8w6pSNjjDGWjQTlzu3q/84mckQfGAbHnr/jvnbXdQVBBLPiZWCR9gyxiXKIyrTCtJ278aNHOYjkkVjuXhcTzr6eNkIQl4PHXC/smeKY+aYCGYjf3gOVBnghnkQo02UDLu4fymOxeZoUT85tx59n/0PdLoPRteF7bBqRD0mfnMP2P8/iv7pdMLhrQxTMUsjPpIh/HIGwsFDcunEDN64HI/hOZXx3aDW6F1e/JRtxfcoByiCb/eIpeH1/alhcTIoWrTLSah+CaQVqMWgJHbv3Sv1epRQ6N6k+SQTN+wQyq+JBk3aFUoL6HR8q5cwYqmUCEpVsT79GSNXPsrxKGrKYnIsI6fVDVL4X7YyWqV8pQKQhtNi5iOqcEpWnXjujqQCWQv4ji6F9Y1yoSb1qVNZCQiLtdVD1kNjOouA09XuzE9enHGGAlqyONPoajh06gUt3ohAvN0fJqvXh1KEL3K0yuF9Kug2vVWtw5L4Zatq7o2vPDmiom278wZ7+0Q21h56H24ZA7BtS4/27mplRSj48FDW6/oYo5ZiCSX1M9gvGIocCNokt+TCG1uiK31SFgPqT/RC8yCGLNejM+MnwIjIU9548xaPQ41g5bRl8ojUzVMSoNuoEbq/1+ODEPFni+pQz0kNtfpN4nqY3LUJV+/5Fj/jWLF+QhsylZhLVnb1QtBNtjlG/UJAoWh5zm0lULRyhKHUqkIWQ3z2njR3MtK1YiEpSr10v1a9lM65POSL/zQSSP8epqUOxOqEf1q78EhV5rlMeIkNs6FmcvRaFN1dEi2s5wyF94bQA06bucC+pel5DFn0ZB7b9Bd+7iepn8i5ZbCjOnr2GqLcLAc4OVdJ7ZZSbbri/XQi4fGAb/vK9i7xfCgWU9B/8G62dAgrBzA6urT5tO06uT7lMHWzzCRk93NmHqpV0op8ufOxoLsstzw9/Q1amguKu2pSqdllNV1/7EybQ/gFlSaR4zXHhbdKNssso1m8ueVSQpI8tiUp3pk2Rebj74vlh+sbKVPFdBDKt2oVWv14IlLB/AJUVKV5zXEi39aYayGL9aK5HBdW8BlFp6rwpksfX8iDZ43XUtrBq7oHyIbH/mW59ypQSrk+5Ll8F2eQbK8ijbDXq+ed9vYswyxtSyHd0TVLcVau7ryRU7YvNFJaifllxij/+1ZMKSRrSlAu6WSDxQYuodWmR9qIEUQnqu09/Ul3ekuI7mmqK1d9FcWGUVPuCNusKQXER/pU8C0mo4ZQLpC2F+CBa1Lq0sltK/TkRlei7j/JuKRRccX/1pBIizd/RhGqPO6s4Mz4e16fcl286U+WxpzCl/xIkj9yODf11a2RZXmEKm85dUL+IeoU1peHBvlHoNHgrbqd3c4lQsn5dVCxSH43Vuywl3/gVfbtNh88zXfeaqJgdHBtJ1Ed5j6lNZ3SpX0S9zpyQ9mAfRnUajK2qQoCoZH3UrVgE9Rs3UGVWS76BX/t2w3SfZ7p15qJisHNshLxbCgVVMgJPB+Cl5g8pKglHt6afNBGJ65MRUAfbvCH+Iv3Sz4Hq1LaljuP/pOtxqqdlMb40y6UqNR13jKK4TyNPexl2hH6ZMog6taxH5c3FJChatJU859Cpx1KShswjR6uRdCpZccd/ZQ11ryZRvG5CxSo3plad+tLImWvocIiBJonkpJdhdOSXKTSoU0uqV96cxIKiBVLJk+acekxSaQjNc7SikapCoDXdq5FE8bpJscrUuFUn6jtyJq05HEL5oBQKnpTzNLm+ibr1CBIsOtNv2TEXietTrjLoEp7sJUfkqjZoMN4Hr9J/YwGFq7uih1sJhJ8MgLzHenit6PrapgIsj0t9ihC/YziwZyd2nkmG6wArXPg9FX1HpGHzssuo1G0ERn7dBx1sy2f/8gajkYqnIX44dmAPdu48g2TXAbC68DtS+45A2uZluFypG0aM/Bp9OtiifP4thAJBdnsBnK2n43x6Eh8Bps6LEeo7ETWz9ZrG9SnHpYfaPEFKYQsdyfSNhdqCpDJ1XBJIL7gFm6+lPTpK4+2KKlquYqrQfj75PvqUkao8Ku0RHR1vR0UVLQ1xhfY03/fRJ43XMWMio8fr2pK59vomIevpQbpxUkPg+pQj8tCYrBh1h8/HVNcKUARaCIIZyjsMxdozl3FwooPeNnksf0lCpPc6fD9oEk4Xa4zqZZrANm0/Zs9cAa8bsW9vPJFPJUV6Y933gzDpdDE0rl4GTWzTsH/2TKzwuoHYglII+Vo8zngHQbthmbgCnNysX9/RLBtxfco5eai7WCMJ0WHhiDGvhYZVLQywVx/LStLDczj41wH4XL+Lf/79F/9Gx0NUvDLqNvPAl8OG43Obkp/wd0lFbOh5+J47j0sXz+Ostw8uxdXF8NWbMb9dAPo0D8J3Nxai1LbxGDxxD2JrOMG9lQPsmjaBvUMrODYok80ZaxLxz8VTOHr8NM5euIqwB/9BUrcnFmyYBvdSGX3LFNw/vBKL/ziBoPB4lHMbj2WL+6LeB3a9pcaG4rzvOZy/dBHnz3rD51Kc4iZzNTbPb4eAPs0R9N0NLCy1DeMHT8Se2Bpwcm8FB7umaGLvgFaODVAmGwtBnvwU965fwZVr13HzZghuhd7GvRhL9NrohSnN3v3F5LF+WDZ6GraHyFDNdShmzRkMu4J8N5wahQt7/sC+s8EICVOWoRylbTpj7I9T8Xn1sxhu1QkbH6kinKhUH+y6vwNfZFMyYWOqT4oKhaf3ruPKlWu4fvMmQm6F4va9GFj22givKc3ePfQjj4XfstGYtj0EsmquGDprDgbbWRp/DEhvzzKWpWR6cHIJDXGzIkuJKZWz7UIjflpHOw+eJF/fo/TnnC5UXSKQYFqJ2i04Ry/Un/oQ0si9NLplBTLTdpkJJKncldZeU6/ti15HbUt/QTvSD2X0+O+R1EhvTSEEM6rkPou8Yz997ODl9d308zddyL6KBUnEIlV+V+3DhGqN9nl7SUNKBO0e3YJKi/V/Jwvq8iGzV6SRtHd0S6pgpvs3lEMiXddeU+fxjqZ1bUvTF6pCINnjv2lko8J6v59AZpXcaZZ37Ceva0wJXEgdbWtS6cJvfn/lQ0SWnTfRv+/8IWl0Y46dXj5yEZXuspny8hLmj5bygE6v/IZa1yhKIrEl1Ws/nH78ZQtt+301Te1en0o2GE8nfSZTfRNNWQlUtOMmypb03EZUnxQVihZ2tKWapQu/lZ9Z+RBZdqZN765QlHZjDtkprjHa95fuQpvzQIXKgy3ZPEb+Apf27cR5vSwuBiGYo37Hr+BhgK2GUh+exPLJ32PRnluIL+WIb5f/ih/72qCE/i1k/D70q9kTO57JIZjUwLCDV7Hhsw/ZNiQVAROt4bosHFL1M6JS7lhw/BAm26sy3qSemwDrNn4YcDkQMxoov2cqwjf3RusRB/BIqq7GQjF8seMR9vT+tJ2DEy/9hS1hxdHCyRE2VcW4vXEgOnyn+DnqrjRxxaH4+84mfKbZ4lj+D/Z+3Qb9t9yD3EQOaZo8/UqgCLLovPku/h5cJv1tWUkNmAhr12UI1xUC3Bccx6HJ9kgvhdRzmGDdBn4DLiNwRoP0pWqp4ZvRu/UIHHgkVf1MCCj2xQ482tP70/ZPTohFjGCJsoWliL3tjd9/HIdZe8KRpClqMwfMu+qPqfUzqnMyhC5wQpPpF5CieX+htvg18hhGFKAtJ1PuHcDMwSOw0i8Gohpd8OOGtfjeo5Kut0V2D790aAsvWMD/VDBUc55M0WpJKHwm1PzkpYhGVZ+QgNgYAZZlC0Maexvev/+IcbP2IFxXoeAw7yr8p9bP8HvLQhfAqcl0XNBVKLT9NRInRpRTHRur9FDLDEd6i37W5Ac15ENUjgYfyv7l4nEXV1DnKspsSsqF7D1o/XXVHe/rZPTk9+5UUruIXkQl++1Tv/a+pBSy0JEKqe9wRcXsaOLJGL27ZymFzmuuaBkVo+5b9dvJLylwoQeVM1Hf4Yqr0ajTyerXslFaEE1rpPd3NGlAP5zXTBNJpEsLXKiEhQ2N2BlKLxMjyWf9ROrp6UHdxvxBNz/gzyINWUiOhdTfRVSM7CaepBi9m3Vp6DxqrribL9Z962u9BS8VrU6PcibqFoiYqo06TdleCim3aHlrS70kBcrJOZfePTkn/hL90sOKCmtaLaZtaO0T4295ZA8pPToyiRxLK3ciE6hI41F04GFGKXIU9V5Zr7VlqnhIbGnW1eyZ8mTU9YlS6Nby1mSpvW6AJNbT6dK7KxRd+qUHWWl7r0ypzdon6teMFwdZQ8uzQVZGj49MoOaWqmxKouLKVJXx6tfelEzHvq6ky9ak7O7q/qf6tQ+QGEZeC8fTyO9m0e8X3+iekobSfAdlejgRlf/qgOJ00/eK7h5ZSmOHDKWJ6/xfu4hknxTyHVOLTDTfUTAl1xWqVHNxPhPI2qIWDdz9UHHJ/FSJFOa1kMaP/I5m/X6RXu/5VtxozHdIn2EvKv8VHXjjz/Hq7hFaOnYIDZ24jvwNUwj0yn8C1dPrsjOpN5ECMpuSKntO5xe2oTKKC6m48nA6boD7H+OjOHcOjSabospyEsikUnfafOddkUNGj35pTYqWra5M64wnv2yb5mvc9UlRoWhCPVVK1PTvb1KPJmZeoej5+YXUpoziuiSuTMPzQIXi7mKDi8P1w3/jil5WIoMQCqN26y/glE0LheMDZqPdZ3MR+J/i9xaVRJuV53BsdL13zHaU4+Hmbmgy/BCeK94umDfCmANnsdKzhPr1TycLXwQX66kISFWcWxWH4ED4ZnT6tLzpHyxxf39U/3I7VH9KEUr334vIVYUxybEn/DoehN9yd1imv9NAZOFY5GKNqQGpiohVEUMOhGNzTheCLAwLW9liWmBK+lVR0aLHD/5XsbBFJjNjkg9hSPXu2N9yC+7tH4A30tDnM3JEHR2PDr1+QXCCMjtobXx9IBDrPiv1jgk6Mtxe4ATraReQln4sRuWvD+POhvYolH5sQMZQnxTfP2xhK9hOC1QPK5igwQ/+uLqwRSYTGJNxaEh1dN/fElvu7ccAY69Q6aGWMT2y6L9pmJXm7lKgIk6L6GaWvVcvKfTYb/TLmt/peGj254eJ29qNimi6HU1q07iz2Xar/95kj9eSp6brTfGQ2Iyl5V/XIYsm0yggo1707Ba3lbqpN67Pjry2H0dK91a46bqAISHbWcGZr+eM3UKdixanTpuevN47kQ8l31xFnppc2oKE6nz7vywmASbT6W+r63qBRGWo394cyq9kFPVJUaPurSA3/U0RstykPpa2dC5KxTttorww+sAtWfaG5zg8zB7df7uP9LlEJjUx6tg1rG3zaVMePlX87t6o1mcXXihbyoUcMO+yP6amT37KQdJgzG7WHD8Fq9ocglgCE3ENjDh6Cas9smmtRWbid6N3tT7YpSoEOMy7DP+pqskqOUl2dyncGk6Gf3rTQ4Ck+c+4FjAdGc5/Ukg4OAh1hyVgcdhe9CulfvIDyKOOYcncvxFp4PWb4kodMHlqF1T92AJNuoDZrh74+VJierQQV+qLHZf/RM/MJnrJo7CufQ18ezI5/TNC8e74I6daZ0ZSnxQVCkvdGmKyv6p3RJA0x8/XAjD93RUKg+oOQ8LiMOz9mAqVwz46yMrlcowZMwbnz59XP5O/FStWDEuWLIGdnZ36mfwpNWgGmjnPx/VU1QW0kMM8XPafipyOZ29JDcXW0aOwNFAO+1HLsXqE3SfOdPwYyTj+tRU6bXqkToIhRpWv9uDyb91RJkcmzKYidOtojFoaCLn9KCxfPQJ2uXHvIwvFvJY2mHkxTXVRNHPG4lu+mFgro0ryAnv6NsDkoltwc0N71YzWDyQLmQtH25kIUt3bGIzEZgYuXPoZTT4qA0QyLs5ygtvcK6q0r0IRuCy5DO8JdTMPWslHMaxWF2x+rKxRAoq0W4c7R79BhYJUn5Qz0ee1hM3Mi+rZ1WZwXnwLvhNrZVh2L/b0RYPJRbHl5ga0z+ne7Y+hDLIfIzU1lSwsLJRFUmAeq1atUn/7/OoZ/dW7rG72qGBO7qt5H0l9sVu6UFG9rlLnJXezYbJTXpNGQdMa6WbECkWow4aoDOuJ7P4a8ixlR7Mz7//LlPTWz9RMoilzwz0UQZaufOSvKQ1bTm7FdF2e4sqD6eB7LBZPCZxE9TTrYwUzcll2rwDWJ+Xk/WnUSPs3FqhIhw0Zb/Yiu09rPEuR3ewshiiMyCd1F8fExOD69evqo/zN1NQUzs7OEIly5BYzV8ifbETnet/g6EtVlRDM3LD89mmMq5Z/v/OHkt1eCGfrqTif3qoSoexXXnjwexfDT1IxMik+36G+51rcT2/Si1BmwF7c39r9jZZqCgJ/sEePO5Nwde9AlP/YapQSg4jwKO36XEMRCpVD7TrlPuJvGYdDQxuj+2//qHs4TNBwyjkEL2ieRVrEVJz/wRatFoeq1oZL7PHT1fOY2TC3u41yQYoPvqvvibWqCgVRmQHYe38rur/RUk0J/AH2Pe5g0tW9GPjRFSqHpYdaxhSe/d6VimlbaYo7+8aZrVkroGK3UQ/1sqb0MvqE1k+eluBFA8vqysGkwQ904Y1ZM7JHW6hreWv6ITB/r9uRRa6hNunLdVRlIZg2p7m33qM9+sqbvqsp1pVh/cmkXXpd4CSQ10C9XjTlOvS3KxRt6VqerH8INMCaXcPhiU+GJruPLV8PwPoQTcoVAxGVRMfFBzDT+WOTjKbg+Ne19MYbBVj22oVHf30JTVKjAk8ei6OjWqLbhnDV2JGCUKgNfrl7At9WLGCtfXkMNnWuieFHVZN8hELtsC7yKL7RTvJJxNnxzdD74VRc3jMgh8YYc4MMYQucYTv9vDazlcRuDq6cn4VGWYztxh0cjEaf/67OIiZGlW+O4c7/eebjbRszI0fMps6oOfwoElUVCu3WReLoN+W0S58Sz45Hs94PMfXyHgzISxUqPdQyw8kryShkD2mlm6nevymhRtMMvNVWniKjqP2DqLqkFDVvWU+Xk1dUivrufVeSjvxMSrd+bqYblxVXp2+9de0L6e0V5F6mGc0JzudNM+ldWtrKTJdMASZUb2JA1kthFNeFhS3NdZ9T1KM+uwv21uivj72Lqfq33roWq/Q2rXAvQ83mBOfKMqNPUcBuv3ODCKaFi6BIEUM/zGEqVpyyH0v+DLEvlPVbp1hxS0V7linJH+3GuDHbkdZtJXau6IG6mlaK/D8E+V9Fqvqw4BCjllNzVNYMH8qfICwkVtEeUf53NPbOXorILrMw2uZje1byiIQAnAtOTY8M6YSisLa3zmInKDliDyzA6gtJ2s8J5g7wcM0LU2UNR1zLCc11FQpPwkIQq6pQiN47G0sju2DWaJts3mXL8DjIGpq4HiafeYGEhATDPl7ew/91+JSOJjneHDgQBA6x6WSR2Dp6PA6YD8H6tX1Rs3ErOJTVXAykiAz0xz1VH3uBYtakBWzN1XWEpLhzKyQ9a1Gi3wL86G2DKTM6IPtyfhknaXgI7mg3gVUwqYZ6dTOfOiWPPY7pU3fhibbOCJDYuMItw60TCxCzJmhha66+sSdI79xCiKpCYcGP3rCZMgMd8mCF4iDLVESlUdJSP6gSnsXEqMdn30NiNKKUKRjzHRnCN4zEpNNVMOn3peioXBBbqAVcmhfRtvKlN8/hnOqWWyfpBo4cvIa4/FgkGhbNYF9f26RHVFgoniVfw4oftqP46PkYZIAdoYyNLPZZeoIULcESJV/bnuoN8ih4TZiAgNKNodtaVwwrZxfoZ0RNunkK3ndT1EcFhQWa2dfXzsiWR4Uh9Fkyrq34AduLj8b8QdUzX3NspDjIMhVRedhaV9SrxDJEXrqAJ+8TJOICMK9zC3RZfgn57bKQenMlRsy4AaflOzDLUbNSvzhatbKFRNOIe3UJfueTVQdKigvpwTG9MeNsHMT5+QwT10CzJuXVdYYgu3Mdx/5vMlbH9cWCcXmvW++jSCSvL9OhFLzSb9m+5j8ELuyLSXd6YZqnCAmac0tUCs1b6rqYZZE7MHzgfFyIK2jdI2LUaNYE5dUXIZLdwfVj/4fJq+PQd8E45NmRB/XYLGMUf/RrqipOHyZKfwimdjTrSuaT5aWPjtNU5/JUq882upeXZ0mlxdAt/7N05aEuCbEs5iR936QUWY89+cbuJYq3X5yqt3heTNVG/I8S019Jphur2lHlxt+TT76fxyKj6PXtdHmMRZZUokRl6rs748QU+ZH07hJyNtUt34FQlFqvyiBBiSyazsxxp/KVutHmiJe0t28J7XIVwcyD1jxWlZjsyREa3bQe9d4WWSCTUsii11M7bR5jEVmWKEGV++7OODFFHsFBlumk3aKlLsV0a9UgkIXdRDoZnVENT6QIrynkXqkIVemyhq5l/1a2OUcaSb91r0AmimAhSEpT4+7jafGqOdSvsSWVa/cL3czoPuPVSRpRVbfGUVSsOY3bdoi2Tu9A1Us0o1mBObFjQO5LOT+Z6msyFim3IeyxlR4WlAirlHaN5tgpt2DUlIGiLpR0oPH77qhuutKeU4TvBvrOuQKZWjrQDN/nJJM9pjUeupn8gqQJTTr7mKIubqLBNlXJebZfFpsK5GMp52lyfRNdWZbvQVvzeIXiIMtekxbxO/Wqrr8kQSCzSq1oyOx1tPPgYTq4awutmTeGujcpS6ZmVajdnJP0KK/fcif+RV9a6LVG1N/bvPFYOv7OfTQT6cgw/T10VQ9BUo16/VmAUuO93Ebd1WUnKtOFNt0vaO0vGUV5DaYaenvspj8EEZlZlqPSRVSbtovLuNDMU+oWvuw+LXPRXy6negjictRmQUDBDbDpXtK27haq64+oDHXZdD/Pn0scZNlbpI9O0vzeTaj0mxcO9UMwK092PSbSev8n+SOYSO/Rxs562WYUF8Wi1sNpT2Tm3y7t5hJy0ctXKxStSz3XXqGC0YZVSzlDY2opWh6iktT+14gC2cVJFE/B6/tTw+LKgKo7T9LrhGkFajFoCR27p9/Vk0LnJtXXrbVW3shW8aBJu0ILVt3JUAqdGVOLTCCiku1/pYh8UKE44xN7p8RHl3Dm1DlcvfcELxIFFCtXGVWq1kTjVq1hVzGf5aVJvIsT23biTEQiClu5od+AdqiZZaorOeKC92LTvit4aWEFxy690aFe7m4JmOOe/oFutYfivNsGBO4bghp5cfpnNpFGX8OxQydw6U4U4uXmKFm1Ppw6dIG7VQbbICbdhteqNThy3ww17d3RtWcHNNRNNy7AnuKPbrUx9LwbNgTuw5B8UKE4yDLGPlISLsxoBY8/62Fz4J/oVdBSS7Jsl3RhBlp5/Il6mwPxZ6+K+WL5CwdZxthHkOP5qfFw6XEcTjv8sa5TGV4PyD6J/PkpjHfpgeNOO+C/rlMO7dFseBxkGWMfTP7PX+jf6ls8HHoMJ2Y2/6jN2BnTkv+Dv/q3wrcPh+LYiZlono8qFAdZxtiHSbmJlR09sLLUMvju6I8CkNiJGVQKbq7sCI+VpbDMdwf657MKleeCrDT+MSLCwhB66wZu3LiO4OA7qPzdIazuXlz9DsaYwchjcWqCB74K6obdR36EE5927JPIEXtqAjy+CkK33UfwYz6sUHmg11uOp/vHwrVpfVQvVwzmlpVRv7kHegweh9nLf4OXXzxK1OTOKsayTwKC1vSHY906aNLpe2y78Z/qaflTnJnTA0PPumPzvlkcYNl7Swhag/6OdVGnSSd8v+0GVDVKcW0/Mwc9hp6F++Z9mJVPK1SeaMnKXkQi9N4TPH0UiuMrp2GZT7Q2cb242iicuL0WHgVzp2PGsp08chXaNBgPn1eqS4NQuDpce7ihRPhJBMh7YL3XCnTVz2bPWGbkkVjVpgHG+7xKXxisqFCo7toDbiXCcTJAjh7rvbCia5U8mfz/feSJ+VviEtXRyM4R7l2GYErfpnoJuUUo7uCK5hxgGcs2lJKMZL3c9PQqEr47tiOo7DgcOLWSAyz7MJSC5NcrFCJ9d2B7UFmMO3AKK/NxgFXKY5Okpfjn32hoN4YRzGDn2opnNjKWjcR1h2P+VFdUMBUU55gAs/IOGLr2DC4fnAgHTpjAPpS4LobPnwrXCqYQlP9nVh4OQ9fizOWDmOhgme+XfuWtiU/yJ/i/DrUw6n/qbgeJPX4OPo8ZDfjOmrHslhQdhvAYc9RqWBUWHFvZp0qKRlh4DMxrNUTVAlSh8tY3jT8Ln6AUVYBVMKnuDFerDwiwcimk+XkTbcaykXm5erC15gDLsol5OdSztS5QAVYpT33b5MDTCHip3ekYJR3d0PR9N/JNDMKC1lXR9peHuu5mxhhjzIDyUJBNxTUff0Rpxs+FImjh1vL9xmNlD/DXiD6Yfc4CTezL5/sxAMYYY8Yh78Qb2X14n43QLt0RJDZwcS2pPsqE9D72jOiEYdvvQlbWGa2bvG/TlzHGGPs0eSbIymN84HtdqhuPresKt6pZjMcm3sCGPm3Qf/NNJJKAYo6t0TLL7csYY4yx7JFngmz8GW8EJWtCrBgVnNxgrVsw+5aEm1vxjasLRu67h1Tlx4RCsG/tBk5SwxhjLKcYUZBNRdSF7Vg0+Rv06eSKpg3qw9alN2buC0MSkhHoHQDdnCdLOHm0QEY5KJIe+uP3ad1g33IwNlyOg1wbl6ugWpFw+J05gzOKx9lzoXjKM6AYY4wZkBGsk03FQ+91mD9vFbb7PoRJHU/07N0RjlYWiL91EOvW30b7XWshGeOJxaHS9E8IRTti492/MbSs3j2C/CmO/dAJX60KwtO0rL+SidVYnL61Ei48RMsYY8xAcjfIptzDgZmDMWKlH2JENdDlxw1Y+70HKmkDnwz3fumAtl6Ahf8pBKcHTwGmrZYg1GcCauoPySqC7MW9XrjyXNU8ld3dgx+Xe+NZ+qEYlT6bgmmdK2ub7uLyjujZzYa7jxljjBlMrgVZ2eOjmPrFV1h+/hnk5o0xcvthrM4gh6UsdD5a2kzHxTT1E5DAdtZFBM2x1cth/CYZIha7oMGUAKTHZVFp9Nt9H9s+L6p6mTHGGMsBuTImK39yGOM/64WlgYoAK66Ebqv3YdU7kkQLxYuhqKA+UDKpAXfPBpkEWAV5LHzPXINUffsgmLeAeyueVswYYyxn5XiQlUcdVQTYPlhzLQEkSGA1ZAM2DrJ6Z9Ck+Hgk6rW1xeVd0dY+i4HUJD/4XlTnN4YAiY0r3EoZ0RwvxhhjBULORp6UW1gz8CusCVYEWGXwqz0caxd9hszin/TRI0RrZwGLUNK1HZwKqQ/fISXIFwEvNB8yQR1Xd1T7gBTHjDHGWHbIwSCbhAvzB2HaqWeq3MHiivjy55nwsEx/8R3keHE7HFGaeClYwLmdOyzUhxmTIszXH/9qd3WvAGd368y7lxljjDEDyLEgm3xxIUYtuazu+hVQxGk8Zn1eLotfIBVXLt9STV5SEMwd0K5NplFZEZcfwfdsqCLUqoiKt4R7C97VnTHGWM7LmSAru411P6zC1VfqaCmuhJ4ThqJuVl24qcHwPRejzlcswNSuLdrqr43NSNwZ+F5J1Y7HFmruBhfe1Z0xxlguyJEgG3d0MVb4vdTlHa7XHyM+y6JFqpB6xQuHIzRtUhNYt2mHrNIVJwX44nyCpulrgsaubiiTY+11xhhjTMfw4Uf+ANtX79aNkQqmaNpnAOyyHCRNxrntexGujbFWaN22dobLfHRScdXnnDoBhYK4Nlzda2TxGcYYY8wwDB5kZeE7sM0vUduKhYk1Onatk3XgizuBrV4PtFvbiSu4oI1tFkt3ZHfh63dfOx4rLucENxvOm8gYYyx3GDjIyvDgyDFcTd8GR8Wkljs862TVjJUhZP1i7H6sCbEiWDp7wCGL+UvyaF+cuamd8gQLR3c4ZLHchzHGGDMUAwfZBAScC1ZtNZdOQFFre1hn0biUxx7AgtUXkKT5nGAOBw9XZDV/Kd7PF5dSNOOxZmjm7opiqiPGGGMsxxk2yErDEXInWddVDBNUq1cXmTYu5bE4Pn0qdj3RtGIV8VJiA1e3Uln8sim46BOo2w7PpBFc3bNaIsQYY4wZjmFjkCwWz7SZl5QEWJYskckPlSPKawImBJRGY0vdu8RWznCpojeKm3QTp7zvKsKqntSrOHn2iXYM16SmC9xraT4jx8Pd0zD7UIwqEQZjjDGWAwzc0JNA8trwKyHllX7L9nX/BS5E30l30GuaJ0QJmnAoQqnmLXVdzLJI7Bg+EPMvxGkDqpIs4jR8tct9RCjr5A7NPKmkq0swZOkLtGhZ2tBfmDHGGNMybMwxqYEaihaobhMdKW6eOoEH+tExnRwxZ39C9x6/oviMrZggiUCE5j2CBI3sm6m6mOVRODr+c/wsm4Atk+2g21dHjmjfM9DOeRIs0MK9Zfrr8sf7MWbQXjRZvACf8SYBjDHGcpBho464Ktp6WkOijbKEBN856DdpPyKSlMdSvLh7BhtHu8LWcwVeDduO3wbVQEJUNBK1/bpyPH8QgejoIGwe1h4jr3bGxnX93kj4/woB/pehmfMEoTDMCxOSwndhVOdJ+GfIZsx1yzr5BWOMMZadDL5puzz6AIY59sTv99P0uokFiMyKo4xFGp7FJkIuKoNW03Zi948eKCeSI3K5O+pOOItU9bvTCWKU85gLrz1T4PhmvJSFYK6DLWZe0u7srmgAF4Kpov1rN/UQjsxxBodYxhhjOc3g/aeict2w2msN+jUsDrFei1aeEofo2DSUbT4Iiw9fwImflAFW+ZoIFR1aoJau+QvBrAo8Ju6A74EMAqySosXc0qkWzLQfESCY10K3hYdwYDYHWMYYY7nD4C1ZLWk0rh07hBOX7iAqXg7zklVR36kDurhbZbB1XRJue63CmiP3YVbTHu5de6JDQ8vM7wgU//6FXVtx+MZLFK3eCM4dusKpGmeiYIwxlntyLsgyxhhjBQxPt2WMMcYMhIMsY4wxZiAcZBljjDED4SDLGGOMGQgHWcYYY8xAOMgyxhhjBsJBljHGGDMQDrKMMcaYgXCQZYwxxgyEgyxjjDFmIBxkGWOMMQPhIMsYY4wZCAdZxhhjzEA4yDLGGGMGwkGWMcYYMxAOsowxxpiBcJBljDHGDISDLGOMMWYgHGQZY4wxgwD+H6iwvs/+maq+AAAAAElFTkSuQmCC;" vertex="1" parent="5">
                    <mxGeometry x="35" y="38.56" width="220" height="125.12" as="geometry"/>
                </mxCell>
                <mxCell id="8" value="" style="group" vertex="1" connectable="0" parent="1">
                    <mxGeometry x="670" y="220" width="434" height="279.99" as="geometry"/>
                </mxCell>
                <mxCell id="9" value="" style="rounded=1;whiteSpace=wrap;html=1;sketch=1;curveFitting=1;jiggle=2;fillColor=none;" vertex="1" parent="8">
                    <mxGeometry width="270" height="200" as="geometry"/>
                </mxCell>
                <mxCell id="18" value="" style="shape=image;verticalLabelPosition=bottom;labelBackgroundColor=default;verticalAlign=top;aspect=fixed;imageAspect=0;image=data:image/png,iVBORw0KGgoAAAANSUhEUgAAApgAAAFJCAYAAAA/u13eAAAAAXNSR0IArs4c6QAAAARnQU1BAACxjwv8YQUAAAAJcEhZcwAADsMAAA7DAcdvqGQAAGbLSURBVHhe7d0HmBNFGwfwAQVEmoBUpYMgSG9SpKN0ASnSBbGgiIg0QZAO+qkIIiBFpIMUpUqXJoLSpPfeey9S9st/Mpvb7CV3SW5TLvf/Pc/qzm42Cblk990p78TTbAQRERERkUXiq/8TEREREVmCASYRERERWYoBJhERERFZigEmEREREVmKASYRERERWYoBJhERERFZigEmEREREVmKASYRERERWYoBJhERERFZigEmEREREVmKASYRERERWYoBJhERERFZigEmEREREVmKASYRERERWYoBJhERERFZigEmEREREVmKASYRERERWYoBJhERERFZigEmEREREVmKASYRERERWSqeZqPWY61r166JU6dOiUOHDoktW7bIZevWrWLmzJmifPny6lFEREREFAixNsBcunSp6Nixowwsb926pbZGePLJJ8XVq1dF0qRJ1RYiIiIiCoRYG2BeuXJF7Nu3T/5/zpw54ueff1Z77F5++WXx119/qRIRERERBUpYNJHjn5AkSRJx9+5dtUWIHj16iIEDB6oSEREREQVKWAzyefjwoXjw4IEq2VWqVEmtEREREVEghUWAiaZwBJm6RIkSidKlS6sSEREREQVSWASYK1asUGt26H+ZOHFiVSIiIiKiQArLALNixYpqjYiIiIgCLdYHmDdu3BB///23Ktmx/yURERFR8MT6APOPP/4Qjx49UiUhnn76aVGyZElVIiIiIqJAi/UB5vLly9WaXZkyZUTChAlViYiIiIgCLdYHmOx/SURERBRaYnWAefLkSbF//35VsmP/SyIiIqLgCvmZfA4fPizmzp0rp4W8f/++ePHFF0WbNm1EhgwZxIQJE+S6Lnny5HLqyCeeeEJtcQ3zl6Pv5saNG+UgoTfffFPUrFlT7XUNA4kwHeW9e/dEy5YtRYUKFdQeIiIiIjIK2QDzl19+EYMGDRL//vuvnAayevXqcgDPmjVrZFL1LVu2iE8++URMnz5dHSFE/fr15bzkZvgn/vnnnzJQXbBggTh06JDaY5cgQQJZE5otWza1JQKmn2zWrJn49ddf1RYh+3iiaf6VV15RW4iIiIhIF3JN5Hv37hVVqlQRjRs3loFg165dxbFjx8SsWbPExIkT5baXXnpJDB8+XKxcuVIdZYcg1JUvv/xSdO/eXQaGeL5OnTqpPXaYZhLBrNnNmzflcxqDS/jvv//EP//8o0pEREREZBRSNZiotWzVqpVshkZt4rJly0TOnDnV3girV6+WtZVXr15VW+zQJ/P5559XpajheGPgmD59enH27FlVEuLx48eiWrVqYt26dTIgxb6pU6fK4DJVqlSyRjRPnjzq0URERESkC5kAc8iQIaJHjx6yOfu5556T/SPdBYvnz5+XAaERajV37typStFbtWqVqFy5sirZHTlyxNFM3rdvX1nziVrSUqVKyW3Hjx+X76to0aIuA18iIiIiCpEmcjRff/bZZzK4RD/LRYsWRVkTaUysrnPXPO4Ogkb0vTTatGmT/D/6V/br10+MHDnSEVxClixZZNM9g0siIiIi94IeYI4ePVrWFOr69OkjChYsqEquYeS3mbcBZuLEiUXx4sVVyQ4DhzAKvUWLFqJt27birbfeUnuIiIiIyFNBDTCXLFki2rdvr0pCFC5cONIAHFfMuS+TJk0qypYtq0qeMx+DAPPjjz+Wz4dBRERERETkvaAFmBcuXJDpf/TmbuSuHDNmTLQ5LAE5MY0w6tzc3O0Jc4C5fv16MWXKFDFs2DCRKFEitZWIiIiIvBG0ABM1hWiO1rVu3VoUK1ZMlaK2a9cutWbnbfO4DvOWx4sXT5Xs6Ypq164tatSoobYQERERkbeCEmBiEM+MGTNUyQ5J0z2B9EFIX2Tka4CJdEN58+ZVJTsEmERERETku6AEmN26dVNrdkgXZA703MGUjWhe1yE9UaZMmVTJe+ZmckxNSURERES+C3iAuXTpUrF7925VsuvQoYNai978+fPVmp2vtZc683SP3uTSJCIiIqLIAh5gfvvtt2rNLm3atKJWrVqqFLX79++L8ePHq5JdTANMzApkhIE+rvJsEhEREZFnAhpgnjlzJlL/yXLlyon48T17G9OmTXNqHk+WLJlP6Yl08+bNE+PGjVMlO+TY3L59uyoRERERkbcCGmCuXbtWrUVAgOkJDO4x1376mp4IMN3kO++8I0qWLCnq1q2rttqZazWJiIiIyHOxJsAcNWqUZemJoE2bNuK///4T06dPl4Gq0Zo1a9QaEREREXkroAHm5s2b1ZodclDmz59fldxDs/jnn3+uShEw+twXCFYXL14sE7tny5ZNVKhQQe2xW7dunawxJSIiIiLvBTTAvHbtmlqzw5SM0fW/RKCHJOyFChVSW+zSpEkjsmfPrkp2e/fudTlPuRGmmezcubNsHm/UqJHcli9fPvl8OrzPf//9V5UioFl9x44dqkRERERErgQ0wDTzZLR2ly5dZMBnbsYuUaKEWrM7duyYqFatmjh48KDaEhlm6mnevLmsNTXPNV6+fHm1ZmduzkdzOvpqsvmciIiIKGoBDTAzZsyo1uzu3LkjNm3apErONE0Tffr0EbNmzZLL1q1b1R47DM7RXb58WU7v+Omnn4qiRYuqrZF17dpVnDt3Tvz222/iqaeeUlvtzM3kf/zxh1qzw0xDCRMmFO3bt1dbiIiIiMiVgAaY5tHagFl9UDtohKboBg0ayFHjCxculIHpgQMH1F67rFmzyv8fOnRIlCpVSgaYSNiO+c2Ruih16tSiRYsWcmAQmtkx9/mPP/4og8v06dPLY40qVqyo1uzQR/Off/6R61988YWYOHGi+Omnn5zmLiciIiKiyOJpqCoMkNOnT4scOXLIhOlGL774ohzVjT6ZGzZsEDNnzpSBHIJBNHtDzpw5naZxfP7550X9+vVlbkwElz///LM85qOPPhIjRoxQj7JLlCiRDGLxvA0bNlRbI8ucObM4efKkKgmRMmVK8dxzz4k9e/aIyZMni6ZNm6o9FA5u3bolfv31V3kjsW/fPllOnDix7JOLDAWo1UY51GF2K/xWcAMUCPj9oib/6NGjom/fvqJMmTJqD+mOHDkiPyN8f3Bj++yzz6o9FC7Q33/u3Lliy5Yt8vxx+/Zt+fdGFyycP9DtytxSFmwnTpyQ7xljCfAdRbcx5JMuXbq0fM/FihWzrBLl5s2b4pdffhFLliyRFT+4BuMaj+mdGzduLF8rWP73v//JSiRc0zEeg/wEAWYgzZkzR3viiScQ1LpdcufOrW3btk0dYVeoUKFIj7P9ELQvvvhCe/TokXqUpnXs2DHS47AMGTJEPcK9bt26RToufvz4mi14VY+gcGC7EGidO3fWbCc7+TfG98h2gtXeeOMNrXjx4o6/fZo0aTRb0KY9fvxYHRlaFi5cqNlO0vK92m641Fb/+/jjjx2fke3ipF28eFHtIZ3tptnxGdkCDbWVwoEtcJK/gSRJksi/L64RZcuWleePokWLOv7u6dKl0yZNmqSOCi5bMKnVqVNHvle8t6efflqrVq2aVq9ePS1r1qyO91y4cGFt48aN6ijf4NrdqlUrx+fjbsmZM6c2ZcoUdVTgIAYxvo9ly5apPWS1gAeYgAvjK6+84vRHxoLAsmfPntqtW7fUIyPMmjXL6bEIOG13IGpvhGPHjmm2OyTH42x3lNq0adPU3qjdu3fPccHGggAjVE4QZI1///1Xy5Ejh+Nv/Oqrr8rvjNHevXudLhQVKlTQrl27pvYG35IlS7SSJUs63h+WQAaYuJAaX3vnzp1qD+kQeOufT4YMGdRWiu22bNmiZcmSxfG3rVWrlnby5Em1127Xrl1awYIFHY/BOQZBabDgGmYM9nCNvXHjhtqryRvoBQsWaKlSpZL7ccONyhZfjBkzRkuYMKHjtTxZ+vbtq44OjOHDhzu9/g8//KD2kNWCEmDqDh06pK1atUouBw4cUFvd27FjhzZx4kTtr7/+Ultcu3v3rrZhwwZt5cqV2vXr19VWz6A29M8//9RWr14tA04KH/j+pEyZ0nFiadCggfbw4UO11xlqOUuVKuV47Msvv+x0Ug6G5cuXy5pW/T0Zl0AGmF26dHG8boIECYJ68QxVxgCjXLlyaivFZps3b9aSJ0/u+Ls2a9bMqfXMCOcKY2UFKlRcVZz429ixYx3vAcuoUaPUnsj27dunpUiRwvHYTz75RO3xDFoT9WMRpKI1qH379tqnn36qtW3bVp6j9P3mpU+fPupZ/A/BtPG1ly5dqvaQ1YIaYBIFytWrV2VNkn5SSZ8+vXblyhW117X9+/drTz31lOOYKlWqBKW5HDc7CFJSp06t5c+f32UXE6sDzP/++8/tBRE1qPrrVqxYUW11dunSJfn5hTN8Pvfv31clZ506dXJ8RoMHD1ZbnR09elQ7c+aMKlEoQzcQtGjpf9NMmTJFW3mBmn1jbV7NmjXVnsD4448/HE3iWNBEHh3UQOqPx/Lll1+qPVGbPXu24xgEladOnVJ7IiAYR6ujsQZYXxC4e1sZFBWcp921OiH4f/LJJ+XroqsAKqTM7ty5o+3Zs8ft75s8wwCT4gRz39zvv/9e7Ylahw4dnI7DCTiQ0P+3devW2rp16xzB7fz5853eExYrA0w0A+KEj9pJ1CyYa2lQu6tfOF19jlOnTnX0b+3Ro4faGl5GjBgh/33oZ4e/hxm6Ael/G3OgjYuW/n3E58g+YKHv/fffd/w9saBm0BPvvvuu03GB6nKFlhncjBpf29Mbvjx58jiOwQ12dMchGEPQ+Mwzz8jvfXSOHz/u1E1JX7755hv1iJi5fPmyo5tco0aNXFYk6K1TDRs2VFsioKZaf3+VK1dmS2YMMMCksIemHwRL+okMF3WchDyBk41+HBY0IYVCrdOzzz7r9L6sDDDR59T43K6ayjCoAfvMXVsQcBqPxXLhwgW1NzygxsNYM4QaZTS7Gem1JBhAYYQLf926dZ0+HwysoNCFrjXGVgP06/e0tm39+vVOf2u0QgRiUByawo2vi641nho4cKDTsdF18ejdu7f8fLy5UULtqvE1sFg1GA7vx/i8OFeZaylx44t948aNU1vs0P0OtZrG4zEoiHwT1Jl8iAIBCfaRjkNXq1YtkSpVKlWKGhL3I22RznZhEcOGDVOl4EFqEX8xp9QZOnSoGDRokCrZ2S46Mo1Xrly51BYhUz4h36yR7cIjl3BiCy6dvj+PHj2S084aZ//C3wfT25pnHEOuXqSUMrLd8Kg1CkWYWhh/Y129evVE8uTJVSlqSOGF1Hw6TAryww8/qJJ/ID1Qr169VMmuVatWai16yB9tTFWE7/Xq1atVyZktcJPnw6+//lpUrVpVbY0eUsDlzp1bleyQysgK5vOXLciX6QmN1wCcv8D4+0RO7dq1a8sJYIz4+4wBFWgShaXTp0871TZh8faO1BZcOR2P2sNgN5tkz57d6T1ZWYOJz8xcy4YFnfX15nI0EaNmQLdo0SJZs2N8fKJEicJ2hCYGAubNm9fp34uRuuiLpkOft379+qlSRK2JcUFfPjwXuVajRg353caC1oRAQz9Z898M33VvmGvUMmbMqNmCHbXXeuhWY3w91C56mwUDtYnG58CASFcmT57sth92dIzpzrAgM4wVcG7u2rWrU6sVFlsA7GguR600rgv6IM+DBw9q2bJlc3o8FgxOQn908g1rMCms2YJJOZOTUYECBdSaZwoWLKjW7C5duiST9ocrzJyF2si9e/eKcePGCdtJVuTJk0d88803ombNmsJ2sRIpUqSQSZMBCd5ff/11WbPXrFkzOdHBunXrZG3NBx98IB8TbpCY+t9//5UTQ6D2BjUktgBT/h8zf+E7p39GtouYaN26tawFxsQNqOXFzGA4Hsnq8VzkGqb2PXXqlFzME3QEAqYpNovp+ePMmTPy9+Uv5vecJUsW+V30hvk9o9Yd79sMUzZPmDBBlbyD34tR4cKF1VrMYGKVL7/8UiaVR6J3TPOM2f5WrlwpaywxcQo+DzwOrSuYaAO/wePHj4vXXntNHvv777+LCxcuiLFjxwpboKqembymAk2isGTOt4p+cd7WHqAPp/E5sCBBcTD5swbTHYyK/eyzz2SC5MaNG8s0JE2bNpWDCWwXmTifrgi1IUglhfQ1yKNapkwZrWXLlnIdtZlIh2IeMEVRK1KkiOM7HoyaXuPEC1gw6MXbTBLbt293eg4s+N34A2oq9QF4+oI8nN4aNmyY03Ng+fHHH9Vea2C0ufH5/d3XEX3nv/vuOzkJAgZf4W+J1EpoRUCmB1cj3ylmGGBS2MIJxdw8jsDMWxj1a34edNb39kJjpWAEmDoEmvoocYyu1ZuZKAIuxvh8kA9w5syZait5K5gBJiZg0F9bX9Atwlu48TI/D5rJ/QGj1M2v1a5dO7XXc+gGYH6eJk2aqL3WMI5WR3ebQN18YQCe3r2lRIkSITWJRrhhEzmFrb/++itS87ixw72n0MnbdperSnZo/sV8vnHJ+fPnZfMR5ix+5ZVXxIsvviibld5++22xceNG9ai4Dd8JW9AtPyfMtVytWjXZtQBzttsCFvUoig1sAa1ai+DL+QPdJNKlS6dKdmhuPnDggCpZBwNazHx5z66OcTfQxxerVq2S87cDBsz9/PPPsouNP2Hwji0AFy+//LLs8oPzOro7NGjQQMyfP99pEBBZgwEmhS30ITTz5WQLro4L96AKI0TRxxCjyNHH8vnnn5d9k3Chad++vciQIYNYvHixHJGJBSPKu3XrJvs94eJpu4FVz+Qf6COF10I/TwS8GJnqKigwwo1Bnz59ZJ8rjHqN6U0C+uPiM8Fzon8X+q7hwoX+lXiN8uXLy4s+AvHs2bOLsmXLisGDB8tj0L/Q3/C6CxYsEAMHDhTNmzeXn9O8efPU3qihby1GQb/xxhvi77//Vlvjjth4/rDqPWfLli1SwHf27Fn5fbLCd999J/+Pcwr6a/v6uUYFI/937twp+5G3adNGnq969+4tvv/+e9kHGpUP6GOJ38a7774r9+P/+N5v27ZN/Pfff+qZ/Gf37t0yq0Djxo1l4Is+7DhHRWX79u2iZcuWsv8rbu7No95Dir0ikyj82C6ojiYYffn666/VXu+YEyZj6d69u9obeP5sIred4LS33nrLMduFviDhu95/Ff0J0bdQt2LFikijyDFbki0AVI+wBvJuIk+fca5444K8k+5GfWJGJONUf1iQ1zS6GZ1cwZz2tgDS6bkwWtd2cVKP0OSoe/RZ1Rmn0tMXNNFZPZc7XqdSpUoy8bX59bDky5dPPdI9/D2Nx+BvG4xR3MFsIjfPuY8F2RN8gb645ufyx/SI5vy4WHz9frmacQf5K2NqyJAh8rnQv/XEiRNqq3VwjkLmj2TJkjm9d0zdef78efkYjDTHNkwaAcgWYAtynR6v99G0sgsQugFgCmvbTbH23HPPOb2evmByD3dcZaII9niAqDDADFG4SKJvSCAXzMgQTlwFIdOnT1d7vdO3b99Iz+Wvjvqe8GeA+eabbzo9NxYM6jH2OUVneSQkNvabQl9D9Dk0Hocg9dy5c+oRMYcgF4EbBgSsXbtWe+edd5xeDwsGHJm5SqOkL+Zk8dHBBQwz+Jifx5y0GSl2ateurUp2rt6vMVC3wty5c+Vng2AASfJd/bsxZV9UzKlusATj+x7MABOBuPHfj+XXX39Ve72DGw3zc7Vp00bttQamZzW/BhZfbqDAfAOFZeLEiWqvb/r37y+fBzc/a9asUVutNXLkyEjvGwN7jJ/Dtm3b5PZNmzapLfbBnClTpox0rK9/c1cQUOO8gEFFuEn//ffftYIFCzq9HgJbczJ+nHs//PBDp8fpS4ECBdSjQg8DzBA1ZcoUl18mfy6o8Qsn5toqLL6OVMQJwfxcxjyQgebPANN8YUFOPHPezxYtWsh95mnkzLOAYPE2gPMGBmCZPwtzIIRRvDhpY1Q3gq/33nvPMdIWwbS3gwswB7nx9bCgpsMMQShqgYwQnGJOe+Ox5tl+rIZ/v7k2Orp5sXGzaQ6wMMNToAUzwDSPxsbibQ5Mnavaa3wPrLRhw4ZIr4EF31dfmGf0woIA0Rf427kKWDEVI3JQWgktS8bXyJAhgxywZYSbQewzT/m5atWqSPkzzTeOVsPsQcbXw4LzlJF+Xu3UqZOcihezK6GMwae+VpoEAgPMEMUAM+bMtWlY5s2bp/Z6B03r5ud64YUX1N7A82eAifmEkSQdz4tAxDwtHpqM0PyN/TjZmY0fP14mHcd+pOzx92j7nj17Oj4HLEiYrMOI0Vy5cskLGYJRHWpV0cytN/l7C4mc8Vq4GPXq1UttjbB161bH+zFPlYngTa+NwHfU2KzuL+ak1gie0GoRFexHVwn9GNRiB1qwAkx8V/TXNS6odfLFgAEDIj2X1TVPmKrR/BpYfJ0UAonJzc/10Ucfqb2e2bJli1a/fv1Iz2NccPM3evRodUTMHTp0SMucObN8bowWd9VFQH9PuNk0w/cMN33YjxRsvtYAeyN37tyOzwNLly5d1B571x50v0HqKKM9e/ZoR44cUaXQxAAzRE2bNk3enQRyQT+hcIEuBsYfrL5E1zToDpqEzc9lDGQCzZ8BJuCkevz4cVVyhlyP+uuin5oraOLZvXt3QFIY4aJv/Cyw6EFdo0aNZJ47f8z/jLx57p4XFwj9vbjLH3j48GHZ9ysQcJOgp5bSF6S08QT6eOHx5gtcIAQrwMSNif66xgU1XL7Q+x0aFzTbWgnz4ZtfA4uv6X+qV68e6bmQlswTM2bM0F566aVIx0e14MbUKriJQ/Dl6gYSvwUEtXhN3Ci7+nzQNxOBqa+1v94y9/HX52VHn1HUwMbWyh+OIg9RTZo0kaPgArlgZF2483Ve7CeffFKtRTCnQAonmGc8c+bMquTMOIsRRpHbTsaqFAHzAefNmzcg85BjtLb5dbZs2SJTkmAGktmzZ0ean9gKmJXH3fMaPyNXs8GA7SZBZM2aVZX8C3Nn16hRQ5Xs8Ll4AqNbASPQ47rYeP6I72P6n5i855w5c4p+/frJLA8Ytf3ZZ5/Jeb4xe447yAZhu+lSpZhJnDixHAnv6t+AlET37t2T68jkgFHsZk8//bSwBciRZhvyF31udN3WrVvlZ41Z1HCOsd2kqj2xCwNMCkuY3itevHiqFAGBtC8ePnyo1iIgHU1chNQaOqQyQkqeYEKewUKFCqmS3cKFC0XHjh1F9+7dZfqgQLp165acpk4XKumsMI2l0bJly+R7jQ7yFSJvoFVT+cUG7n7boXz+cPd8vgayMXnPRYsWFfXq1ZPfOaQ0wzSpCOxOnz4tevbs6TLoxVSgCET9bdeuXWrNDvmSgw3py4xu3rwpU5/hBn7y5Mky4I2NGGCS5RDYBXpxBbU2Zq5Omp544CIJb1R34+Esffr0as0+n7C7ms5AMp+gkVsO8w0jwAy0p556ymnuZySkDwWowTReqFCLg0A8KgiokEezXbt2aovv3nvvPVGnTh2vFmONFnKsunpMVMvmzZvV0d7Bbxt/R7NQPn+4m288lN5z6tSpxYABA8TSpUtFmjRp1NYICEIRXPmT8fwFofD7xHzx5sk8+vfvL38z5nnhY5N4aCdX65bACQnVuqjijcvQPDhmzBiRLFkytSXucBfw+ZOrr3GRIkVkwlyjOXPmiPr166uS55Acu0ePHqpkhxltcIcZDEhMfOTIEVWyJyw+efKkKvnXxYsX5ewXmNln5MiRolKlSmpP8ODvivdkNHfuXFmLEgxIro4kyJjBBc2E5otasKBGydg0jiTqUTWV//HHH6JWrVpy5hl3AYynzN/ZQEAAXbNmTVXyDs7h5sTlixYtitTVwBNffPGFbDI2wncT31Gr4HeZNm1aVYqAWmpfmnoxccGaNWtUyQ4J0j/++GNVihkE/6VKlYoUAKN7SaNGjVTJeohRkFAdE0agWf7TTz9Ve4IL3eJmzJihSvZuRpiwAt2VYi0EmFZCnic8LRfnHFtxiavPwt+LK7aLaaTHYfCUL1ylGUGOwWDx9yCf2Aajwo2fBxZ3g5TiMoxYN35GSDT/OIpR/sjZ17ZtW1WKGfN3NhALMiL4CjlMzc9nTh/jqW7dukV6LmMSfqvg72l+HUyc4IuXX3450nMtWbJE7bUGMjCYX8PVyO64AEn8jZ8DEtHHdpbXYALmGY2LU4sZoQO/P+/CQlmo1GCixhE1j0ZDhgyRTW3eat26tZwv1wgdr3EnHAzBrMEMVZiq8tChQ6okxIoVK0TlypVVieDUqVORmuJQS4c+lmYYKIX51PF/tAbEFGr7PenzaYQuDkePHpXraDJ84YUX5LqnMDAJUwD6olOnTnKaVCNfa/DMtVOAQZWY8s9K6Ptobj1EK465j7InMmbMKKeHNMJ8+mjOtQqmY0RT+Y0bN9QWey07av3jGvRlN/6dnnnmGXH16lVViqUQYBKFI8zogq+4ccFMKr6wXagiPRfykwULazAjM0/H5+u0oOEO6XGMnxNm7XGlbt26WrVq1VQpOIKZaH3UqFFOnxMWb/NA6lAbZX4uf7RwuZqFa/bs2Wqv55Cmx/w8mLkrqtpuX5lbmqKbBCBcPXr0KFIqMXOC+NjGLzWYFHPHjx8XGzZsUKXAQFoHPSVJOEDNB2qSjSpWrChr2L1lvptHLe2FCxf8kv7GE6zBdIb+oPnz55f90HRIi4JBA+TMFiSJESNGqJKQA3jQl9Zo586dctQ4+sn5UvtlFWONnC3AlCmpAmXPnj0iX758qmTna7/rVKlSOdVGId0Rylb30bcFxbJfoZEvrTb4+xcoUECV7FCb/c8//6iSddAyhBYiXXT9gsMVam0bN26sSnb+qOUOKBlmUsjhTD7WwGw7xn8jZnjwlqu7+VKlSqm9wcEaTGfoK2ieDhHzHaNWgJxhajnj5+SqrxcS1Adzrn1dMGswQZ8RRl98mb0LkxYYnwNLpUqV1F5rIXG/+bV8abXB/Nvm5+nbt6/aay3zRAmY6jGuwaQNmAfdfA6zBd7qEbET0xRRWKtWrZpas0MfNORb84arka/oJ0ShAbU2qFVCrZwx9cm1a9eCnqMzFJkTpqOmznYtUCV7kmfU/KLPY1xnPn+gDyJGIXvDVfJwc8YDqyBxf+7cuVXJztgv2VOBfM/mnJioKY1L8Nt76623ZL5SZJ4xMo/ij23YRB6i1q5dG6mDub8hLYVVKShCxZIlS2SzlpG7QQ3uYDYYY7obNI+jC4N5sEQgsYncDmk80JSLVDpIb4KLIFIW6fAbQsJ1coZABN9hHQIKdCfB5aBMmTKyaRozsARbMJvIwfzbB3S98WYGJgzuwSAfHQIqpH1CCit/+OSTT+RgJB3y1Br/1p5At4nRo0erkj1XJG5E/AHN4foNO2bewXksVNJ6BQL+Vvib4fyF3K0Y3GOsBMHngfN7rIQAkyhcPXz4MFJz8tixY9Vez3Tu3NnpeKTvCDY2kWtynuFixYpptou9du3aNbnNFhQ5fS4YqEKRNWvWzOlzmjdvntw+ceJE2bXAH3O3+yLYTeS2C738bRk/q8mTJ6u9nmnfvr3T8bYbebXHP3bv3q3ZboIdr4d1b1N25c+f3+k9I02bvyAtkf46tkBcbY0bMN855kU3pgLDPOTGzx7d5WIrNpFTWENn+i5duqiSnTndUFSQBBhTdRkhaTIFX9++fWUT+PTp0x1JwFELb4SWANt5TpUi2AKqgCf9DiWopTTC9HlIFYPBIL169Qra4LVQg6kRka7IyJvzB2qipk2bpkp2/j5/IEE8asJ0+P5jsIinkJYKg3x0SPSNgWH+gM9HT0mElqFQSXoeCEjRZLvRk61Rw4cPV1sjn8NcNZOjmwa6BrmabSmkyDCTKIzdu3dPS58+vdNd4f79+9XeqM2fP9/pOAwm8QZSwKCGLVGiRDIdx4ULF9SemMFzGt9XXKvBRG2W7eZBGzNmjNpihzQqadKkcfpsUEtgtH79ei1t2rTamTNn1Ja4B5+J8TNCzZHt4q7lzJlT1tqFimDXYMKtW7e01KlTO94HagQ9TR9jC54cx2GpX7++2uMZtLZkypRJ1nJh0BUGDHli48aNTq+LFg9PUwx9+OGHTscOGzZM7bHezJkzHa8T1wb3oGUsVapU2sGDB9UWuz/++MPp88+dO7faE6FLly6xIp0TA0yKE3CiNv5oP/74Y7UnatWrV3ccgxF++/btU3uit2DBAqfXxGLV7AzGCx6W5557Tu0JLzdu3NBu3rypSnYnT57UsmTJ4jYn4RtvvOH02Xz77bdqjyaDygwZMsim4LgMXUdw06N/RrgBS5Aggfbbb7+pR4SGUAgwYfjw4Y73gQUz83iiYsWKjmPweR8+fFjtiR7yVxpfEwvy8XrK/DtYvHix2uPe1atX5Whm/Zg8efLIriju4Oa9Xbt2Wrly5bSOHTtqu3btUnuid+DAAe3ZZ5+Vr4N/V1SvE5uhu4n53zZnzhwtYcKE2sqVK9WWCHfv3nX6bWIxdnGYNWuW/BudPn1abQldDDApzmjRooXjB4vaL9zlR2Xq1KlOP3JjoOIJ1HYaj9eXv/76Sz3CN0jQbH7OJEmShFTNkxVmzJgh/05YkEAa/24sSB1TtWpVGSS58sMPPzh9NunSpdPOnj2rHTlyRF4wa9WqpR4Zt5n72TVu3FjtCR2hEmBCgwYNHO8FwfjWrVvVHtfGjRvneDyWkSNHqj2eQSoj4/H6sn37dvWIqCFYzJUrl+M4tHrghi0qxnMkkn5Hlwz+gw8+cDweC2p38Rz4vUXl/PnzWo4cOeQxVapUifZ9xUY4P6HWGf9GVAj06dNHnoNGjx4tz2lRfR+MNyZYcLMAqBFHbba7yRFCDQNMijMQgBkvEmh6cneyxpy7yZMndzy2f//+ao/nXM3+g2XZsmXqEd7DnbDx32BccEELJxkzZnT570STES6e7qCWyHwMTsqoMciXL1/IDGAJNuMMKqjBvHTpktoTOkIpwETNUp06dRzvBwGbuxo7tF7gpk9/7FdffaX2eM7V7D9Y1q5dqx4RPf2mSj8WwZyr3w6azxEA6Y9DcLlq1Sq11z1zLam+YKDY4MGDI9WyYV505NNEwIXPB6/p7kYxttuwYYPLzwYLuiFE5csvv4x0jH49iu7YUMIAk+IcTCGoN0HgJIemHfTLQ7/M5cuXa23atJF3mNiP/ny4a/SFuSYNC/pKelPTiCYoNJWNHz9eNuubE8ebF/TLwUl70qRJ2ty5c7U7d+6oZ4p9ChYsGOnfh4u6uc+SK65qf/LmzStrTsiud+/ejs8GfY1DUSgFmIBAbNCgQfJmBe8pWbJksu8q3hvOH7gxbdWqlRY/fny5H4G7r90OvvnmG8e/XV/Ql9LbgAxdTNDHVn+ObNmyyQAGN9d79+6VLTXGGrOiRYtG6rfszpYtWxyfhasFn0Pp0qXleals2bIycMU5F83q0dVyxnY4TxlH8+sLKgii6w6AJnF8t8zHvv/++36ZrtNfmAeT4qRz586JYcOGyRx1SJ5sljNnTjl92XvvvSdsd9tqq3fw0+revbscIWgLFGVOP4xIR045T9kuDmLw4MGq5L2uXbvKvGqxEaYpxNRpGO2NEaZVq1YVtouhRyOckWfQFmQK20Vf5tZ7/fXXhS3g91vuwdjIFsCIzp07yyTPEyZMUFtDC/5mp0+fluu2i6vM6RgK8P1CjlWMgD5x4oTaGgHJzm03quKdd96Ro7B9YQsk5KhqjBbGaOuSJUvK80euXLnUI7yzbds28b///U8sXbpUXLlyRW21s91QyxyjeL/I2YnfjKeQH7Nfv35ysgOcr8zw3JiGuESJEnIaSOQlTpw4sdob3pBLFllM8PfDvxnrffr0keez6MyaNUu8/fbb8jPFNahDhw4yw4Mnx4YKBpgU52FOcZwkEQTa7q5lmg9fg0pXbt26JU8SGTJkUFvIU0jHgfnFkS4G8zl7A6c2BCeY71lPY0QRMKMPEnAjRVHy5MnVVvIWblYxeQOCiKRJk8r5y30NKl3BueP27duWJh/HBAUIjPH7wg0bznkxDfrwe8PNIG7YkYIHv9m0adOKF154QSRKlEg9Ku7BdQXnMMwy9tRTT6mtnrl79664dOmSvDHG5xnbMMAkIopjkAcUM9SgNgs1w0REVmOASUQUh6CWCd01mjdvHhLTQRJReGKASUQUR6AZF33t0Cy6aNEir/raERF5I05MFYkY+vr166pERBQ3dezYUU5/Onv2bAaXRORXYVWDibvzU6dOiZMnT8oOzJineOvWrXL0HOb3/O2339QjiYjiljFjxsjRvhs3bhTPP/+82kpE5B9hE2AiLcTBgwdlbaUr3377rfjkk09UiYgovNy4cUN89tlncuQpUvogLYxuwYIFMh3RqlWrRMGCBdVWIiL/CZsAE0P5kQ4GtZbIPbhv3z61x2779u08sRJR2CpfvrxYu3atXI8fP77MgYqchjNnzpQ5X9EsXq1aNbmfiMjfwnKQz+effy4GDhyoSkLmNEQeqtiUoJSIyFNIyo2E1q4899xzYs6cOTJRNxFRoITlIJ+rV6+qNTv0v2RwSUThCjWWlStXVqUI5cqVE1u2bGFwSUQBF5YB5urVq9WaXcWKFdUaEVF4wtRybdu2ldPylSpVSk4ruHLlSk6PSURBEXZN5JgjFk1CRpgG0Jv5n4mIiIjId2FXg4k7diPM3+ptcIm5eUeNGqVKREREROSNsAswly9frtbsvG0eP3funKhRo0akZnYiIiIi8kzYBZgrVqxQa3beBJj37t0TdevWlYnaX331VbWViIiIiLwRVgHm7t27xdmzZ1XJrlKlSmotasij+dprr4lNmzbJctWqVeX/iYiIiMg7YRVgmpvHM2fOLHLkyKFK7u3cuVMUL17ckaT4hRdekMcSERERkffCKsD0pXkc85OXLl1aHDt2TG1h7SURERFRTMSqAPP48eNi6NChonbt2qJs2bKiZs2aYsyYMXLfgwcPxJo1a+S6zlXiYd2BAwfEBx98IOrXry+nmDRCUmIka9cXzO1LRERERJ6JFXkwN2/eLDp16iTWrVsnp0Nr0KCByJ07t+xvOW3aNNGxY0fZfxKzVugwcw9GhKdNm1ZtsTt06JB4++235XN5+k/v3bu36Nu3ryoRERERUVRCOsBE7WH37t3FuHHjZLlZs2aiV69eIleuXLIMGJSD4LJNmzaydlNXtGhRGZiajR8/XjaL6xBw7tu3T5WEyJgxoyhSpIgq2SGAjao2lIiIiIgihGyAefDgQZmPEgFgggQJxKRJk8Sbb76p9jrDtGg7duwQd+7cUVuE+Pzzz0X//v1VyT0EragF1Q0YMED07NlTlYiIiIjIWyHZB3P9+vUyaERwiabuqIJLyJ49u1NwCdWrV1drUVu1apVas2NNJREREVHMhFyAieASo7gvX74sy+j7GFVwCRjgY5QyZUo5UCc6yJuJfpq6FClSyHRFREREROS7kAow0SyOmXQwow4ULlxY9OjRQ65HBX01jRCgYjBQdMzzlleoUMGj44iIiIjIvZAJMK9cuSL7XOo1lwj0xo4d61HAZxykA542j5sDTDaPExEREcVcyASYH330kexzqevQoYMcCR4d5LA8deqUKtnTE1WrVk2V3Hv06FGkvJlVqlRRa0RERETkq5AIMBcvXuw0kvuZZ54R/fr1U6WoYfS4UaFChUT69OlVyT2kMLp+/boq2dMTvfjii6pERERERL4KeoCJGsh27dqpkh1yWiZNmlSVoobg1IjN40RERETBFfQA88cffxQnTpxQJdsbih9ftG/fXpWit3DhQrVmh36cnjAHmGweJyIiIrJGUBOtox8kclgaA8w6deqIefPmqVLUjh07JrJly6ZK9vREFy9ejHZgEEap47H6aHU4ffq0bCYnIiIiopgJag3mnDlznIJLaNmypVqL3ogRI9SanafpiTZs2OAUXObJk4fBJREREZFFghpgTp06Va1FKFeunFqLGvpu6nOU69g8TkRERBR8QQsw0TKPWXuMUJOYJk0aVYraqFGjnEaBe5qeCBhgEhEREflP0AJMTNOI5OpGntZenjlzRvTv31+V7DDrT7p06VTJPQSlSFGkQ5M6ZvAhIiIiImsELcDctm2bWouQN29etRa1Tp06ySZyo0qVKqm1qCG5OgYX6YoVKybnICciIiIiawQtwLxx44Zai+BJ7suffvpJ7N+/X2TJkkVtsStRooRas7t796749ddfVSnCihUr1JqduXl89erVYsCAAapERERERN4KWoD55JNPqrUIxpHdrqxbt07WXv7www/i+PHjaqudMcB8/PixaNq0qdi4caPaEsGcN9OYYB1TTr799tvyWCIiIiLyTdACzKxZs6q1CL///rtai2zZsmWibt26cuQ4AlFj+k70vdRrNLEdidqvXr0qBg4cKLfpMNf50aNHVUmIxIkTi9KlS8t19M2sV6+e6N27t8zNSURERES+CVqAiT6TqVKlUiU7TPs4c+ZMVbK7efOmbLJGCqKuXbuKBg0aOAWJ8Oyzz8rAEoFn48aNZZ5LJGs315KaR4/nyJFDJEqUSAajaCovVaqUaNWqldpLRERERL4IWoCZIEEC0aJFC1WyQ5DYpEkTOZ/4559/Lpurn3vuOdGrVy/xwQcfiG7dusnHmZvSMSK9fPnyomjRonLw0JIlS1wO3NmxY4das9u1a5dM7I5aTPT//Pbbb9UeIiIiIvJV0AJM+Oqrr8Srr76qSnYIMhEgonkbA3pQnjRpkhg+fLh6hBCpU6dWaxHQPzNz5sxi06ZNIn369GqrM+TKNJs8ebLInTu37Jvpql8oEREREXknqHORw507d+SgnbFjx4qDBw+qrULkzJlTvP766+L999+X60YPHjyQgSlGfAP6THbs2FF8+OGHIn589zHz2bNnRaNGjRwJ3nFcu3bt5MChqI4jIiIiIs8FPcDU4W0gAETAmSRJEpEhQwa1xzU8/p9//pGJ0pFk3dMAEcchUfvDhw9ljaerWk0iIiIi8l3IBJhEREREFB7YLkxERERElmKASURERESWYoBJRERERJZigElERERElmKASURERESWYoBJRERERJZigElERERElmKASURERESWYoBJRERERJZigElERERElmKASURERESWYoBJRERERJZigElERERElmKASURERESWYoBJRERERJZigElERERElmKASURERESWYoBJRERERJZigElERERElmKASURERESWYoBJRERERJZigElERERElmKASURERESWYoBJRERERJZigElERERElmKASURERESWYoBJRERERJZigElERERElmKASURERESWYoBJRERERJaKp9mo9bBw+fJlsWXLFrF161ZRr149kTt3brWHiIiIiAIh1gaYJ06cEL///rs4deqUOHnypPz/oUOHxPHjx9UjhDhw4IDIlSuXKhERERFRIMTaAPPPP/8Uw4YNE1euXBHr168X9+/fV3vsnn/+eRl4EhEREVFghUUT+blz50SmTJnEw4cP1RYhWrRoISZNmqRKRERERBQoYTHIJ3369CJBggSqZFepUiW1RkRERESBFBYB5rFjx8Tdu3dVya5ixYpqjYiIiIgCKSwCzBUrVqg1u+zZs4ssWbKoEhEREREFUlgGmGweJyIiIgqeWB9gYozSypUrVcmOzeNEREREwRPrA8zt27eLS5cuqZIdazCJiIiIgifWB5jLly9Xa3Z58uSRo8qJiIiIKDhifYDJ/pdEREREoSVWB5j37t0T69atUyU79r8kIiIiCq5YEWDeunVL7Ny5U2zevFlcv35dbbVPF4kgUxcvXjxRoUIFVXINg4IwheThw4fVluidPXtWbNu2TTx48EBtISIiIiJ3QjbAROD4888/i9q1a4tnn31WFChQQBQvXlyud+rUSQaK5v6XhQsXlvt1CEzXrl0rhg8fLt5++215fJIkSUTmzJlF7ty5PQoyFy5cKPNqFilSRGTNmjVSjSkREREROQvJAHPBggUiX758onXr1mLjxo2iT58+4vTp0+LKlSti2rRpYsKECeLXX3+N1P+yevXqak2IefPmyaD0ww8/FIMGDRI//fSTrAHVZ/x59OiR+O677+R6VHr27OmoJT1z5ox4/fXXxe3bt2WZiIiIiCKLp6EqMESg+btVq1YyOIRu3bqJzz//XCRNmlSWdWPGjJG1m5s2bRKPHz9WW4VYv369KFOmjFzHPwtN5oBgEoHpp59+Ki5evCi3AWoz0VyeMmVKtSWyevXqid9++02V7BYtWiRq1KihSkRERERkFDI1mMePHxelS5d2BJcjRowQQ4YMiRRcQtWqVcVff/3lFFwiSHz55ZdVyd4fU/fEE0+IFi1aiKFDh6otdqiJnDVrliq5NnLkSFGoUCFVsjM+NxERERE5C4kAEwNoSpYsKfbs2SPLqLVE07Y7Tz/9tFqLUKVKFRlIRqVZs2aiXLlyqmQ3Z84cteZahgwZxN9//y3ef/99tUWIvHnzqjUiIiIiMgt6EzlqLhFcnj9/XpYRKJoH75jhGAy4MUIfS/TZjA4G7WDgkO7JJ5+Ur50qVSq1xbWHDx+KtGnTyhrVEydOqK1EREREZBbUGkz0uaxZs6YjuEycOLEYPXq0XI8KAkwjNFlXq1ZNlaL26quviuTJk6uSPXDUm+WjgkAUTfKVK1dWW4iIiIjIlaAGmE2bNhW7d+9WJSF69+4tcuTIoUru7du3T63ZFSxYUDZleyJhwoSiTp06qmQ3e/ZsteYemvEREL/zzjtqCxERERG5ErQAc+LEiWLx4sWqJET+/PlF586dVSlq+/fvV2t2xvREnmjQoIFas0O6I2MCd1cwkhyBLAYiEREREZF7QQkwL1y4IJOlG3Xv3l02Q3vCnOzc2wATzenGgUL//fefTD3kjp7mqF27dmoLEREREbkTlAAT+S2RNF2H5u2GDRuqUtTOnTsnE6brnnnmGVGqVClV8kyiRIlE+fLlVckOOTTdmTlzpgyKMQqdiIiIiKIW8AATM/JMnTpVleyQAihBggSqFDXUNBoHviMnpqc1n0YY7GOEpO2u4LUGDhwo3nrrLZc5OYmIiIjIWcADzO+//148ePBAlYQMLI05JqNjDk69bR7XITA12rFjh2MaSSPkycSo9R49eqgtRERERBSVgObBvH//vmwOv3r1qtoiZPP2hg0bVClq//77r9OsOkhPhBpRT0eQm6VJk0ZcunRJlZynmgR8NIULF5Z5M/v376+2EhEREVFUAlqDiWZoY3AJ5pl1ovLdd9+pNTsEm74Gl2AeEY4A1mj+/PkygO3SpYvaQkRERETRCWiAaR79DZ4GmLt27RJTpkxRJTtfm8d1ZcuWVWt2eA0dRpZ37dpVNo0bE7MTERERUdSCHmAam6SjgrnJMeuOkaez97gTVYA5dOhQGWR+8MEHagsREREReSKgAaZ5Dm+kC0qRIoUquTd+/HixZ88eVbLD4KDixYurkm+KFi0qnnrqKVUSjlmFzpw5IwYMGCC+/PJL+R6JiIiIyHMBDTAxyMfIGNy5g36bSML+3nvvqS12BQoUcDoeA3JatmzpspbUHUwbaQxSkZsTwSX6XGLWnkaNGqk9REREROSpgAaYSZIkUWt2N2/eFBcvXlSlyA4fPizq1asnm6uNidmhZMmSas2uZ8+eMp2Qt1M5mpvoR40aJWbMmCFfk4iIiIi8F9AA09zn8fHjx7L525WVK1eKEiVKiHfeeUc0b95cbNu2Te2xM9Y89uvXT8yePVvMmjVLPPHEE2qrZ/Lly6fW7JBUvXXr1jFuficiIiKKqwKaB3PNmjWiQoUKqmSHWXi+/fZb0bZtW5E4cWKxdetWMXz4cJlQvUmTJmLSpEnycblz5xYHDhyQ69CqVSvxxRdfiL59+4qlS5fKXJrZsmVTez23ZcsWUaxYMVUSIkuWLGLnzp0iWbJkagv5E/KQYnAVarJxc5ApUybZNzZ+/IDe+3gMPxfUlO/du1fWwKOPbt68eUWuXLnUI/zrzp07sj+y8TsbKNu3bxenTp2SkxSwb3Jk+G4sX75cttR4OniRYh+MJcDv/8aNG7Kb1QsvvCBefPFFtTf0PHr0SF47Dx48KLupPf300/Icmz59evUI62AgLs7nR48eleupU6eW3c3w/1CA8ycqr7Jnzx6pcon8AAFmoNi+6Frt2rUR0EZabIGm9tRTTznK7733nmb7MagjNc32I3Z6vL7YgkrNFhCqR3nv1q1bWrx48eRz4f+2L5/aQ/5iC8y0b775RrMFZpH+nlhsJyOtWbNm2r59+9QRwXfs2DGtc+fOWtq0aV2+Z9sJS+6/evWqOsJathOj/MzSpUunvfrqq2pr4MydO1ez3QDIf2utWrW0Bw8eqD2ka9++veP7YLtpVlspHNhurLTPPvtMy5Ahg+NvbFyyZMmiffzxx5rtRlkdEXxbtmzR3nrrLc12wxPp/eJaV6hQIe3rr7/W/vvvP3WE71asWKG9/vrrTtdw4/LSSy9po0eP1m7fvq2OCDz8OytUqCDfj+0GWVuyZInaQ/4S0AAT7t69q1WrVi3SF1BfUqZMqc2aNUs9OgJ+KObHVq9eXbt8+bJ6hO8yZswon+/DDz9UW8hfli9fLk/G+t8QJ6WFCxdqJ06c0Pbs2aMNHDhQBlHYlzBhQq1nz56WnAB99fjxY23YsGGOkzTe00cffaRt2LBBO3nypLZx40ZZTpAggdyPAHTq1Knq6Ji7d++efH3jhS0YASb+TvrrY9m7d6/aQ7rEiRM7Pp9MmTKprRTb/fjjj1ry5Mnl3xUVIe+//762bt06+fv/559/tE6dOjkCK9wcjx8/Xh0ZHLgZRbAbP358x3vq06ePtmPHDnmeXbp0qdawYUPHdxU3+uvXr1dHe+fMmTPyfKQ/V3RLqlSptF9//VUdHViosDC+lzp16qg95C8BDzB1uLvq0KGDvHBhQXD3+++/O9VaGqGm8e2339YKFy6sNW7cWFu9erXaEzP4MSZLlkzLmTNnUO+u4oIxY8Y4Tnr4//Dhw9UeZ8ePH9fy5cvnOBHUr18/KDVmqHE33tjg5LhmzRq119mqVau0FClSOB6LmoGYwO9gxIgR2nPPPed4Tn0JRoDZsmVLp/dw+vRptYd06dOnd3w++P5S7Ifrkv43RZCJ4MyVP//8UwZy+mP79u2r9gTW9evXtVKlSjneR548ebTDhw+rvc5GjRrlOB/7UqO3adMmp3+zpwtaQvDagXb27Fmn99G8eXO1h/wlaAFmqBg7dqz8keEEQf4zc+ZMx8kMS8eOHdUe1w4ePOhUI4Q7btQmBpKxyRNLdHfeqLk0Pt5dAB0V1NaiKQk1YMbnMi7BCDBxQdBfHzdjFFndunUdn1G7du3UVoqtunfv7vh7Ypk8ebLa49pvv/3m9PjBgwerPYGBm9Ly5cs7Xh/nz/3796u9rqH2VX88amE97SKG1ia0NurHYnnxxRe1cuXKaaVLl9Zy5MjhtM/VEt3n6Q9Zs2Z1vD4qPMi/4nSAeeTIEe2ZZ57RunTporaQP1y6dEl+zvoPG8ETao6jg+Zy/RgsI0eOVHv8Dyda42ujFtUTxuYiNKf9+++/ak/05s+frxUsWFBr3bq1DMiXLVumlSlTxul9YPFHgImLU7du3bQPPvhANv2ZHTp0yPH6n3zyidoa4dq1a7LfNLqtoCkuHB09elRr27at1q9fP9nVx+yHH35wfEZojTHbtWuXbK1p0aKF7IdMoQtdX/S++Vg8/c3Vq1fPcQxuqP/66y+1x/+++uorx2tjwfkzOjgPG29m0RUnun7k+O5j7AMej5rP/v37y/OD2datW+X5xNiyY1xQI4wmeyuhqR/nTwSPriok8PvFa+Nvg+Z9M9RQv/baa1rXrl0DXqERjuJsgIm+bUWLFpXNCVgn/8FJxnhi6dWrl9oTtQsXLjj6NmLBCQmd7f3t4cOHWoECBZzeMzqxe8Jci1GsWDH5fJ5Afy5z4LFt2zan58PijwAT/cr058cFAe/FTL8QrV27Vm2xQxMcBjnpx6NPs7uuLrEVukug5lb/N2KABIJqI9TqYB+63Jj7DaP2++mnn3Yc36RJE7WHQg0Ci5dfftnxt8KC37Un0MfceBy6SgTit3D+/HlHP1EsOG/i/OkJnI+N7xlBWFRwo4/H4Tzxxx9/qK3uIfh8/vnnnV5DX1zdrPoKwarxM0CrF363RnorE2pZzVDjbLypQMBOMRNnA0w0YeGCEUqj/sIRam300cf64upu1x1z1oFA9JtBE7XxNTNnzuzx3SwCi2effdbpeHTD8BUCTuNzYfFHgFmiRAmn18BgpQMHDqi9duiHiVpZY+0dfj+5cuVyOhZLuPXRRDBp/jeiOdJck4l+mBUrVlQlOwTkqOkxHss+mqFrypQpTn+rNGnSeDzQEAGNOZgaOnSo2us/77zzjtNroqbcU+iOZDwWC8ZIuIKbZdxMIhAz32hGxV2QiSDVqv716Advfn5zVxXUWmL7p59+qrbYYSCX+Vi0NFDMxMkAE30/0DnZfAEl6zVt2tTpR1u2bFm1xzPIKGA8HqO4cbfuLwgkzf0fMZLdG+a+m2j29hVq143PhcUfASbu7PHZGl8HgbVxtDju6FFzp8PAO+OAAn1BrW04Ml/EsaBLgLHWuUqVKrJ5Tbd79245OMx8HFLeUGjKnTu3098KI7K9ga4mxuNRkeHP5lbczBn7t2NBWjFvmH/HaGZ2ZcaMGXI/Bj96Sz/WvKCVxgq4CXB1PkJ/f2NNJq7906dPVyVNmzdvXqRKEHyeeL8UM2EbYF65csVl0yT6xKA/oK9pGchzqN1JmjSp0w/X29GVN27ccDoeiyd9i3yFwV7m1/M2Y8GCBQsiPYev37dABZiANB7vvvuurF3TL1ioYVi8eLHcj7t8pBiDc+fOyS4meAwei1rMBg0ayFydrvonhguk1GrUqJHT6P78+fPL/tzwxhtvOHJg4m+uB5eowUQGjDZt2rhMw0ahYfv27Y6/q77gb+4NVzVp/sy5iMGE5tfDedMbSGNkPB4DhFylAEQOXFw/fbnJx7nM1c3WpEmT1CNiDoEkWoxq1Kjh9Fo1a9aUI+wB/Uf1pv2ff/5ZtsrgMWheR9M5KgiQhopiLuwCTFS34ySPLwxqYH755Re1x95UhS8dBlCQ/6Hfmf4D1xc0P3kLTVTG5/DnKGbc7RpfC4urQS9R0fviGRek2PJFIANMI1ygcFFEQIQ7ftTKIcDEiRo3aWgmQ23md99953Ffr3CDmiNcHHExQ9M4LlatWrWSn8m4cePkzRX24RzEft6xA1orzL83b3O+Is2a+TmQWs9fXnnlFafXQvcWb6FVz/gcWMyDKlFhgyDs888/V1u8h5zB5tfBecVf0EqJPMKo2UTKJgzeRP96DKBEKwLyG6MpHH3szf01KebCLsDE3Yv5C4xmLNQ6oAkQ/esoMDCQwfy38GVUpbnDPRarRx8CmrHM/YSQusPb5i3U4Bk7i2PBXbMvghVgGuE9YKQoTsYYwILAEoMZKAKCTQQRqA1BrS9ucr3pa0yhwTxjHGrnvb05QKBi7m7iS9DnCVfN4wimvIWJI4zPgQUtEkY45+K3H5P+1a76OlpZgxkVZPTAZ4PfKPrJIw83MpyQ/4TmhM8xYPtxq7UIv//+u5wH3XaXIt577z21lfxt8eLFai1Czpw51ZrncuTIodYirF69Wq1Zx3YCknNtG2HOWluwqEqesQWl4rnnnlMlO8zNaztBq1Lscvv2bXH+/Hm5jt+XLYASthO0LJPdtWvXxOXLl4Xt4iVsNyTy80mePLnaS7EB5urGnN1GthtOr+fdtwV8wnZDqUp2Fy5cEHv27FEl6+Dahu+bkVXnWFwzbTGCKgmRKVMmsW3bNpExY0a1xXtJkyZVaxF8eb++uHjxorh586b8++Ccbgv65bzs5D9hF2A2adJEvPTSS6pk9+qrr4qtW7eKV155RW0hfzt58qS4fv26KtnhgutLYBKoAHPXrl1qLYKr1/aEq5OmP96zv9y/f1+sWrVKNG/eXGTNmlVeGEaPHi3Kly8vfvjhB3mjVqpUKbl+7tw5dVTg7N+/X8yaNUvMmzfP5U2l2dmzZ8XMmTPFokWLIl2QfXX16lUxZcoUUbFiRbm89dZbomXLlqJv376ievXqolChQqJ+/fpi7ty5MkgPNFxM//nnHzF79mx5cfUEAqFffvlFrF+/Xm2JO2Lj79+q94xgyxz84TtjdVB89+5dtWaXLFkyUbx4cVWy3unTp8WwYcNEgQIFRPv27cXIkSPl+tSpU+X1KEuWLKJt27bijz/+EA8ePFBHBQ4+Y/zW5syZI8+5nsCN0PTp013+7UOOvSIzvGDKx2nTpmn/+9//tM2bN6utFEhIWIuvl3HBIAdfTJw4MdJzucpjFlM9evSI9DrRzTjkDvpcmp/Ll5HDgWwiR+5LpPXAKHDj3Op6twYkD69QoYJcx2/MmFQauS/R3xC55DxJou8tDNpDUxq6XRjnZcfSrFkz9ajI8F6Q49OYJgj58TzNTWqGkaXIjGBMzYTvot4PFXn9Bg0aJNfR/0t/HJoxMToZzejGEaxWQfMlRsP27t1bziiELhnGbhroGxod9DU25jOtWrWqX/6WoQp/N/3fri/R5YR0B82v5udC/0OrISm4+XXQn9IXyHZhfi7bzYnaaw303zQ+P84ZVkLOUfS5xG/AOBAP/Sz1rg44h+mDrjAgS58EBN0a0AUAI+i9ScHkCXSzQl9e/PYxsQv+bsapZbGg73Z00JUB/WD1Y/zxnbJS2I4ip+DCj8X448GCfmm+wGhc83Ohr6TVjAGTvvgy3SO4ulhFFQi5E6gAE32jzH250qVLJ3Pk6TBACwPndOhrhlGlxmOwYBS6rwGcK8h9ipMqBjNgRiVznlEEUjt37lSPjoCBSpi6zvhYfXE3P3NU0I/b/DzIeWkcNY9cocagBHn3XOX/QwBiJYzux+8L+Q/RB9T8erh4upq5xMhV//VAT3cYTAhCzP9+/WbBWwhyzM/lTW5KT+H3aH4dX6c9xm/L/Fx6RgSrmPvT//TTT2pPzOF3iIwOxufHgok+jPAY4wAmzKmOvvbGY3BOsfK9YdQ9UvThN4rfqnECEX3BNJbRnTfNk5Zg8WeGgphigBnCUCOBfGOBXDydsSI6xplh9AXP7wtXqUOQt8yqBL06zKVrfp0JEyaovd5xdYFBgOStQAWYxYsXd3oNDOgx1/7rI+yNM9ggB6Srmg9vR95GBUGuMdE1RunrqUX0BbkHjfC54WKGEzmCTOMsOqiV1VOWeArT5xlfDwsuVObZfPLmzSuT1hvh+2tO12UM1K2G9/Thhx86vR4W1NBHBcm1zZ9r5cqV1d7wh5p7478dy/fff6/2emf8+PGRnsvXFhx3kIfWWEutL75O1YqbI/Nz+dqC4wp+c8Z8k6jdt/Icbp7eFwuCZtwI61Ajj/eA65MRMj2YP0t/3BDokGkAgabx9bBEl8LMVWte586d1d7QwwAzhJlzkwVi+eKLL9SrxwyaKMzP7WtzE5JVm58Li9UjyVOmTBnpNXxtbtKnUzMuvowkD1SAaWzSR22Xq7tifbYfc/MRmlZx8dSPR9OPt3n4vPXmm286Xg8LgkgjNPWj6Ut/r2jCxpR4aP7yZn54HWoWUMOgvx7WzdOWIm8gaoERzBovaoBR90j3pB+P34c/4f2aa3OyZMmi9rqHhPvIFKAfY3UTZigzT7CAZdSoUWqvd9Cdw/xcSLdmJeReNb8GFtyA+cJVtx7zSPKYmDNnjtNz+5KyLipHjx51upFzNdMW8l9in6uR9jhnG0f/9+vXT+3xD9RqmlsbPAlq0Q3GGKjHJG2Uv4XdIB8KDbbASK1FSJAggVrzDkbmumK7G1Vr1rDyPbs6zur3ayXbhVQMHDhQfPLJJ3I0/Wuvvab22GEU/N9//y3Xly1bJv+vw0jbjRs3yuPfeecdYQumZOd9f6pcubJas8NgFltQJdfRAR4DkjAARx/YZ7u4C9sFQ/z000+yk7+3bCd0YQtWxaeffiqfB6NpzZkCMJgGA4jwd/7zzz/VVrsqVaqIHTt2iI8++kh+xrYbF7XHP/B+R4wYoUp2x48fl59TVJo2bSp27twpbDcJsmy7cZD/jwv8fc4KxPkKQvU9f/PNN2pNiIIFC8oBuVbCYEQMTOzYsaP87uM8hIweRjNmzJD/37x5sxykZ2S7KZXnMZzDcC6zBW5qj39gYBUGBBotXbpU3Lp1S5VcwzH4d+p/ZwwmDFXxEGWqdQoxuKBv2rRJlQKjZMmSokSJEqrku6pVq8q0UEYdOnSQI/q8heAG6YLMcCE0ZwyICdvda6SRhBjdh5HA3po4caIcVWyUKlUqmcrGGxhZaD5JIisCTkSBNHjwYNGjRw+5/sILL8hR3MGEdDK5c+dWJTsEcEg7ghMuLjL9+/dXewIDI8n1kcIYsfr999/L9WDChRyfi65bt25iyJAhquTegAEDRK9evcSSJUsi3WyEK/w+zUEHfsfIDOAt3Gw0bNhQlexwfvF0pLAncP5zdbN07NgxOTraW7j5Md+U4DxuvqH0Ba4FeC7AaHXc6OTJk0eWAwU3oLhx0s/B48ePF23atJHrwYLsErj5NY6uRxDcuHFjVXLvjTfekBkqkEIOwWpIkvWYRBZDcnt8vYyLryPeMCDD/FxYrOznB8Z+evri6yhKdBA3Pxf6/nkrUE3k0alUqZLTe7AFmGpP8GAQkvE94TPHCFE0l5ubqP0No1eNg6Q8aY4OBDTzGT+jnB7OgoU+rWhuNM6zHu7w+zR+VlgwO5Mv0KfP/Fw4v1gJ5z/za2BBU7EvXPXbxXncChjgoj+n1U3jnvr777+d/m3+7qbiKfPgUk+7JeA6YHW/XquxiZz8wlzrBr7mGXN3HGoErOTv92z1+w0kc7NNdM04gVCmTBm1Zte7d2+ZUw657pBMOZBQA2HMrxmMvJeumGvRDh06JLZv365K7qHWqlmzZi4TY3sjXrx4AV985e/fv7cJ26Pj6v1CqL3n3377zZFXFc3P+F4Fg/mcFaq/USTPj65rAs43+ExDfeIYBpjkF5j1wczXE5/et87smWeeUWvW8Pd7tvr9BhKanPWLd6tWrUKib17ZsmXVmh1mYULTdL58+dSWwMHsRnpzG4Lbb7/9Vq4HG5ohzd1I0HwbFTSxoo8p+qTFJbHt948ZddDX1iyU3jMmOEBQCZikYfjw4XI9GF5++WVRunRpuY4+4uhLHQpq167tdLOAwBdBZlTQRQp9ZoMVrHvK8gATkXW5cuXknW9cX9B3yZNZRsKRq5ks3AWK0XF1wsSMQOgzZSV/v2dzn8HYBB3y0R8YffIwUCYmNUVWcTUzV9euXdVa4I0ZM0ZOj4r+ZS1atFBbg69u3bpqzW7+/PlqzbUJEybICzH6b8Yl/v79o++yldAi4iooDpX3rGma7L966dIlUaRIEfm9c1frGgiJEyeWgRveB26gEHCGAsQK5kGL0f1GcQ7GOQbHhjLLA0xMT4YRlIjC4/qCz8HcaTyucHWy9naAi87Vcf7oIB4b33MgYUo33DQFuvnZHdSimk+wmOowWFCbhCkicTENJRgUZrR7925x48YNVXKG7ahlimu1l8BzlrXvGaPGMbgHz4Eb01CYmx/vATWGvk4B6i/m3+iGDRvUWmTo4rJw4cJY8Rv1yyjyI0eOiC1btqhS3IWmurx586pS3IL5Us13vzjR7N27V5U89+OPP4r3339flezefvttMW7cOFWyBp5Pb87RoY8LUt54C+lekC7HaNKkSV7XbIXKKPJQhfQ/K1euVCV7iqI333xTlQhQo4Xaftz863DhN9eaAEaPI2UVzuFW9xkMdRi9a06dgyZIpLvy1rvvvivGjh2rSnb4XM3nsZhCkGE+P6Em3Xwe8wRaWJCdwQhzkb/44ouq5DmcnxDIoYZ13bp1sjmf3Nu3b1+kzxk1v6lTp1alCBg9jhtBpGEKeQgwiaxmu6g5zZmKBfNB+zK6F3O3Gp8HC+aZtxrm4ja/ji2AUXu9oyclNy4YxeitUBlFHqowatz42WAkLEVmu9g7fU4DBw5UeyJgxDiSwWPa0LjI1ahszAblC0whan4uJPm2mi24jPQ65lmtPIHzckJDknEsmNXJOIOWp3Cew0xgmCLV1xHtcZF5StnFixerPREwJS6yVWB6y9iAg3xCGJoY0qVLF9Dl66+/Vq8eM2guRO2SEWrjMBDDWxj5aoZ+vlYrWrSozElm5Oq1PWE+DoNA4lqfNn/DaHE976RuzZo1ao2MzAOiXOXXxeeJGpNg5wYMFrSwmPNH+vr7P3z4sFqzQ/+/YsWKqZJ1qlWrptYi+PKeT5w4IWzBpCrZISeyt0nbUeOJbiK2AFPWkiP5OXnGk98oEsDXq1fPklzVgcAAM4QhrQL6lAVysTL9jKuTn/nE6wnzMZkzZ/bLDwwDV8x9YU6ePOn1qMxr166JK1euqJIdmotic5qiUIMmpc6dO8ubGONIWvQv9LUPWjgzX7yMydcBfcZxQ4sLmLuZs+IC8zkLzZTu+qu64+pGGn2X/TEgAwGxuZ+kFedYaNCggVrzDCbEQDJ1pOtC821sHtQYDNH9RnHOQ2J1/EZjCwaY5De4kzXz5e4a/cGM0AfFX8zvGVkAcOL0hhUna3IPAX/z5s1lv0L0uTSmTNI0TU7pSM5Qe2bsy4tpI403k5j1CMFKXP+eWnHOwvnCmBMV/Pm5mt+zFQEmbra9Oc+eOXNG3uyhny8G9PgyHWtcZw4wd+3apdbsPv74Y5kiLjYF7gwwQxhyDyInXSAXzJNsFcxRjWYWIzSheANNN+ZaVX+erGvUqCGnGzTy9j2bH4+ca3Flur1AwFy8SDOCwRdIV4X8ekbmZnOyp7RBFgAdAnHU9gIGdgwdOlT873//k+W4DEGSOfdjTH//GCyFFgx/MZ8PEeSh5cUb5veMFiJXKZBcQYsBai7PnTsnFi1a5FPrEr6PGFBlbvmJS/Lnzy+7UukQ9OvzzSNZPbLS9OnTR5ZjDXTEJPKXOXPmOHVcRkdmbwb6fPnll07H2+6MtcePH6u9/tGhQwen13zzzTfVHs/YglSn42My8ISDfJytX79ee+KJJ7RevXqpLZq2YMECp8+nYMGCao+zO3fuqLW46bPPPnP6nMaNGye3V69eXU5XR3Y9evRw+pxq1aql9nimYcOGTse3atVK7fGfMmXKOL2mN4MgMSAzY8aMTsdj2lVPXL9+XStWrJgcILR06VK11XvDhw/3eUBVOKlWrZrT32HLli3a3bt3tWzZsslpX2MbBpjkVwgG8+TJ4/SjWbJkidobPfOxq1atUnuihxPnrFmztM6dO2tTp071eETkiRMntAQJEjhe86mnntKuXr2q9kbt9OnTMgDSj33mmWe0S5cuqb3eY4AZ4caNG/JEi5H9+Nvqrl275vSZx4sXT7ty5Yraa4cR0i+99JK2YcMGtSXuWbRokdP36OOPP9bmz58vg4NDhw6pR9GFCxe0xIkTOz4njKY+e/as2hs1fO+QLUM/FqOpcU7w1K1bt+TIcGTOWLZsmdoavYULFzpeE0vevHnVnuhhtLLx2CJFinhUCYAbNsz7j8/n119/VVu9N336dPl5T5gwQW2JuwYMGOD0t8Bc+H379tUyZcoUK2+QGWCS302aNMnpR9O4cWO1J2p//fWX03F169ZVe6KHwLZBgwZOx1etWlW7f/++ekTU3n77badjR44cqfZEbciQIU7HDR06VO3xDWoIjM+HJa4GmC1bttRy5coVKXiEokWLOn1GCJyMUKvUpEkTVYqbLl++7PQZlS1bVsuRI4f26aefqkeQDsG38bPytEZwxIgRTsf1799f7YkebpRQ+248vlOnTmpv9AoXLux0rKepbMw1rmvXrlV73MPNOmq+8Xi00KBlwZtl3bp12uzZs7U2bdrI58CNeFxvYYAVK1Y4/S3wt0HwPWXKFPWI2IUBJgUEgkP9R4PapuhOfriDxt2xfkyyZMm8qmXB3b9+rHFBsOsJ1Fiitkw/Dk370dVinjt3Tnv22Wcdx6A535c8ckbmIBsLcuyFq4sXL2pt27bV3nvvPcd3BDcL6LaQIkUKbd++fXKbGWqpjZ/R66+/rvZo2ueff66lS5cuRjXJ4QKfg/FzQs0IbmLIGWoSja0nadKkkTWbUcGNj7GpGTdDaN701KBBgxzHGpddu3apR0QNj3v66acdxyFHbHTdiVCjb6z9b968udrjHs7NjRo1chxjxfLRRx+pZ4/bzpw5E+mzwfne393C/IUBJgUEmjfR9KL/aHLnzh3lBR93/vpjcQe3evVqtccz5qYGfWnXrp16RPRwwk6VKpXjWJxUjU2zRqgZNfa9zJ49u1dNY+6gdkB/Tn1JmjSpdvv2bfWI8GLuS4ZyqVKl5EUwqiZD9P8yHocFtSP169eXx6IJkZwT06MrAWpMyLWDBw9qadOmdXxe6Ivp7obxwYMHTi0muCE9duyY2usZ4024cdH7ynpi7ty5TgGjq4T6OtzMvfDCC47HVq5cWXbJiQ5uAPVjrFo8DaLjAtxI658LKla8/R6FEgaYFDDoB4fmcf3HgxrCNWvWqL12qCV4//33HY/JkCGDR002ZugTpD+HcfG0qVuHWlNjsxWa2c01qZgBBM2N+mMwi09MgkvUEOA5MdjAeLEwLrgYoIYv3AJNzCTj6t/7/fffq0e4hgujeeYoLPj80P+W7HCDpX82H3zwgdpK7hw/ftxpVq5XXnklUi06AlH8HvXH4Hzhyww2PXv2dDyHcfG0qVuHm/H06dM7jsff3Fz7isdkzZrV8Riclz1pokaTvX6MVQtuIikCBjvpn83YsWPV1tiJASYF3LRp0+SAC/1HhEATo+dwokGHcWxDreW7777rsr+dJ1DTqPcR0hdcHHzp54NjUBNgrM1Afyc8P5rB9W3Y/9VXX7mt5YzOxo0bZbMagiz8+z1ZMIgAFwr0QQwH3bt3d3yeWDAAxdPO/5MnT3Y6FsEltlGEr7/+Wn426HuJZmCKHlon0AfT2PyN3z1+/4UKFXJsw+8WLS++dotBEIiWHf35sKCriC8wKAnNznqTOc6rOL/iPGsMLFGD+csvv6ijooapLl2dg2K68DfqrFmzZvJvg+9XbBcP/7H9Y4gCCl+7DRs2yNxeW7dulbPfYFoy24VPJs6uU6eOSJkypXq0b5CQ23bylDkT8ZwNGzaM0Ww6yEmG6c82bdokk+DevXtX5sx88cUXZb5P2wnB66nVKDLMVvH333/LxOBI9oz8cJ5CHj7bhVB+d1q0aCFnfaIItps2MX78eDmlpjmxM0XNFjiKlStXCtuNoNi5c6ew3XjKKSAxkw5yjNasWVPmvIwJzBo0adIkmQgfuSXNM4t5Czkqcc7Ce0bCeJwTkefTdoMvp9v1x5S7FDP4LiEHJq4xtpsatTV2YoBJRBQHnD9/XuTMmVMGmZgWkohCy/r168Urr7wiJk+eLGcri+0YYBIRhbnHjx/LGrGzZ8/KFgPjtJFEFHxXr14VRYoUkcucOXPU1tiNU0USEYW5L774QmzZskXMmjWLwSVRiEE9H+YZRxeLsWPHqq2xHwNMIqIwtnTpUjnPOGpF8uXLp7YSUajA7xP9ZBcvXixSpUqltsZ+Yd1Ejk7Y27dvl01CWAYNGiTSp0+v9hIRhbejR4/KAWi4gKGGhIhCCwYlvv7662L58uXytxpOwibA/Ouvv+To01OnTomTJ0/K/2N59OiR3I/RvujjEJNRxEREoWb//v3i/v37okCBAmqLHTIzYMAARuL36dNHbSWiQEKIhYquFClSiOzZs6utdvjtIpvDmDFjRL169dTW8BE2TeQ4wQLSxOzbt0+medCDSyhTpgyDSyIKK6NGjZJpsgoWLChTzqDGEpDmpEqVKnLAAINLouBAcNmuXTv5O0QGB6ROw40fIE1fpUqVRI8ePcIyuISwbCLHXQFykxkNHjxYdO/eXZWIiGI3jAzHgB3kNtQlSZJElChRQuZqbdSokawZYW5WouDYsWOHvPkzSps2rcidO7dsdR0wYIDo1q2b2hN+wnKQT/LkydVahIoVK6o1IqLwgGY3o9u3b8tcel9//bWYMGECg0uiIEqWLJmIFy+eKtlduHBB7NmzRw7oCefgEsIywMTMLUYIOIsVK6ZKRESxX/z48cUPP/zgNHsMZgHBLD1oliOi4MqWLZvo1auXI8jE/zHj0+bNm2Ve2nAXlk3knTp1EkOHDlUlIf+gCxcuVCUiovCB6QAx5WqGDBlkgElEoeXYsWNyoE/evHnFCy+8oLaGv7AMMNHnAX0fdJgWDUGnNy5duiTzUaGWgIiIiIg8F3bRE+bb3blzpyrZedv/8u+//xaZM2cWe/fuVVuIiIiIyFNhF2CuWLFCpgbQoRayUKFCqhQ95NBE0tPEiRPL9B9ERERE5J2wDDCNypcvH2kUlzvnzp0TtWrVkv9Hfio2jxMRERF5L+wDTASKntiyZYscaa733Xz11Vfl/4mIiIjIO2EVYGIGH0wPaeRJ/8sZM2bIKdVOnz6ttog4kUKAiIiIyB9iZYCJQTzz5s0Tc+bMcUyNBpgs3ihdunQiX758qhTZvXv3RM+ePUWTJk3E3bt31VYhp3TKmjWrKhERERGRN2JNmiIEkiNHjhRz584VR44ckVOkPfnkk+LWrVuiffv24vvvv5eDc+bPn6+OEHLez0mTJqlSBDzX6NGjxU8//STTEZlhBHmFChVUyT6/+bhx41SJiIiIiKIS8gEmahmHDBkivvzyS7lesmRJ8cUXX4jq1avL/cuWLRMNGjSQgecbb7whbty4IbfD1KlTRdOmTVXJ7uLFi7KG0vi46CAxKuY3JyIiIqLohXSAiQE39erVkzWWSZIkkbWR9evXV3sjDBo0SPajNOa/xAhwzPmZOnVqtcXu0aNHMqu+7uzZs7L/pQ61lci4b5x+DSmLMmbMqEpEREREFJWQDTCXLFkiGjVqJG7evCmDS4wOf/nll9VeZ2vXrpXpiIxQ07lx40ZVcm/KlCmyKV1XtmxZsW7dOlUiIiIiIm+F5CCfiRMnitq1a8vg8oknnhC//PKL2+ASEiZMqNYiVKtWTa1FbeXKlWrNrkqVKmqNiIiIiHwRcgHm0qVLRdu2bcXDhw9luUuXLqJGjRpy3Z07d+6otQh6H83omAPMypUrqzUiIiIi8kVIBZjoc9mwYUNHcInBOBjQEx300TR69tlnRfHixVXJvYMHD8qpIXVJkyaVTetERERE5LuQCTDRHF6nTh35fx1SCSEdUXTMI7wxC48n0zyaay/LlSsnB/kQERERke9CJsD87LPPxPHjx1VJiGbNmnncXI0ZfIx8bR5n/0siIiKimAuJUeQbNmyQqYIeP36stthn63nppZdUyT00p6dJk0Zcu3ZNllFzee7cObktKvhn4zGXL19WW+xN9Pnz51clIiIiIvJFSNRgfvjhh07BZaVKlTwKLmH9+vWO4BKKFSsWbXAJyHVpDC4xraSnr0lERERE7gU9wMT84Qj2jDp06KDWordw4UK1Zudr8ziC2njx4qkSEREREfkq6AHmt99+q9bsMmXKJHNgeuK///6T00Easf8lERERUXAFNcA8fPiwzHtphEDPkxHggOkh0d9S52l6ogcPHkSarYcBJhEREZE1ghpgohbRPMYIqYI89d1336k1u9dee82j4BRTSN6+fVuV7Pk2M2fOrEpEREREFBNBDTBdzfntaYCJpvFt27apkh2bx4mIiIiCL6gBJkaAG6VNm1Zkz55dldy7fv266Ny5sypFQIJ1T5gDTE4PSURERGSdoAaYZ8+eVWt2qVOnVmtRQ3CZMGFCVbJDM7c5PRH6Wpph3vJNmzapku0DiB9fjiA3Wr16tbh3754qEREREZE3ghpgmgNAc9Doyg8//CD+/PNP8frrr6stduY5xFHLWaJECTmQyGjZsmVOr1u4cGGRKlUqVbLXbnbr1k088cQTagsREREReSOoAWby5MnVmt2RI0fE3bt3VSmy3377TfTq1UvMnDlT7N69W221QzCpQwBZv359WTOZI0cOtdVuyZIlas3O2DyOqSpbt24tJkyYwDnJiYiIiHwU1ADTPLjm5s2b4qefflIlZ4MGDRKNGjWSg3swneO///6r9tgVKVJE/v/WrVuydjNZsmTiq6++ktuMkNjdqGLFivL/CC4RkA4ZMkTkzZtXbiMiIiIi7wU1wGzcuLFai/DJJ5+IwYMHi5MnT4ozZ87I2kQEjz179hTDhw93jBRHE7jRzz//LFasWCHnNEeQiRyZ5mbuCxcuyFpSI/THxFzoGL1er1490bRpU7WHiIiIiHwRTzMnogyghw8firp164pFixapLa4lSZJEfP/997L5Wpc4cWKXA3Fq1Kghpk2bJlKkSKG2RPjnn3+cmtKNEFhOmjSJfS+JiIiIYiioNZhPPvmkmDVrlqw5dDcPeKlSpcTmzZudgksw57zEAKE+ffrIucldBZdQoEABkTt3blWyQ0DZu3dv2fTO4JKIiIgo5oJag2l09OhRMX36dDn1IwI9DM6pU6eO2xl2bty4IQYOHCgOHTokChUqJN59912RLl06tdc9NJ+PGDFCnD59Wj53s2bNRMaMGdVeIiIiIoqpkAkwiYiIiCg8BLWJnIiIiIjCDwNMIiIiIrIUA0wiIiIishQDTCIiIiKyFANMIiIiIrIUA0wiIiIishQDTCIiIiKyFANMIiIiIrIUA0wiIiIishQDTCIiIiKyFANMIiIiIrIUA0wiIiIishQDTCIiIiKyFANMIiIiIrIUA0wiIiIishQDTCIiIiKyFANMIiIiIrIUA0wiIiIishQDTCIiIiKyFANMIiIiIrIUA0wiIiIishQDTCIiIiKyFANMIiIiIrIUA0wiIiIishQDTCIiIiKyFANMIiIiIrIUA0wiIiIishQDTCIiIiKyFANMIiIiIrIUA0wiIiIishQDTCIiIiKyFANMIiIiIrIUA0wiIiIishQDTCIiIiKyFANMIiIiIrIUA0wiIiIishQDTCIiIiKyFANMIiIiIrIUA0wiIiIishQDTCIiIiKyFANMIiIiIrIUA0wiIiIispAQ/wdTkSQT06zAhgAAAABJRU5ErkJggg==;" vertex="1" parent="8">
                    <mxGeometry x="30" y="40" width="224" height="110.99" as="geometry"/>
                </mxCell>
                <mxCell id="11" style="edgeStyle=none;html=1;entryX=0;entryY=0.5;entryDx=0;entryDy=0;sketch=1;curveFitting=1;jiggle=2;" edge="1" parent="1" source="3" target="6">
                    <mxGeometry relative="1" as="geometry"/>
                </mxCell>
                <mxCell id="12" value="" style="edgeStyle=none;html=1;sketch=1;curveFitting=1;jiggle=2;" edge="1" parent="1" source="6" target="9">
                    <mxGeometry relative="1" as="geometry"/>
                </mxCell>
                <mxCell id="13" value="Reales System" style="text;html=1;align=center;verticalAlign=middle;resizable=0;points=[];autosize=1;strokeColor=none;fillColor=none;fontFamily=Tahoma;fontSize=26;" vertex="1" parent="1">
                    <mxGeometry x="90" y="175" width="190" height="40" as="geometry"/>
                </mxCell>
                <mxCell id="14" value="Modellannahme" style="text;html=1;align=center;verticalAlign=middle;resizable=0;points=[];autosize=1;strokeColor=none;fillColor=none;fontFamily=Tahoma;fontSize=26;" vertex="1" parent="1">
                    <mxGeometry x="395" y="170" width="200" height="40" as="geometry"/>
                </mxCell>
                <mxCell id="15" value="Modellgleichungen" style="text;html=1;align=center;verticalAlign=middle;resizable=0;points=[];autosize=1;strokeColor=none;fillColor=none;fontFamily=Tahoma;fontSize=26;" vertex="1" parent="1">
                    <mxGeometry x="685" y="170" width="240" height="40" as="geometry"/>
                </mxCell>
            </root>
        </mxGraphModel>
    </diagram>
</mxfile>